<?xml version="1.0" encoding="UTF-8"?>
<!DOCTYPE svg PUBLIC "-//W3C//DTD SVG 1.1//EN" "http://www.w3.org/Graphics/SVG/1.1/DTD/svg11.dtd">
<svg width="196mm" height="154mm" viewBox="0 0 19600 15400" version="1.1" xmlns="http://www.w3.org/2000/svg" stroke-width="28.222" stroke-linejoin="round" xml:space="preserve">
 <path fill="rgb(114,159,207)" stroke="none" d="M -57,3 L 19531,3 19531,15355 -57,15355 -57,3 Z"/>
 <path fill="none" stroke="rgb(52,101,164)" stroke-linejoin="round" d="M -57,3 L 19531,3 19531,15355 -57,15355 -57,3 Z"/>
 <path fill="rgb(255,255,255)" stroke="none" d="M 9719,15355 L -75,15355 -75,3 19513,3 19513,15355 9719,15355 Z"/>
 <path fill="none" stroke="rgb(179,179,179)" stroke-linejoin="round" d="M 9252,11811 L 2716,11811 2716,2035 15787,2035 15787,11811 9252,11811 Z"/>
 <path fill="none" stroke="rgb(179,179,179)" stroke-linejoin="round" d="M 15787,11810 L 2716,11810"/>
 <path fill="none" stroke="rgb(179,179,179)" stroke-linejoin="round" d="M 15787,10832 L 2716,10832"/>
 <path fill="none" stroke="rgb(179,179,179)" stroke-linejoin="round" d="M 15787,9854 L 2716,9854"/>
 <path fill="none" stroke="rgb(179,179,179)" stroke-linejoin="round" d="M 15787,8876 L 2716,8876"/>
 <path fill="none" stroke="rgb(179,179,179)" stroke-linejoin="round" d="M 15787,7899 L 2716,7899"/>
 <path fill="none" stroke="rgb(179,179,179)" stroke-linejoin="round" d="M 15787,6922 L 2716,6922"/>
 <path fill="none" stroke="rgb(179,179,179)" stroke-linejoin="round" d="M 15787,5944 L 2716,5944"/>
 <path fill="none" stroke="rgb(179,179,179)" stroke-linejoin="round" d="M 15787,4967 L 2716,4967"/>
 <path fill="none" stroke="rgb(179,179,179)" stroke-linejoin="round" d="M 15787,3989 L 2716,3989"/>
 <path fill="none" stroke="rgb(179,179,179)" stroke-linejoin="round" d="M 15787,3011 L 2716,3011"/>
 <path fill="none" stroke="rgb(179,179,179)" stroke-linejoin="round" d="M 15787,2034 L 2716,2034"/>
 <path fill="none" stroke="rgb(179,179,179)" stroke-linejoin="round" d="M 2716,11960 L 2716,11810"/>
 <path fill="none" stroke="rgb(179,179,179)" stroke-linejoin="round" d="M 4583,11960 L 4583,11810"/>
 <path fill="none" stroke="rgb(179,179,179)" stroke-linejoin="round" d="M 6450,11960 L 6450,11810"/>
 <path fill="none" stroke="rgb(179,179,179)" stroke-linejoin="round" d="M 8318,11960 L 8318,11810"/>
 <path fill="none" stroke="rgb(179,179,179)" stroke-linejoin="round" d="M 10184,11960 L 10184,11810"/>
 <path fill="none" stroke="rgb(179,179,179)" stroke-linejoin="round" d="M 12052,11960 L 12052,11810"/>
 <path fill="none" stroke="rgb(179,179,179)" stroke-linejoin="round" d="M 13919,11960 L 13919,11810"/>
 <path fill="none" stroke="rgb(179,179,179)" stroke-linejoin="round" d="M 15787,11960 L 15787,11810"/>
 <path fill="none" stroke="rgb(179,179,179)" stroke-linejoin="round" d="M 2716,11810 L 15787,11810"/>
 <path fill="none" stroke="rgb(179,179,179)" stroke-linejoin="round" d="M 2566,11810 L 2716,11810"/>
 <path fill="none" stroke="rgb(179,179,179)" stroke-linejoin="round" d="M 2566,10832 L 2716,10832"/>
 <path fill="none" stroke="rgb(179,179,179)" stroke-linejoin="round" d="M 2566,9854 L 2716,9854"/>
 <path fill="none" stroke="rgb(179,179,179)" stroke-linejoin="round" d="M 2566,8876 L 2716,8876"/>
 <path fill="none" stroke="rgb(179,179,179)" stroke-linejoin="round" d="M 2566,7899 L 2716,7899"/>
 <path fill="none" stroke="rgb(179,179,179)" stroke-linejoin="round" d="M 2566,6922 L 2716,6922"/>
 <path fill="none" stroke="rgb(179,179,179)" stroke-linejoin="round" d="M 2566,5944 L 2716,5944"/>
 <path fill="none" stroke="rgb(179,179,179)" stroke-linejoin="round" d="M 2566,4967 L 2716,4967"/>
 <path fill="none" stroke="rgb(179,179,179)" stroke-linejoin="round" d="M 2566,3989 L 2716,3989"/>
 <path fill="none" stroke="rgb(179,179,179)" stroke-linejoin="round" d="M 2566,3011 L 2716,3011"/>
 <path fill="none" stroke="rgb(179,179,179)" stroke-linejoin="round" d="M 2566,2034 L 2716,2034"/>
 <path fill="none" stroke="rgb(179,179,179)" stroke-linejoin="round" d="M 2716,11810 L 2716,2034"/>
 <path fill="none" stroke="rgb(179,179,179)" stroke-linejoin="round" d="M 15937,11810 L 15787,11810"/>
 <path fill="none" stroke="rgb(179,179,179)" stroke-linejoin="round" d="M 15937,10723 L 15787,10723"/>
 <path fill="none" stroke="rgb(179,179,179)" stroke-linejoin="round" d="M 15937,9637 L 15787,9637"/>
 <path fill="none" stroke="rgb(179,179,179)" stroke-linejoin="round" d="M 15937,8551 L 15787,8551"/>
 <path fill="none" stroke="rgb(179,179,179)" stroke-linejoin="round" d="M 15937,7465 L 15787,7465"/>
 <path fill="none" stroke="rgb(179,179,179)" stroke-linejoin="round" d="M 15937,6379 L 15787,6379"/>
 <path fill="none" stroke="rgb(179,179,179)" stroke-linejoin="round" d="M 15937,5292 L 15787,5292"/>
 <path fill="none" stroke="rgb(179,179,179)" stroke-linejoin="round" d="M 15937,4206 L 15787,4206"/>
 <path fill="none" stroke="rgb(179,179,179)" stroke-linejoin="round" d="M 15937,3120 L 15787,3120"/>
 <path fill="none" stroke="rgb(179,179,179)" stroke-linejoin="round" d="M 15937,2033 L 15787,2033"/>
 <path fill="none" stroke="rgb(179,179,179)" stroke-linejoin="round" d="M 15899,11266 L 15787,11266"/>
 <path fill="none" stroke="rgb(179,179,179)" stroke-linejoin="round" d="M 15899,10180 L 15787,10180"/>
 <path fill="none" stroke="rgb(179,179,179)" stroke-linejoin="round" d="M 15899,9094 L 15787,9094"/>
 <path fill="none" stroke="rgb(179,179,179)" stroke-linejoin="round" d="M 15899,8007 L 15787,8007"/>
 <path fill="none" stroke="rgb(179,179,179)" stroke-linejoin="round" d="M 15899,6922 L 15787,6922"/>
 <path fill="none" stroke="rgb(179,179,179)" stroke-linejoin="round" d="M 15899,5836 L 15787,5836"/>
 <path fill="none" stroke="rgb(179,179,179)" stroke-linejoin="round" d="M 15899,4749 L 15787,4749"/>
 <path fill="none" stroke="rgb(179,179,179)" stroke-linejoin="round" d="M 15899,3663 L 15787,3663"/>
 <path fill="none" stroke="rgb(179,179,179)" stroke-linejoin="round" d="M 15899,2577 L 15787,2577"/>
 <path fill="none" stroke="rgb(179,179,179)" stroke-linejoin="round" d="M 15787,11810 L 15787,2033"/>
 <path fill="rgb(87,157,28)" stroke="none" d="M 14230,11810 L 14853,11810 14853,2251 14230,2251 14230,11810 Z"/>
 <path fill="rgb(87,157,28)" stroke="none" d="M 12363,11810 L 12985,11810 12985,9494 12363,9494 12363,11810 Z"/>
 <path fill="rgb(87,157,28)" stroke="none" d="M 10495,11810 L 11118,11810 11118,9575 10495,9575 10495,11810 Z"/>
 <path fill="rgb(87,157,28)" stroke="none" d="M 8629,11810 L 9252,11810 9252,9939 8629,9939 8629,11810 Z"/>
 <path fill="rgb(87,157,28)" stroke="none" d="M 6762,11810 L 7384,11810 7384,8878 6762,8878 6762,11810 Z"/>
 <path fill="rgb(87,157,28)" stroke="none" d="M 4894,11810 L 5517,11810 5517,10092 4894,10092 4894,11810 Z"/>
 <path fill="rgb(87,157,28)" stroke="none" d="M 3027,11810 L 3649,11810 3649,10781 3027,10781 3027,11810 Z"/>
 <path fill="rgb(255,66,14)" stroke="none" d="M 14853,11810 L 15475,11810 15475,5437 14853,5437 14853,11810 Z"/>
 <path fill="rgb(255,66,14)" stroke="none" d="M 12985,11810 L 13608,11810 13608,11391 12985,11391 12985,11810 Z"/>
 <path fill="rgb(255,66,14)" stroke="none" d="M 11118,11810 L 11740,11810 11740,9714 11118,9714 11118,11810 Z"/>
 <path fill="rgb(255,66,14)" stroke="none" d="M 9252,11810 L 9873,11810 9873,9984 9252,9984 9252,11810 Z"/>
 <path fill="rgb(255,66,14)" stroke="none" d="M 7384,11810 L 8007,11810 8007,9763 7384,9763 7384,11810 Z"/>
 <path fill="rgb(255,66,14)" stroke="none" d="M 5517,11810 L 6139,11810 6139,10267 5517,10267 5517,11810 Z"/>
 <path fill="rgb(255,66,14)" stroke="none" d="M 3649,11810 L 4272,11810 4272,3028 3649,3028 3649,11810 Z"/>
 <path fill="none" stroke="rgb(0,0,0)" stroke-linejoin="round" d="M 3338,10792 L 3338,10781 3338,10769"/>
 <path fill="none" stroke="rgb(0,0,0)" stroke-linejoin="round" d="M 3438,10792 L 3238,10792"/>
 <path fill="none" stroke="rgb(0,0,0)" stroke-linejoin="round" d="M 3238,10769 L 3438,10769"/>
 <path fill="none" stroke="rgb(0,0,0)" stroke-linejoin="round" d="M 5205,10135 L 5205,10092 5205,10048"/>
 <path fill="none" stroke="rgb(0,0,0)" stroke-linejoin="round" d="M 5305,10135 L 5105,10135"/>
 <path fill="none" stroke="rgb(0,0,0)" stroke-linejoin="round" d="M 5105,10048 L 5305,10048"/>
 <path fill="none" stroke="rgb(0,0,0)" stroke-linejoin="round" d="M 7073,9012 L 7073,8878 7073,8744"/>
 <path fill="none" stroke="rgb(0,0,0)" stroke-linejoin="round" d="M 7173,9012 L 6973,9012"/>
 <path fill="none" stroke="rgb(0,0,0)" stroke-linejoin="round" d="M 6973,8744 L 7173,8744"/>
 <path fill="none" stroke="rgb(0,0,0)" stroke-linejoin="round" d="M 8940,9988 L 8940,9939 8940,9890"/>
 <path fill="none" stroke="rgb(0,0,0)" stroke-linejoin="round" d="M 9040,9988 L 8840,9988"/>
 <path fill="none" stroke="rgb(0,0,0)" stroke-linejoin="round" d="M 8840,9890 L 9040,9890"/>
 <path fill="none" stroke="rgb(0,0,0)" stroke-linejoin="round" d="M 10807,9624 L 10807,9575 10807,9527"/>
 <path fill="none" stroke="rgb(0,0,0)" stroke-linejoin="round" d="M 10907,9624 L 10707,9624"/>
 <path fill="none" stroke="rgb(0,0,0)" stroke-linejoin="round" d="M 10707,9527 L 10907,9527"/>
 <path fill="none" stroke="rgb(0,0,0)" stroke-linejoin="round" d="M 12674,9543 L 12674,9494 12674,9446"/>
 <path fill="none" stroke="rgb(0,0,0)" stroke-linejoin="round" d="M 12774,9543 L 12574,9543"/>
 <path fill="none" stroke="rgb(0,0,0)" stroke-linejoin="round" d="M 12574,9446 L 12774,9446"/>
 <path fill="none" stroke="rgb(0,0,0)" stroke-linejoin="round" d="M 14542,2280 L 14542,2251 14542,2221"/>
 <path fill="none" stroke="rgb(0,0,0)" stroke-linejoin="round" d="M 14642,2280 L 14442,2280"/>
 <path fill="none" stroke="rgb(0,0,0)" stroke-linejoin="round" d="M 14442,2221 L 14642,2221"/>
 <text class="TextShape" transform="translate(3264,12753) rotate(-44.9) translate(-3264,-12753)"><tspan class="TextParagraph" font-family="Arial" font-size="353px" font-weight="400"><tspan class="TextPosition" x="3264" y="12753"><tspan fill="rgb(33,33,33)" stroke="none">KLE</tspan></tspan></tspan></text>
 <text class="TextShape" transform="translate(5096,12790) rotate(-44.9) translate(-5096,-12790)"><tspan class="TextParagraph" font-family="Arial" font-size="353px" font-weight="400"><tspan class="TextPosition" x="5096" y="12790"><tspan fill="rgb(33,33,33)" stroke="none">PRR</tspan></tspan></tspan></text>
 <text class="TextShape" transform="translate(6831,12921) rotate(-44.9) translate(-6831,-12921)"><tspan class="TextParagraph" font-family="Arial" font-size="353px" font-weight="400"><tspan class="TextPosition" x="6831" y="12921"><tspan fill="rgb(33,33,33)" stroke="none">PRR2</tspan></tspan></tspan></text>
 <text class="TextShape" transform="translate(8886,12735) rotate(-44.9) translate(-8886,-12735)"><tspan class="TextParagraph" font-family="Arial" font-size="353px" font-weight="400"><tspan class="TextPosition" x="8886" y="12735"><tspan fill="rgb(33,33,33)" stroke="none">LQL</tspan></tspan></tspan></text>
 <text class="TextShape" transform="translate(8695,14793) rotate(-44.9) translate(-8695,-14793)"><tspan class="TextParagraph" font-family="Arial" font-size="353px" font-weight="400"><tspan class="TextPosition" x="8695" y="14793"><tspan fill="rgb(33,33,33)" stroke="none">LQR3 sem time control</tspan></tspan></tspan></text>
 <text class="TextShape" transform="translate(10562,14793) rotate(-44.9) translate(-10562,-14793)"><tspan class="TextParagraph" font-family="Arial" font-size="353px" font-weight="400"><tspan class="TextPosition" x="10562" y="14793"><tspan fill="rgb(33,33,33)" stroke="none">LQR3 com time control</tspan></tspan></tspan></text>
 <text class="TextShape" transform="translate(13721,13501) rotate(-44.9) translate(-13721,-13501)"><tspan class="TextParagraph" font-family="Arial" font-size="353px" font-weight="400"><tspan class="TextPosition" x="13721" y="13501"><tspan fill="rgb(33,33,33)" stroke="none">MAX GAIN</tspan></tspan></tspan></text>
 <text class="TextShape"><tspan class="TextParagraph" font-family="Arial" font-size="353px" font-weight="400"><tspan class="TextPosition" x="1328" y="11931"><tspan fill="rgb(33,33,33)" stroke="none">40,000 </tspan></tspan></tspan></text>
 <text class="TextShape"><tspan class="TextParagraph" font-family="Arial" font-size="353px" font-weight="400"><tspan class="TextPosition" x="1328" y="10953"><tspan fill="rgb(33,33,33)" stroke="none">45,000 </tspan></tspan></tspan></text>
 <text class="TextShape"><tspan class="TextParagraph" font-family="Arial" font-size="353px" font-weight="400"><tspan class="TextPosition" x="1328" y="9975"><tspan fill="rgb(33,33,33)" stroke="none">50,000 </tspan></tspan></tspan></text>
 <text class="TextShape"><tspan class="TextParagraph" font-family="Arial" font-size="353px" font-weight="400"><tspan class="TextPosition" x="1328" y="8997"><tspan fill="rgb(33,33,33)" stroke="none">55,000 </tspan></tspan></tspan></text>
 <text class="TextShape"><tspan class="TextParagraph" font-family="Arial" font-size="353px" font-weight="400"><tspan class="TextPosition" x="1328" y="8020"><tspan fill="rgb(33,33,33)" stroke="none">60,000 </tspan></tspan></tspan></text>
 <text class="TextShape"><tspan class="TextParagraph" font-family="Arial" font-size="353px" font-weight="400"><tspan class="TextPosition" x="1328" y="7042"><tspan fill="rgb(33,33,33)" stroke="none">65,000 </tspan></tspan></tspan></text>
 <text class="TextShape"><tspan class="TextParagraph" font-family="Arial" font-size="353px" font-weight="400"><tspan class="TextPosition" x="1328" y="6064"><tspan fill="rgb(33,33,33)" stroke="none">70,000 </tspan></tspan></tspan></text>
 <text class="TextShape"><tspan class="TextParagraph" font-family="Arial" font-size="353px" font-weight="400"><tspan class="TextPosition" x="1328" y="5087"><tspan fill="rgb(33,33,33)" stroke="none">75,000 </tspan></tspan></tspan></text>
 <text class="TextShape"><tspan class="TextParagraph" font-family="Arial" font-size="353px" font-weight="400"><tspan class="TextPosition" x="1328" y="4109"><tspan fill="rgb(33,33,33)" stroke="none">80,000 </tspan></tspan></tspan></text>
 <text class="TextShape"><tspan class="TextParagraph" font-family="Arial" font-size="353px" font-weight="400"><tspan class="TextPosition" x="1328" y="3131"><tspan fill="rgb(33,33,33)" stroke="none">85,000 </tspan></tspan></tspan></text>
 <text class="TextShape"><tspan class="TextParagraph" font-family="Arial" font-size="353px" font-weight="400"><tspan class="TextPosition" x="1328" y="2154"><tspan fill="rgb(33,33,33)" stroke="none">90,000 </tspan></tspan></tspan></text>
 <text class="TextShape"><tspan class="TextParagraph" font-family="Arial" font-size="353px" font-weight="400"><tspan class="TextPosition" x="16037" y="11931"><tspan fill="rgb(33,33,33)" stroke="none">20000,00</tspan></tspan></tspan></text>
 <text class="TextShape"><tspan class="TextParagraph" font-family="Arial" font-size="353px" font-weight="400"><tspan class="TextPosition" x="16037" y="10844"><tspan fill="rgb(33,33,33)" stroke="none">25000,00</tspan></tspan></tspan></text>
 <text class="TextShape"><tspan class="TextParagraph" font-family="Arial" font-size="353px" font-weight="400"><tspan class="TextPosition" x="16037" y="9758"><tspan fill="rgb(33,33,33)" stroke="none">30000,00</tspan></tspan></tspan></text>
 <text class="TextShape"><tspan class="TextParagraph" font-family="Arial" font-size="353px" font-weight="400"><tspan class="TextPosition" x="16037" y="8672"><tspan fill="rgb(33,33,33)" stroke="none">35000,00</tspan></tspan></tspan></text>
 <text class="TextShape"><tspan class="TextParagraph" font-family="Arial" font-size="353px" font-weight="400"><tspan class="TextPosition" x="16037" y="7585"><tspan fill="rgb(33,33,33)" stroke="none">40000,00</tspan></tspan></tspan></text>
 <text class="TextShape"><tspan class="TextParagraph" font-family="Arial" font-size="353px" font-weight="400"><tspan class="TextPosition" x="16037" y="6499"><tspan fill="rgb(33,33,33)" stroke="none">45000,00</tspan></tspan></tspan></text>
 <text class="TextShape"><tspan class="TextParagraph" font-family="Arial" font-size="353px" font-weight="400"><tspan class="TextPosition" x="16037" y="5412"><tspan fill="rgb(33,33,33)" stroke="none">50000,00</tspan></tspan></tspan></text>
 <text class="TextShape"><tspan class="TextParagraph" font-family="Arial" font-size="353px" font-weight="400"><tspan class="TextPosition" x="16037" y="4326"><tspan fill="rgb(33,33,33)" stroke="none">55000,00</tspan></tspan></tspan></text>
 <text class="TextShape"><tspan class="TextParagraph" font-family="Arial" font-size="353px" font-weight="400"><tspan class="TextPosition" x="16037" y="3240"><tspan fill="rgb(33,33,33)" stroke="none">60000,00</tspan></tspan></tspan></text>
 <text class="TextShape"><tspan class="TextParagraph" font-family="Arial" font-size="353px" font-weight="400"><tspan class="TextPosition" x="16037" y="2153"><tspan fill="rgb(33,33,33)" stroke="none">65000,00</tspan></tspan></tspan></text>
 <text class="TextShape"><tspan class="TextParagraph" font-family="Arial" font-size="459px" font-weight="400"><tspan class="TextPosition" x="6689" y="980"><tspan fill="rgb(33,33,33)" stroke="none">Ganho e custo na transmissão</tspan></tspan></tspan><tspan class="TextParagraph" font-family="Arial" font-size="459px" font-weight="400"><tspan class="TextPosition" x="3329" y="1483"><tspan fill="rgb(33,33,33)" stroke="none">Nó 18 - Multiple sender - Regular TX 500ms - sem ruído artificial</tspan></tspan></tspan></text>
 <path fill="rgb(87,157,28)" stroke="none" d="M 18054,7535 L 17948,7535 17948,7324 18159,7324 18159,7535 18054,7535 Z"/>
 <path fill="rgb(255,66,14)" stroke="none" d="M 18054,8032 L 17948,8032 17948,7821 18159,7821 18159,8032 18054,8032 Z"/>
 <text class="TextShape"><tspan class="TextParagraph" font-family="Arial" font-size="353px" font-weight="400"><tspan class="TextPosition" x="18259" y="7549"><tspan fill="rgb(33,33,33)" stroke="none">ganho</tspan></tspan></tspan></text>
 <text class="TextShape"><tspan class="TextParagraph" font-family="Arial" font-size="353px" font-weight="400"><tspan class="TextPosition" x="18259" y="8046"><tspan fill="rgb(33,33,33)" stroke="none">custo</tspan></tspan></tspan></text>
 <text class="TextShape" transform="translate(762,9322) rotate(-90) translate(-762,-9322)"><tspan class="TextParagraph" font-family="Arial" font-size="318px" font-weight="400"><tspan class="TextPosition" x="762" y="9322"><tspan fill="rgb(33,33,33)" stroke="none">Gain index</tspan></tspan></tspan></text>
</svg>