<?xml version="1.0" encoding="UTF-8"?>
<!DOCTYPE svg PUBLIC "-//W3C//DTD SVG 1.1//EN" "http://www.w3.org/Graphics/SVG/1.1/DTD/svg11.dtd">
<svg width="196mm" height="154mm" viewBox="0 0 19600 15400" version="1.1" xmlns="http://www.w3.org/2000/svg" stroke-width="28.222" stroke-linejoin="round" xml:space="preserve">
 <path fill="rgb(114,159,207)" stroke="none" d="M -75,4 L 19513,4 19513,15356 -75,15356 -75,4 Z"/>
 <path fill="none" stroke="rgb(52,101,164)" stroke-linejoin="round" d="M -75,4 L 19513,4 19513,15356 -75,15356 -75,4 Z"/>
 <path fill="rgb(255,255,255)" stroke="none" d="M 9719,15355 L -75,15355 -75,3 19513,3 19513,15355 9719,15355 Z"/>
 <path fill="none" stroke="rgb(179,179,179)" stroke-linejoin="round" d="M 9252,11810 L 2716,11810 2716,2035 15787,2035 15787,11810 9252,11810 Z"/>
 <path fill="none" stroke="rgb(179,179,179)" stroke-linejoin="round" d="M 15787,11809 L 2716,11809"/>
 <path fill="none" stroke="rgb(179,179,179)" stroke-linejoin="round" d="M 15787,10831 L 2716,10831"/>
 <path fill="none" stroke="rgb(179,179,179)" stroke-linejoin="round" d="M 15787,9853 L 2716,9853"/>
 <path fill="none" stroke="rgb(179,179,179)" stroke-linejoin="round" d="M 15787,8876 L 2716,8876"/>
 <path fill="none" stroke="rgb(179,179,179)" stroke-linejoin="round" d="M 15787,7898 L 2716,7898"/>
 <path fill="none" stroke="rgb(179,179,179)" stroke-linejoin="round" d="M 15787,6921 L 2716,6921"/>
 <path fill="none" stroke="rgb(179,179,179)" stroke-linejoin="round" d="M 15787,5944 L 2716,5944"/>
 <path fill="none" stroke="rgb(179,179,179)" stroke-linejoin="round" d="M 15787,4966 L 2716,4966"/>
 <path fill="none" stroke="rgb(179,179,179)" stroke-linejoin="round" d="M 15787,3989 L 2716,3989"/>
 <path fill="none" stroke="rgb(179,179,179)" stroke-linejoin="round" d="M 15787,3011 L 2716,3011"/>
 <path fill="none" stroke="rgb(179,179,179)" stroke-linejoin="round" d="M 15787,2034 L 2716,2034"/>
 <path fill="none" stroke="rgb(179,179,179)" stroke-linejoin="round" d="M 2716,11959 L 2716,11809"/>
 <path fill="none" stroke="rgb(179,179,179)" stroke-linejoin="round" d="M 4583,11959 L 4583,11809"/>
 <path fill="none" stroke="rgb(179,179,179)" stroke-linejoin="round" d="M 6450,11959 L 6450,11809"/>
 <path fill="none" stroke="rgb(179,179,179)" stroke-linejoin="round" d="M 8318,11959 L 8318,11809"/>
 <path fill="none" stroke="rgb(179,179,179)" stroke-linejoin="round" d="M 10184,11959 L 10184,11809"/>
 <path fill="none" stroke="rgb(179,179,179)" stroke-linejoin="round" d="M 12052,11959 L 12052,11809"/>
 <path fill="none" stroke="rgb(179,179,179)" stroke-linejoin="round" d="M 13919,11959 L 13919,11809"/>
 <path fill="none" stroke="rgb(179,179,179)" stroke-linejoin="round" d="M 15787,11959 L 15787,11809"/>
 <path fill="none" stroke="rgb(179,179,179)" stroke-linejoin="round" d="M 2716,11809 L 15787,11809"/>
 <path fill="none" stroke="rgb(179,179,179)" stroke-linejoin="round" d="M 2566,11809 L 2716,11809"/>
 <path fill="none" stroke="rgb(179,179,179)" stroke-linejoin="round" d="M 2566,10831 L 2716,10831"/>
 <path fill="none" stroke="rgb(179,179,179)" stroke-linejoin="round" d="M 2566,9853 L 2716,9853"/>
 <path fill="none" stroke="rgb(179,179,179)" stroke-linejoin="round" d="M 2566,8876 L 2716,8876"/>
 <path fill="none" stroke="rgb(179,179,179)" stroke-linejoin="round" d="M 2566,7898 L 2716,7898"/>
 <path fill="none" stroke="rgb(179,179,179)" stroke-linejoin="round" d="M 2566,6922 L 2716,6922"/>
 <path fill="none" stroke="rgb(179,179,179)" stroke-linejoin="round" d="M 2566,5944 L 2716,5944"/>
 <path fill="none" stroke="rgb(179,179,179)" stroke-linejoin="round" d="M 2566,4966 L 2716,4966"/>
 <path fill="none" stroke="rgb(179,179,179)" stroke-linejoin="round" d="M 2566,3989 L 2716,3989"/>
 <path fill="none" stroke="rgb(179,179,179)" stroke-linejoin="round" d="M 2566,3011 L 2716,3011"/>
 <path fill="none" stroke="rgb(179,179,179)" stroke-linejoin="round" d="M 2566,2034 L 2716,2034"/>
 <path fill="none" stroke="rgb(179,179,179)" stroke-linejoin="round" d="M 2716,11809 L 2716,2034"/>
 <path fill="none" stroke="rgb(179,179,179)" stroke-linejoin="round" d="M 15937,11809 L 15787,11809"/>
 <path fill="none" stroke="rgb(179,179,179)" stroke-linejoin="round" d="M 15937,10179 L 15787,10179"/>
 <path fill="none" stroke="rgb(179,179,179)" stroke-linejoin="round" d="M 15937,8550 L 15787,8550"/>
 <path fill="none" stroke="rgb(179,179,179)" stroke-linejoin="round" d="M 15937,6922 L 15787,6922"/>
 <path fill="none" stroke="rgb(179,179,179)" stroke-linejoin="round" d="M 15937,5292 L 15787,5292"/>
 <path fill="none" stroke="rgb(179,179,179)" stroke-linejoin="round" d="M 15937,3663 L 15787,3663"/>
 <path fill="none" stroke="rgb(179,179,179)" stroke-linejoin="round" d="M 15937,2034 L 15787,2034"/>
 <path fill="none" stroke="rgb(179,179,179)" stroke-linejoin="round" d="M 15899,10994 L 15787,10994"/>
 <path fill="none" stroke="rgb(179,179,179)" stroke-linejoin="round" d="M 15899,9365 L 15787,9365"/>
 <path fill="none" stroke="rgb(179,179,179)" stroke-linejoin="round" d="M 15899,7735 L 15787,7735"/>
 <path fill="none" stroke="rgb(179,179,179)" stroke-linejoin="round" d="M 15899,6107 L 15787,6107"/>
 <path fill="none" stroke="rgb(179,179,179)" stroke-linejoin="round" d="M 15899,4478 L 15787,4478"/>
 <path fill="none" stroke="rgb(179,179,179)" stroke-linejoin="round" d="M 15899,2848 L 15787,2848"/>
 <path fill="none" stroke="rgb(179,179,179)" stroke-linejoin="round" d="M 15787,11809 L 15787,2034"/>
 <path fill="rgb(87,157,28)" stroke="none" d="M 14230,11809 L 14853,11809 14853,2252 14230,2252 14230,11809 Z"/>
 <path fill="rgb(87,157,28)" stroke="none" d="M 12363,11809 L 12985,11809 12985,10094 12363,10094 12363,11809 Z"/>
 <path fill="rgb(87,157,28)" stroke="none" d="M 10495,11809 L 11118,11809 11118,9656 10495,9656 10495,11809 Z"/>
 <path fill="rgb(87,157,28)" stroke="none" d="M 8629,11809 L 9252,11809 9252,10433 8629,10433 8629,11809 Z"/>
 <path fill="rgb(87,157,28)" stroke="none" d="M 6762,11809 L 7384,11809 7384,10070 6762,10070 6762,11809 Z"/>
 <path fill="rgb(87,157,28)" stroke="none" d="M 4894,11809 L 5517,11809 5517,10507 4894,10507 4894,11809 Z"/>
 <path fill="rgb(87,157,28)" stroke="none" d="M 3027,11809 L 3649,11809 3649,10698 3027,10698 3027,11809 Z"/>
 <path fill="rgb(255,66,14)" stroke="none" d="M 14853,11809 L 15475,11809 15475,8232 14853,8232 14853,11809 Z"/>
 <path fill="rgb(255,66,14)" stroke="none" d="M 12985,11809 L 13608,11809 13608,10419 12985,10419 12985,11809 Z"/>
 <path fill="rgb(255,66,14)" stroke="none" d="M 11118,11809 L 11740,11809 11740,8261 11118,8261 11118,11809 Z"/>
 <path fill="rgb(255,66,14)" stroke="none" d="M 9252,11809 L 9873,11809 9873,8961 9252,8961 9252,11809 Z"/>
 <path fill="rgb(255,66,14)" stroke="none" d="M 7384,11809 L 8007,11809 8007,8831 7384,8831 7384,11809 Z"/>
 <path fill="rgb(255,66,14)" stroke="none" d="M 5517,11809 L 6139,11809 6139,9341 5517,9341 5517,11809 Z"/>
 <path fill="rgb(255,66,14)" stroke="none" d="M 3649,11809 L 4272,11809 4272,3047 3649,3047 3649,11809 Z"/>
 <path fill="none" stroke="rgb(0,0,0)" stroke-linejoin="round" d="M 3338,10724 L 3338,10698 3338,10672"/>
 <path fill="none" stroke="rgb(0,0,0)" stroke-linejoin="round" d="M 3438,10724 L 3238,10724"/>
 <path fill="none" stroke="rgb(0,0,0)" stroke-linejoin="round" d="M 3238,10672 L 3438,10672"/>
 <path fill="none" stroke="rgb(0,0,0)" stroke-linejoin="round" d="M 5205,10536 L 5205,10507 5205,10479"/>
 <path fill="none" stroke="rgb(0,0,0)" stroke-linejoin="round" d="M 5305,10536 L 5105,10536"/>
 <path fill="none" stroke="rgb(0,0,0)" stroke-linejoin="round" d="M 5105,10479 L 5305,10479"/>
 <path fill="none" stroke="rgb(0,0,0)" stroke-linejoin="round" d="M 7073,10151 L 7073,10070 7073,9990"/>
 <path fill="none" stroke="rgb(0,0,0)" stroke-linejoin="round" d="M 7173,10151 L 6973,10151"/>
 <path fill="none" stroke="rgb(0,0,0)" stroke-linejoin="round" d="M 6973,9990 L 7173,9990"/>
 <path fill="none" stroke="rgb(0,0,0)" stroke-linejoin="round" d="M 8940,10471 L 8940,10433 8940,10395"/>
 <path fill="none" stroke="rgb(0,0,0)" stroke-linejoin="round" d="M 9040,10471 L 8840,10471"/>
 <path fill="none" stroke="rgb(0,0,0)" stroke-linejoin="round" d="M 8840,10395 L 9040,10395"/>
 <path fill="none" stroke="rgb(0,0,0)" stroke-linejoin="round" d="M 10807,9686 L 10807,9656 10807,9626"/>
 <path fill="none" stroke="rgb(0,0,0)" stroke-linejoin="round" d="M 10907,9686 L 10707,9686"/>
 <path fill="none" stroke="rgb(0,0,0)" stroke-linejoin="round" d="M 10707,9626 L 10907,9626"/>
 <path fill="none" stroke="rgb(0,0,0)" stroke-linejoin="round" d="M 12674,10125 L 12674,10094 12674,10063"/>
 <path fill="none" stroke="rgb(0,0,0)" stroke-linejoin="round" d="M 12774,10125 L 12574,10125"/>
 <path fill="none" stroke="rgb(0,0,0)" stroke-linejoin="round" d="M 12574,10063 L 12774,10063"/>
 <path fill="none" stroke="rgb(0,0,0)" stroke-linejoin="round" d="M 14542,2275 L 14542,2252 14542,2230"/>
 <path fill="none" stroke="rgb(0,0,0)" stroke-linejoin="round" d="M 14642,2275 L 14442,2275"/>
 <path fill="none" stroke="rgb(0,0,0)" stroke-linejoin="round" d="M 14442,2230 L 14642,2230"/>
 <text class="TextShape" transform="translate(3264,12752) rotate(-44.9) translate(-3264,-12752)"><tspan class="TextParagraph" font-family="Arial" font-size="353px" font-weight="400"><tspan class="TextPosition" x="3264" y="12752"><tspan fill="rgb(33,33,33)" stroke="none">KLE</tspan></tspan></tspan></text>
 <text class="TextShape" transform="translate(5096,12789) rotate(-44.9) translate(-5096,-12789)"><tspan class="TextParagraph" font-family="Arial" font-size="353px" font-weight="400"><tspan class="TextPosition" x="5096" y="12789"><tspan fill="rgb(33,33,33)" stroke="none">PRR</tspan></tspan></tspan></text>
 <text class="TextShape" transform="translate(6831,12920) rotate(-44.9) translate(-6831,-12920)"><tspan class="TextParagraph" font-family="Arial" font-size="353px" font-weight="400"><tspan class="TextPosition" x="6831" y="12920"><tspan fill="rgb(33,33,33)" stroke="none">PRR2</tspan></tspan></tspan></text>
 <text class="TextShape" transform="translate(8886,12734) rotate(-44.9) translate(-8886,-12734)"><tspan class="TextParagraph" font-family="Arial" font-size="353px" font-weight="400"><tspan class="TextPosition" x="8886" y="12734"><tspan fill="rgb(33,33,33)" stroke="none">LQL</tspan></tspan></tspan></text>
 <text class="TextShape" transform="translate(8695,14792) rotate(-44.9) translate(-8695,-14792)"><tspan class="TextParagraph" font-family="Arial" font-size="353px" font-weight="400"><tspan class="TextPosition" x="8695" y="14792"><tspan fill="rgb(33,33,33)" stroke="none">LQR3 sem time control</tspan></tspan></tspan></text>
 <text class="TextShape" transform="translate(10562,14792) rotate(-44.9) translate(-10562,-14792)"><tspan class="TextParagraph" font-family="Arial" font-size="353px" font-weight="400"><tspan class="TextPosition" x="10562" y="14792"><tspan fill="rgb(33,33,33)" stroke="none">LQR3 com time control</tspan></tspan></tspan></text>
 <text class="TextShape" transform="translate(13721,13500) rotate(-44.9) translate(-13721,-13500)"><tspan class="TextParagraph" font-family="Arial" font-size="353px" font-weight="400"><tspan class="TextPosition" x="13721" y="13500"><tspan fill="rgb(33,33,33)" stroke="none">MAX GAIN</tspan></tspan></tspan></text>
 <text class="TextShape"><tspan class="TextParagraph" font-family="Arial" font-size="353px" font-weight="400"><tspan class="TextPosition" x="1328" y="11930"><tspan fill="rgb(33,33,33)" stroke="none">40,000 </tspan></tspan></tspan></text>
 <text class="TextShape"><tspan class="TextParagraph" font-family="Arial" font-size="353px" font-weight="400"><tspan class="TextPosition" x="1328" y="10952"><tspan fill="rgb(33,33,33)" stroke="none">45,000 </tspan></tspan></tspan></text>
 <text class="TextShape"><tspan class="TextParagraph" font-family="Arial" font-size="353px" font-weight="400"><tspan class="TextPosition" x="1328" y="9974"><tspan fill="rgb(33,33,33)" stroke="none">50,000 </tspan></tspan></tspan></text>
 <text class="TextShape"><tspan class="TextParagraph" font-family="Arial" font-size="353px" font-weight="400"><tspan class="TextPosition" x="1328" y="8997"><tspan fill="rgb(33,33,33)" stroke="none">55,000 </tspan></tspan></tspan></text>
 <text class="TextShape"><tspan class="TextParagraph" font-family="Arial" font-size="353px" font-weight="400"><tspan class="TextPosition" x="1328" y="8019"><tspan fill="rgb(33,33,33)" stroke="none">60,000 </tspan></tspan></tspan></text>
 <text class="TextShape"><tspan class="TextParagraph" font-family="Arial" font-size="353px" font-weight="400"><tspan class="TextPosition" x="1328" y="7042"><tspan fill="rgb(33,33,33)" stroke="none">65,000 </tspan></tspan></tspan></text>
 <text class="TextShape"><tspan class="TextParagraph" font-family="Arial" font-size="353px" font-weight="400"><tspan class="TextPosition" x="1328" y="6064"><tspan fill="rgb(33,33,33)" stroke="none">70,000 </tspan></tspan></tspan></text>
 <text class="TextShape"><tspan class="TextParagraph" font-family="Arial" font-size="353px" font-weight="400"><tspan class="TextPosition" x="1328" y="5086"><tspan fill="rgb(33,33,33)" stroke="none">75,000 </tspan></tspan></tspan></text>
 <text class="TextShape"><tspan class="TextParagraph" font-family="Arial" font-size="353px" font-weight="400"><tspan class="TextPosition" x="1328" y="4109"><tspan fill="rgb(33,33,33)" stroke="none">80,000 </tspan></tspan></tspan></text>
 <text class="TextShape"><tspan class="TextParagraph" font-family="Arial" font-size="353px" font-weight="400"><tspan class="TextPosition" x="1328" y="3131"><tspan fill="rgb(33,33,33)" stroke="none">85,000 </tspan></tspan></tspan></text>
 <text class="TextShape"><tspan class="TextParagraph" font-family="Arial" font-size="353px" font-weight="400"><tspan class="TextPosition" x="1328" y="2154"><tspan fill="rgb(33,33,33)" stroke="none">90,000 </tspan></tspan></tspan></text>
 <text class="TextShape"><tspan class="TextParagraph" font-family="Arial" font-size="353px" font-weight="400"><tspan class="TextPosition" x="16037" y="11930"><tspan fill="rgb(33,33,33)" stroke="none">20000,00</tspan></tspan></tspan></text>
 <text class="TextShape"><tspan class="TextParagraph" font-family="Arial" font-size="353px" font-weight="400"><tspan class="TextPosition" x="16037" y="10300"><tspan fill="rgb(33,33,33)" stroke="none">25000,00</tspan></tspan></tspan></text>
 <text class="TextShape"><tspan class="TextParagraph" font-family="Arial" font-size="353px" font-weight="400"><tspan class="TextPosition" x="16037" y="8671"><tspan fill="rgb(33,33,33)" stroke="none">30000,00</tspan></tspan></tspan></text>
 <text class="TextShape"><tspan class="TextParagraph" font-family="Arial" font-size="353px" font-weight="400"><tspan class="TextPosition" x="16037" y="7042"><tspan fill="rgb(33,33,33)" stroke="none">35000,00</tspan></tspan></tspan></text>
 <text class="TextShape"><tspan class="TextParagraph" font-family="Arial" font-size="353px" font-weight="400"><tspan class="TextPosition" x="16037" y="5412"><tspan fill="rgb(33,33,33)" stroke="none">40000,00</tspan></tspan></tspan></text>
 <text class="TextShape"><tspan class="TextParagraph" font-family="Arial" font-size="353px" font-weight="400"><tspan class="TextPosition" x="16037" y="3783"><tspan fill="rgb(33,33,33)" stroke="none">45000,00</tspan></tspan></tspan></text>
 <text class="TextShape"><tspan class="TextParagraph" font-family="Arial" font-size="353px" font-weight="400"><tspan class="TextPosition" x="16037" y="2154"><tspan fill="rgb(33,33,33)" stroke="none">50000,00</tspan></tspan></tspan></text>
 <text class="TextShape"><tspan class="TextParagraph" font-family="Arial" font-size="459px" font-weight="400"><tspan class="TextPosition" x="6689" y="980"><tspan fill="rgb(33,33,33)" stroke="none">Ganho e custo na transmissão</tspan></tspan></tspan><tspan class="TextParagraph" font-family="Arial" font-size="459px" font-weight="400"><tspan class="TextPosition" x="3329" y="1483"><tspan fill="rgb(33,33,33)" stroke="none">Nó 12 - Multiple sender - Regular TX 500ms - sem ruído artificial</tspan></tspan></tspan></text>
 <path fill="rgb(87,157,28)" stroke="none" d="M 18054,7535 L 17948,7535 17948,7324 18159,7324 18159,7535 18054,7535 Z"/>
 <path fill="rgb(255,66,14)" stroke="none" d="M 18054,8032 L 17948,8032 17948,7821 18159,7821 18159,8032 18054,8032 Z"/>
 <text class="TextShape"><tspan class="TextParagraph" font-family="Arial" font-size="353px" font-weight="400"><tspan class="TextPosition" x="18259" y="7549"><tspan fill="rgb(33,33,33)" stroke="none">ganho</tspan></tspan></tspan></text>
 <text class="TextShape"><tspan class="TextParagraph" font-family="Arial" font-size="353px" font-weight="400"><tspan class="TextPosition" x="18259" y="8046"><tspan fill="rgb(33,33,33)" stroke="none">custo</tspan></tspan></tspan></text>
 <text class="TextShape" transform="translate(762,9322) rotate(-90) translate(-762,-9322)"><tspan class="TextParagraph" font-family="Arial" font-size="318px" font-weight="400"><tspan class="TextPosition" x="762" y="9322"><tspan fill="rgb(33,33,33)" stroke="none">Gain index</tspan></tspan></tspan></text>
</svg>