<?xml version="1.0" encoding="UTF-8"?>
<!DOCTYPE svg PUBLIC "-//W3C//DTD SVG 1.1//EN" "http://www.w3.org/Graphics/SVG/1.1/DTD/svg11.dtd">
<svg width="160mm" height="90mm" viewBox="0 0 16000 9000" version="1.1" xmlns="http://www.w3.org/2000/svg" stroke-width="28.222" stroke-linejoin="round" xml:space="preserve">
 <path fill="rgb(255,255,255)" stroke="none" d="M 7999,9005 L 0,9005 0,0 15997,0 15997,9005 7999,9005 Z"/>
 <path fill="none" stroke="rgb(179,179,179)" stroke-linejoin="round" d="M 7216,8178 L 2078,8178 2078,1474 12354,1474 12354,8178 7216,8178 Z"/>
 <path fill="none" stroke="rgb(179,179,179)" stroke-linejoin="round" d="M 12354,8177 L 2078,8177"/>
 <path fill="none" stroke="rgb(179,179,179)" stroke-linejoin="round" d="M 12354,7219 L 2078,7219"/>
 <path fill="none" stroke="rgb(179,179,179)" stroke-linejoin="round" d="M 12354,6261 L 2078,6261"/>
 <path fill="none" stroke="rgb(179,179,179)" stroke-linejoin="round" d="M 12354,5303 L 2078,5303"/>
 <path fill="none" stroke="rgb(179,179,179)" stroke-linejoin="round" d="M 12354,4346 L 2078,4346"/>
 <path fill="none" stroke="rgb(179,179,179)" stroke-linejoin="round" d="M 12354,3388 L 2078,3388"/>
 <path fill="none" stroke="rgb(179,179,179)" stroke-linejoin="round" d="M 12354,2430 L 2078,2430"/>
 <path fill="none" stroke="rgb(179,179,179)" stroke-linejoin="round" d="M 12354,1472 L 2078,1472"/>
 <path fill="none" stroke="rgb(179,179,179)" stroke-linejoin="round" d="M 2078,8327 L 2078,8177"/>
 <path fill="none" stroke="rgb(179,179,179)" stroke-linejoin="round" d="M 2078,1622 L 2078,1472"/>
 <path fill="none" stroke="rgb(179,179,179)" stroke-linejoin="round" d="M 4647,8327 L 4647,8177"/>
 <path fill="none" stroke="rgb(179,179,179)" stroke-linejoin="round" d="M 4647,1622 L 4647,1472"/>
 <path fill="none" stroke="rgb(179,179,179)" stroke-linejoin="round" d="M 7216,8327 L 7216,8177"/>
 <path fill="none" stroke="rgb(179,179,179)" stroke-linejoin="round" d="M 7216,1622 L 7216,1472"/>
 <path fill="none" stroke="rgb(179,179,179)" stroke-linejoin="round" d="M 9784,8327 L 9784,8177"/>
 <path fill="none" stroke="rgb(179,179,179)" stroke-linejoin="round" d="M 9784,1622 L 9784,1472"/>
 <path fill="none" stroke="rgb(179,179,179)" stroke-linejoin="round" d="M 12354,8327 L 12354,8177"/>
 <path fill="none" stroke="rgb(179,179,179)" stroke-linejoin="round" d="M 12354,1622 L 12354,1472"/>
 <path fill="none" stroke="rgb(179,179,179)" stroke-linejoin="round" d="M 2078,1472 L 12354,1472"/>
 <path fill="none" stroke="rgb(179,179,179)" stroke-linejoin="round" d="M 1928,8177 L 2078,8177"/>
 <path fill="none" stroke="rgb(179,179,179)" stroke-linejoin="round" d="M 1928,8177 L 2078,8177"/>
 <path fill="none" stroke="rgb(179,179,179)" stroke-linejoin="round" d="M 1928,7219 L 2078,7219"/>
 <path fill="none" stroke="rgb(179,179,179)" stroke-linejoin="round" d="M 1928,7219 L 2078,7219"/>
 <path fill="none" stroke="rgb(179,179,179)" stroke-linejoin="round" d="M 1928,6261 L 2078,6261"/>
 <path fill="none" stroke="rgb(179,179,179)" stroke-linejoin="round" d="M 1928,6261 L 2078,6261"/>
 <path fill="none" stroke="rgb(179,179,179)" stroke-linejoin="round" d="M 1928,5303 L 2078,5303"/>
 <path fill="none" stroke="rgb(179,179,179)" stroke-linejoin="round" d="M 1928,5303 L 2078,5303"/>
 <path fill="none" stroke="rgb(179,179,179)" stroke-linejoin="round" d="M 1928,4346 L 2078,4346"/>
 <path fill="none" stroke="rgb(179,179,179)" stroke-linejoin="round" d="M 1928,4346 L 2078,4346"/>
 <path fill="none" stroke="rgb(179,179,179)" stroke-linejoin="round" d="M 1928,3388 L 2078,3388"/>
 <path fill="none" stroke="rgb(179,179,179)" stroke-linejoin="round" d="M 1928,3388 L 2078,3388"/>
 <path fill="none" stroke="rgb(179,179,179)" stroke-linejoin="round" d="M 1928,2430 L 2078,2430"/>
 <path fill="none" stroke="rgb(179,179,179)" stroke-linejoin="round" d="M 1928,2430 L 2078,2430"/>
 <path fill="none" stroke="rgb(179,179,179)" stroke-linejoin="round" d="M 1928,1472 L 2078,1472"/>
 <path fill="none" stroke="rgb(179,179,179)" stroke-linejoin="round" d="M 1928,1472 L 2078,1472"/>
 <path fill="none" stroke="rgb(179,179,179)" stroke-linejoin="round" d="M 2078,8177 L 2078,1472"/>
 <path fill="rgb(0,69,134)" stroke="none" d="M 1903,6800 L 1903,7150 2253,7150 2253,6800 1903,6800 Z"/>
 <path fill="none" stroke="rgb(0,69,134)" stroke-linejoin="round" d="M 1903,6800 L 1903,7150 2253,7150 2253,6800 1903,6800 Z"/>
 <path fill="rgb(0,69,134)" stroke="none" d="M 4472,6761 L 4472,7111 4822,7111 4822,6761 4472,6761 Z"/>
 <path fill="none" stroke="rgb(0,69,134)" stroke-linejoin="round" d="M 4472,6761 L 4472,7111 4822,7111 4822,6761 4472,6761 Z"/>
 <path fill="rgb(0,69,134)" stroke="none" d="M 7041,6719 L 7041,7069 7391,7069 7391,6719 7041,6719 Z"/>
 <path fill="none" stroke="rgb(0,69,134)" stroke-linejoin="round" d="M 7041,6719 L 7041,7069 7391,7069 7391,6719 7041,6719 Z"/>
 <path fill="rgb(0,69,134)" stroke="none" d="M 9609,7436 L 9609,7786 9959,7786 9959,7436 9609,7436 Z"/>
 <path fill="none" stroke="rgb(0,69,134)" stroke-linejoin="round" d="M 9609,7436 L 9609,7786 9959,7786 9959,7436 9609,7436 Z"/>
 <path fill="rgb(0,69,134)" stroke="none" d="M 12179,7026 L 12179,7376 12529,7376 12529,7026 12179,7026 Z"/>
 <path fill="none" stroke="rgb(0,69,134)" stroke-linejoin="round" d="M 12179,7026 L 12179,7376 12529,7376 12529,7026 12179,7026 Z"/>
 <path fill="rgb(255,66,14)" stroke="none" d="M 2253,3634 L 2252,3626 2252,3618 2251,3611 2250,3603 2248,3596 2247,3588 2244,3581 2242,3574 2239,3567 2236,3560 2233,3553 2229,3546 2225,3540 2221,3533 2216,3527 2212,3521 2207,3515 2201,3510 2196,3505 2190,3500 2184,3495 2178,3490 2172,3486 2165,3482 2158,3478 2151,3475 2144,3472 2137,3469 2130,3467 2123,3465 2115,3463 2108,3461 2100,3460 2093,3459 2085,3459 2078,3459 2070,3459 2062,3459 2055,3460 2047,3461 2040,3463 2032,3465 2025,3467 2018,3469 2011,3472 2004,3475 1997,3478 1990,3482 1983,3486 1977,3490 1971,3495 1965,3500 1959,3505 1954,3510 1948,3515 1943,3521 1939,3527 1934,3533 1930,3540 1926,3546 1922,3553 1919,3560 1916,3567 1913,3574 1911,3581 1908,3588 1907,3596 1905,3603 1904,3611 1903,3618 1903,3626 1903,3634 1903,3641 1903,3649 1904,3656 1905,3664 1907,3671 1908,3679 1911,3686 1913,3693 1916,3701 1919,3708 1922,3714 1926,3721 1930,3728 1934,3734 1939,3740 1943,3746 1948,3752 1954,3757 1959,3763 1965,3768 1971,3772 1977,3777 1983,3781 1990,3785 1997,3789 2004,3792 2011,3795 2018,3798 2025,3800 2032,3803 2040,3804 2047,3806 2055,3807 2062,3808 2070,3808 2078,3809 2085,3808 2093,3808 2100,3807 2108,3806 2115,3804 2123,3803 2130,3800 2137,3798 2144,3795 2151,3792 2158,3789 2165,3785 2172,3781 2178,3777 2184,3772 2190,3768 2196,3763 2201,3757 2207,3752 2212,3746 2216,3740 2221,3734 2225,3728 2229,3721 2233,3714 2236,3708 2239,3701 2242,3693 2244,3686 2247,3679 2248,3671 2250,3664 2251,3656 2252,3649 2252,3641 2253,3634 Z"/>
 <path fill="none" stroke="rgb(255,66,14)" stroke-linejoin="round" d="M 2253,3634 L 2252,3626 2252,3618 2251,3611 2250,3603 2248,3596 2247,3588 2244,3581 2242,3574 2239,3567 2236,3560 2233,3553 2229,3546 2225,3540 2221,3533 2216,3527 2212,3521 2207,3515 2201,3510 2196,3505 2190,3500 2184,3495 2178,3490 2172,3486 2165,3482 2158,3478 2151,3475 2144,3472 2137,3469 2130,3467 2123,3465 2115,3463 2108,3461 2100,3460 2093,3459 2085,3459 2078,3459 2070,3459 2062,3459 2055,3460 2047,3461 2040,3463 2032,3465 2025,3467 2018,3469 2011,3472 2004,3475 1997,3478 1990,3482 1983,3486 1977,3490 1971,3495 1965,3500 1959,3505 1954,3510 1948,3515 1943,3521 1939,3527 1934,3533 1930,3540 1926,3546 1922,3553 1919,3560 1916,3567 1913,3574 1911,3581 1908,3588 1907,3596 1905,3603 1904,3611 1903,3618 1903,3626 1903,3634 1903,3641 1903,3649 1904,3656 1905,3664 1907,3671 1908,3679 1911,3686 1913,3693 1916,3701 1919,3708 1922,3714 1926,3721 1930,3728 1934,3734 1939,3740 1943,3746 1948,3752 1954,3757 1959,3763 1965,3768 1971,3772 1977,3777 1983,3781 1990,3785 1997,3789 2004,3792 2011,3795 2018,3798 2025,3800 2032,3803 2040,3804 2047,3806 2055,3807 2062,3808 2070,3808 2078,3809 2085,3808 2093,3808 2100,3807 2108,3806 2115,3804 2123,3803 2130,3800 2137,3798 2144,3795 2151,3792 2158,3789 2165,3785 2172,3781 2178,3777 2184,3772 2190,3768 2196,3763 2201,3757 2207,3752 2212,3746 2216,3740 2221,3734 2225,3728 2229,3721 2233,3714 2236,3708 2239,3701 2242,3693 2244,3686 2247,3679 2248,3671 2250,3664 2251,3656 2252,3649 2252,3641 2253,3634 Z"/>
 <path fill="rgb(255,66,14)" stroke="none" d="M 4822,3450 L 4822,3442 4821,3435 4820,3427 4819,3419 4818,3412 4816,3405 4814,3397 4811,3390 4808,3383 4805,3376 4802,3369 4798,3362 4794,3356 4790,3349 4786,3343 4781,3337 4776,3332 4770,3326 4765,3321 4759,3316 4753,3311 4747,3307 4741,3302 4734,3298 4728,3295 4721,3291 4714,3288 4707,3285 4699,3283 4692,3281 4685,3279 4677,3278 4670,3276 4662,3276 4654,3275 4647,3275 4639,3275 4631,3276 4624,3276 4616,3278 4609,3279 4601,3281 4594,3283 4587,3285 4580,3288 4573,3291 4566,3295 4559,3298 4553,3302 4546,3307 4540,3311 4534,3316 4529,3321 4523,3326 4518,3332 4513,3337 4508,3343 4503,3349 4499,3356 4495,3362 4492,3369 4488,3376 4485,3383 4482,3390 4480,3397 4478,3405 4476,3412 4474,3419 4473,3427 4472,3435 4472,3442 4472,3450 4472,3458 4472,3465 4473,3473 4474,3480 4476,3488 4478,3495 4480,3502 4482,3510 4485,3517 4488,3524 4492,3531 4495,3537 4499,3544 4503,3550 4508,3556 4513,3562 4518,3568 4523,3574 4529,3579 4534,3584 4540,3589 4546,3593 4553,3597 4559,3601 4566,3605 4573,3608 4580,3612 4587,3614 4594,3617 4601,3619 4609,3621 4616,3622 4624,3623 4631,3624 4639,3625 4647,3625 4654,3625 4662,3624 4670,3623 4677,3622 4685,3621 4692,3619 4699,3617 4707,3614 4714,3612 4721,3608 4728,3605 4734,3601 4741,3597 4747,3593 4753,3589 4759,3584 4765,3579 4770,3574 4776,3568 4781,3562 4786,3556 4790,3550 4794,3544 4798,3537 4802,3531 4805,3524 4808,3517 4811,3510 4814,3502 4816,3495 4818,3488 4819,3480 4820,3473 4821,3465 4822,3458 4822,3450 Z"/>
 <path fill="none" stroke="rgb(255,66,14)" stroke-linejoin="round" d="M 4822,3450 L 4822,3442 4821,3435 4820,3427 4819,3419 4818,3412 4816,3405 4814,3397 4811,3390 4808,3383 4805,3376 4802,3369 4798,3362 4794,3356 4790,3349 4786,3343 4781,3337 4776,3332 4770,3326 4765,3321 4759,3316 4753,3311 4747,3307 4741,3302 4734,3298 4728,3295 4721,3291 4714,3288 4707,3285 4699,3283 4692,3281 4685,3279 4677,3278 4670,3276 4662,3276 4654,3275 4647,3275 4639,3275 4631,3276 4624,3276 4616,3278 4609,3279 4601,3281 4594,3283 4587,3285 4580,3288 4573,3291 4566,3295 4559,3298 4553,3302 4546,3307 4540,3311 4534,3316 4529,3321 4523,3326 4518,3332 4513,3337 4508,3343 4503,3349 4499,3356 4495,3362 4492,3369 4488,3376 4485,3383 4482,3390 4480,3397 4478,3405 4476,3412 4474,3419 4473,3427 4472,3435 4472,3442 4472,3450 4472,3458 4472,3465 4473,3473 4474,3480 4476,3488 4478,3495 4480,3502 4482,3510 4485,3517 4488,3524 4492,3531 4495,3537 4499,3544 4503,3550 4508,3556 4513,3562 4518,3568 4523,3574 4529,3579 4534,3584 4540,3589 4546,3593 4553,3597 4559,3601 4566,3605 4573,3608 4580,3612 4587,3614 4594,3617 4601,3619 4609,3621 4616,3622 4624,3623 4631,3624 4639,3625 4647,3625 4654,3625 4662,3624 4670,3623 4677,3622 4685,3621 4692,3619 4699,3617 4707,3614 4714,3612 4721,3608 4728,3605 4734,3601 4741,3597 4747,3593 4753,3589 4759,3584 4765,3579 4770,3574 4776,3568 4781,3562 4786,3556 4790,3550 4794,3544 4798,3537 4802,3531 4805,3524 4808,3517 4811,3510 4814,3502 4816,3495 4818,3488 4819,3480 4820,3473 4821,3465 4822,3458 4822,3450 Z"/>
 <path fill="rgb(255,66,14)" stroke="none" d="M 7391,4836 L 7391,4828 7390,4821 7390,4813 7388,4806 7387,4798 7385,4791 7383,4783 7380,4776 7378,4769 7375,4762 7371,4755 7368,4748 7364,4742 7359,4736 7355,4729 7350,4723 7345,4718 7340,4712 7334,4707 7328,4702 7323,4697 7316,4693 7310,4688 7304,4684 7297,4681 7290,4677 7283,4674 7276,4671 7269,4669 7261,4667 7254,4665 7246,4664 7239,4662 7231,4662 7224,4661 7216,4661 7208,4661 7201,4662 7193,4662 7186,4664 7178,4665 7171,4667 7163,4669 7156,4671 7149,4674 7142,4677 7135,4681 7129,4684 7122,4688 7116,4693 7109,4697 7104,4702 7098,4707 7092,4712 7087,4718 7082,4723 7077,4729 7073,4736 7068,4742 7064,4748 7061,4755 7057,4762 7054,4769 7052,4776 7049,4783 7047,4791 7045,4798 7044,4806 7042,4813 7042,4821 7041,4828 7041,4836 7041,4844 7042,4851 7042,4859 7044,4866 7045,4874 7047,4881 7049,4889 7052,4896 7054,4903 7057,4910 7061,4917 7064,4923 7068,4930 7073,4936 7077,4942 7082,4948 7087,4954 7092,4960 7098,4965 7104,4970 7109,4975 7116,4979 7122,4984 7129,4987 7135,4991 7142,4995 7149,4998 7156,5000 7163,5003 7171,5005 7178,5007 7186,5008 7193,5009 7201,5010 7208,5011 7216,5011 7224,5011 7231,5010 7239,5009 7246,5008 7254,5007 7261,5005 7269,5003 7276,5000 7283,4998 7290,4995 7297,4991 7304,4987 7310,4984 7316,4979 7323,4975 7328,4970 7334,4965 7340,4960 7345,4954 7350,4948 7355,4942 7359,4936 7364,4930 7368,4923 7371,4917 7375,4910 7378,4903 7380,4896 7383,4889 7385,4881 7387,4874 7388,4866 7390,4859 7390,4851 7391,4844 7391,4836 Z"/>
 <path fill="none" stroke="rgb(255,66,14)" stroke-linejoin="round" d="M 7391,4836 L 7391,4828 7390,4821 7390,4813 7388,4806 7387,4798 7385,4791 7383,4783 7380,4776 7378,4769 7375,4762 7371,4755 7368,4748 7364,4742 7359,4736 7355,4729 7350,4723 7345,4718 7340,4712 7334,4707 7328,4702 7323,4697 7316,4693 7310,4688 7304,4684 7297,4681 7290,4677 7283,4674 7276,4671 7269,4669 7261,4667 7254,4665 7246,4664 7239,4662 7231,4662 7224,4661 7216,4661 7208,4661 7201,4662 7193,4662 7186,4664 7178,4665 7171,4667 7163,4669 7156,4671 7149,4674 7142,4677 7135,4681 7129,4684 7122,4688 7116,4693 7109,4697 7104,4702 7098,4707 7092,4712 7087,4718 7082,4723 7077,4729 7073,4736 7068,4742 7064,4748 7061,4755 7057,4762 7054,4769 7052,4776 7049,4783 7047,4791 7045,4798 7044,4806 7042,4813 7042,4821 7041,4828 7041,4836 7041,4844 7042,4851 7042,4859 7044,4866 7045,4874 7047,4881 7049,4889 7052,4896 7054,4903 7057,4910 7061,4917 7064,4923 7068,4930 7073,4936 7077,4942 7082,4948 7087,4954 7092,4960 7098,4965 7104,4970 7109,4975 7116,4979 7122,4984 7129,4987 7135,4991 7142,4995 7149,4998 7156,5000 7163,5003 7171,5005 7178,5007 7186,5008 7193,5009 7201,5010 7208,5011 7216,5011 7224,5011 7231,5010 7239,5009 7246,5008 7254,5007 7261,5005 7269,5003 7276,5000 7283,4998 7290,4995 7297,4991 7304,4987 7310,4984 7316,4979 7323,4975 7328,4970 7334,4965 7340,4960 7345,4954 7350,4948 7355,4942 7359,4936 7364,4930 7368,4923 7371,4917 7375,4910 7378,4903 7380,4896 7383,4889 7385,4881 7387,4874 7388,4866 7390,4859 7390,4851 7391,4844 7391,4836 Z"/>
 <path fill="rgb(255,66,14)" stroke="none" d="M 9959,4262 L 9959,4254 9959,4247 9958,4239 9957,4232 9955,4224 9953,4217 9951,4209 9949,4202 9946,4195 9943,4188 9939,4181 9936,4175 9932,4168 9928,4162 9923,4156 9918,4150 9913,4144 9908,4138 9902,4133 9897,4128 9891,4123 9885,4119 9878,4115 9872,4111 9865,4107 9858,4104 9851,4100 9844,4098 9837,4095 9830,4093 9822,4091 9815,4090 9807,4089 9800,4088 9792,4087 9784,4087 9777,4087 9769,4088 9761,4089 9754,4090 9746,4091 9739,4093 9732,4095 9724,4098 9717,4100 9710,4104 9703,4107 9697,4111 9690,4115 9684,4119 9678,4123 9672,4128 9666,4133 9661,4138 9655,4144 9650,4150 9645,4156 9641,4162 9637,4168 9633,4175 9629,4181 9626,4188 9623,4195 9620,4202 9617,4209 9615,4217 9613,4224 9612,4232 9611,4239 9610,4247 9609,4254 9609,4262 9609,4270 9610,4277 9611,4285 9612,4293 9613,4300 9615,4307 9617,4315 9620,4322 9623,4329 9626,4336 9629,4343 9633,4350 9637,4356 9641,4362 9645,4369 9650,4375 9655,4380 9661,4386 9666,4391 9672,4396 9678,4401 9684,4405 9690,4410 9697,4414 9703,4417 9710,4421 9717,4424 9724,4427 9732,4429 9739,4431 9746,4433 9754,4434 9761,4436 9769,4436 9777,4437 9784,4437 9792,4437 9800,4436 9807,4436 9815,4434 9822,4433 9830,4431 9837,4429 9844,4427 9851,4424 9858,4421 9865,4417 9872,4414 9878,4410 9885,4405 9891,4401 9897,4396 9902,4391 9908,4386 9913,4380 9918,4375 9923,4369 9928,4362 9932,4356 9936,4350 9939,4343 9943,4336 9946,4329 9949,4322 9951,4315 9953,4307 9955,4300 9957,4293 9958,4285 9959,4277 9959,4270 9959,4262 Z"/>
 <path fill="none" stroke="rgb(255,66,14)" stroke-linejoin="round" d="M 9959,4262 L 9959,4254 9959,4247 9958,4239 9957,4232 9955,4224 9953,4217 9951,4209 9949,4202 9946,4195 9943,4188 9939,4181 9936,4175 9932,4168 9928,4162 9923,4156 9918,4150 9913,4144 9908,4138 9902,4133 9897,4128 9891,4123 9885,4119 9878,4115 9872,4111 9865,4107 9858,4104 9851,4100 9844,4098 9837,4095 9830,4093 9822,4091 9815,4090 9807,4089 9800,4088 9792,4087 9784,4087 9777,4087 9769,4088 9761,4089 9754,4090 9746,4091 9739,4093 9732,4095 9724,4098 9717,4100 9710,4104 9703,4107 9697,4111 9690,4115 9684,4119 9678,4123 9672,4128 9666,4133 9661,4138 9655,4144 9650,4150 9645,4156 9641,4162 9637,4168 9633,4175 9629,4181 9626,4188 9623,4195 9620,4202 9617,4209 9615,4217 9613,4224 9612,4232 9611,4239 9610,4247 9609,4254 9609,4262 9609,4270 9610,4277 9611,4285 9612,4293 9613,4300 9615,4307 9617,4315 9620,4322 9623,4329 9626,4336 9629,4343 9633,4350 9637,4356 9641,4362 9645,4369 9650,4375 9655,4380 9661,4386 9666,4391 9672,4396 9678,4401 9684,4405 9690,4410 9697,4414 9703,4417 9710,4421 9717,4424 9724,4427 9732,4429 9739,4431 9746,4433 9754,4434 9761,4436 9769,4436 9777,4437 9784,4437 9792,4437 9800,4436 9807,4436 9815,4434 9822,4433 9830,4431 9837,4429 9844,4427 9851,4424 9858,4421 9865,4417 9872,4414 9878,4410 9885,4405 9891,4401 9897,4396 9902,4391 9908,4386 9913,4380 9918,4375 9923,4369 9928,4362 9932,4356 9936,4350 9939,4343 9943,4336 9946,4329 9949,4322 9951,4315 9953,4307 9955,4300 9957,4293 9958,4285 9959,4277 9959,4270 9959,4262 Z"/>
 <path fill="rgb(255,66,14)" stroke="none" d="M 12529,4130 L 12528,4122 12528,4114 12527,4107 12526,4099 12524,4092 12523,4084 12520,4077 12518,4070 12515,4063 12512,4056 12509,4049 12505,4042 12501,4036 12497,4029 12492,4023 12488,4017 12483,4011 12477,4006 12472,4001 12466,3996 12460,3991 12454,3986 12448,3982 12441,3978 12434,3974 12427,3971 12420,3968 12413,3965 12406,3963 12399,3961 12391,3959 12384,3957 12376,3956 12369,3955 12361,3955 12354,3955 12346,3955 12338,3955 12331,3956 12323,3957 12316,3959 12308,3961 12301,3963 12294,3965 12287,3968 12280,3971 12273,3974 12266,3978 12259,3982 12253,3986 12247,3991 12241,3996 12235,4001 12230,4006 12224,4011 12219,4017 12215,4023 12210,4029 12206,4036 12202,4042 12198,4049 12195,4056 12192,4063 12189,4070 12187,4077 12184,4084 12183,4092 12181,4099 12180,4107 12179,4114 12179,4122 12179,4130 12179,4137 12179,4145 12180,4152 12181,4160 12183,4167 12184,4175 12187,4182 12189,4189 12192,4197 12195,4204 12198,4210 12202,4217 12206,4224 12210,4230 12215,4236 12219,4242 12224,4248 12230,4253 12235,4259 12241,4264 12247,4268 12253,4273 12259,4277 12266,4281 12273,4285 12280,4288 12287,4291 12294,4294 12301,4296 12308,4299 12316,4300 12323,4302 12331,4303 12338,4304 12346,4304 12354,4305 12361,4304 12369,4304 12376,4303 12384,4302 12391,4300 12399,4299 12406,4296 12413,4294 12420,4291 12427,4288 12434,4285 12441,4281 12448,4277 12454,4273 12460,4268 12466,4264 12472,4259 12477,4253 12483,4248 12488,4242 12492,4236 12497,4230 12501,4224 12505,4217 12509,4210 12512,4204 12515,4197 12518,4189 12520,4182 12523,4175 12524,4167 12526,4160 12527,4152 12528,4145 12528,4137 12529,4130 Z"/>
 <path fill="none" stroke="rgb(255,66,14)" stroke-linejoin="round" d="M 12529,4130 L 12528,4122 12528,4114 12527,4107 12526,4099 12524,4092 12523,4084 12520,4077 12518,4070 12515,4063 12512,4056 12509,4049 12505,4042 12501,4036 12497,4029 12492,4023 12488,4017 12483,4011 12477,4006 12472,4001 12466,3996 12460,3991 12454,3986 12448,3982 12441,3978 12434,3974 12427,3971 12420,3968 12413,3965 12406,3963 12399,3961 12391,3959 12384,3957 12376,3956 12369,3955 12361,3955 12354,3955 12346,3955 12338,3955 12331,3956 12323,3957 12316,3959 12308,3961 12301,3963 12294,3965 12287,3968 12280,3971 12273,3974 12266,3978 12259,3982 12253,3986 12247,3991 12241,3996 12235,4001 12230,4006 12224,4011 12219,4017 12215,4023 12210,4029 12206,4036 12202,4042 12198,4049 12195,4056 12192,4063 12189,4070 12187,4077 12184,4084 12183,4092 12181,4099 12180,4107 12179,4114 12179,4122 12179,4130 12179,4137 12179,4145 12180,4152 12181,4160 12183,4167 12184,4175 12187,4182 12189,4189 12192,4197 12195,4204 12198,4210 12202,4217 12206,4224 12210,4230 12215,4236 12219,4242 12224,4248 12230,4253 12235,4259 12241,4264 12247,4268 12253,4273 12259,4277 12266,4281 12273,4285 12280,4288 12287,4291 12294,4294 12301,4296 12308,4299 12316,4300 12323,4302 12331,4303 12338,4304 12346,4304 12354,4305 12361,4304 12369,4304 12376,4303 12384,4302 12391,4300 12399,4299 12406,4296 12413,4294 12420,4291 12427,4288 12434,4285 12441,4281 12448,4277 12454,4273 12460,4268 12466,4264 12472,4259 12477,4253 12483,4248 12488,4242 12492,4236 12497,4230 12501,4224 12505,4217 12509,4210 12512,4204 12515,4197 12518,4189 12520,4182 12523,4175 12524,4167 12526,4160 12527,4152 12528,4145 12528,4137 12529,4130 Z"/>
 <path fill="rgb(197,0,11)" stroke="none" d="M 1903,4696 L 2078,5046 2253,4696 1903,4696 Z"/>
 <path fill="none" stroke="rgb(197,0,11)" stroke-linejoin="round" d="M 1903,4696 L 2078,5046 2253,4696 1903,4696 Z"/>
 <path fill="rgb(197,0,11)" stroke="none" d="M 4472,4039 L 4647,4389 4822,4039 4472,4039 Z"/>
 <path fill="none" stroke="rgb(197,0,11)" stroke-linejoin="round" d="M 4472,4039 L 4647,4389 4822,4039 4472,4039 Z"/>
 <path fill="rgb(197,0,11)" stroke="none" d="M 7041,3857 L 7216,4207 7391,3857 7041,3857 Z"/>
 <path fill="none" stroke="rgb(197,0,11)" stroke-linejoin="round" d="M 7041,3857 L 7216,4207 7391,3857 7041,3857 Z"/>
 <path fill="rgb(197,0,11)" stroke="none" d="M 9609,3979 L 9784,4329 9959,3979 9609,3979 Z"/>
 <path fill="none" stroke="rgb(197,0,11)" stroke-linejoin="round" d="M 9609,3979 L 9784,4329 9959,3979 9609,3979 Z"/>
 <path fill="rgb(197,0,11)" stroke="none" d="M 12179,4234 L 12354,4583 12529,4234 12179,4234 Z"/>
 <path fill="none" stroke="rgb(197,0,11)" stroke-linejoin="round" d="M 12179,4234 L 12354,4583 12529,4234 12179,4234 Z"/>
 <path fill="rgb(0,102,0)" stroke="none" d="M 2064,4088 L 2064,4239 1916,4154 1903,4178 2050,4263 1903,4348 1916,4372 2064,4287 2064,4438 2091,4438 2091,4287 2239,4372 2253,4348 2105,4263 2253,4178 2239,4154 2091,4239 2091,4088 2064,4088 Z"/>
 <path fill="none" stroke="rgb(0,102,0)" stroke-linejoin="round" d="M 2064,4088 L 2064,4239 1916,4154 1903,4178 2050,4263 1903,4348 1916,4372 2064,4287 2064,4438 2091,4438 2091,4287 2239,4372 2253,4348 2105,4263 2253,4178 2239,4154 2091,4239 2091,4088 2064,4088 Z"/>
 <path fill="rgb(0,102,0)" stroke="none" d="M 4633,3294 L 4633,3445 4485,3360 4472,3383 4619,3469 4472,3554 4485,3577 4633,3492 4633,3644 4660,3644 4660,3492 4808,3577 4822,3554 4674,3469 4822,3383 4808,3360 4660,3445 4660,3294 4633,3294 Z"/>
 <path fill="none" stroke="rgb(0,102,0)" stroke-linejoin="round" d="M 4633,3294 L 4633,3445 4485,3360 4472,3383 4619,3469 4472,3554 4485,3577 4633,3492 4633,3644 4660,3644 4660,3492 4808,3577 4822,3554 4674,3469 4822,3383 4808,3360 4660,3445 4660,3294 4633,3294 Z"/>
 <path fill="rgb(0,102,0)" stroke="none" d="M 7202,4903 L 7202,5055 7055,4969 7041,4993 7189,5078 7041,5164 7055,5187 7202,5102 7202,5253 7230,5253 7230,5102 7377,5187 7391,5164 7243,5078 7391,4993 7377,4969 7230,5055 7230,4903 7202,4903 Z"/>
 <path fill="none" stroke="rgb(0,102,0)" stroke-linejoin="round" d="M 7202,4903 L 7202,5055 7055,4969 7041,4993 7189,5078 7041,5164 7055,5187 7202,5102 7202,5253 7230,5253 7230,5102 7377,5187 7391,5164 7243,5078 7391,4993 7377,4969 7230,5055 7230,4903 7202,4903 Z"/>
 <path fill="rgb(0,102,0)" stroke="none" d="M 9771,4377 L 9771,4527 9623,4443 9609,4467 9757,4551 9609,4636 9623,4660 9771,4575 9771,4726 9798,4726 9798,4575 9946,4660 9959,4636 9812,4551 9959,4467 9946,4443 9798,4527 9798,4377 9771,4377 Z"/>
 <path fill="none" stroke="rgb(0,102,0)" stroke-linejoin="round" d="M 9771,4377 L 9771,4527 9623,4443 9609,4467 9757,4551 9609,4636 9623,4660 9771,4575 9771,4726 9798,4726 9798,4575 9946,4660 9959,4636 9812,4551 9959,4467 9946,4443 9798,4527 9798,4377 9771,4377 Z"/>
 <path fill="rgb(0,102,0)" stroke="none" d="M 12340,3937 L 12340,4088 12192,4003 12179,4027 12326,4112 12179,4197 12192,4221 12340,4136 12340,4287 12367,4287 12367,4136 12515,4221 12529,4197 12381,4112 12529,4027 12515,4003 12367,4088 12367,3937 12340,3937 Z"/>
 <path fill="none" stroke="rgb(0,102,0)" stroke-linejoin="round" d="M 12340,3937 L 12340,4088 12192,4003 12179,4027 12326,4112 12179,4197 12192,4221 12340,4136 12340,4287 12367,4287 12367,4136 12515,4221 12529,4197 12381,4112 12529,4027 12515,4003 12367,4088 12367,3937 12340,3937 Z"/>
 <text class="TextShape"><tspan class="TextParagraph" font-family="Liberation Sans" font-size="353px" font-weight="400"><tspan class="TextPosition" x="1681" y="8745"><tspan fill="rgb(0,0,0)" stroke="none">No12</tspan></tspan></tspan></text>
 <text class="TextShape"><tspan class="TextParagraph" font-family="Liberation Sans" font-size="353px" font-weight="400"><tspan class="TextPosition" x="4250" y="8745"><tspan fill="rgb(0,0,0)" stroke="none">No14</tspan></tspan></tspan></text>
 <text class="TextShape"><tspan class="TextParagraph" font-family="Liberation Sans" font-size="353px" font-weight="400"><tspan class="TextPosition" x="6819" y="8745"><tspan fill="rgb(0,0,0)" stroke="none">No15</tspan></tspan></tspan></text>
 <text class="TextShape"><tspan class="TextParagraph" font-family="Liberation Sans" font-size="353px" font-weight="400"><tspan class="TextPosition" x="9388" y="8745"><tspan fill="rgb(0,0,0)" stroke="none">No16</tspan></tspan></tspan></text>
 <text class="TextShape"><tspan class="TextParagraph" font-family="Liberation Sans" font-size="353px" font-weight="400"><tspan class="TextPosition" x="11958" y="8745"><tspan fill="rgb(0,0,0)" stroke="none">No18</tspan></tspan></tspan></text>
 <text class="TextShape"><tspan class="TextParagraph" font-family="Liberation Sans" font-size="353px" font-weight="400"><tspan class="TextPosition" x="320" y="8298"><tspan fill="rgb(0,0,0)" stroke="none">-120,0000</tspan></tspan></tspan></text>
 <text class="TextShape"><tspan class="TextParagraph" font-family="Liberation Sans" font-size="353px" font-weight="400"><tspan class="TextPosition" x="320" y="7340"><tspan fill="rgb(0,0,0)" stroke="none">-110,0000</tspan></tspan></tspan></text>
 <text class="TextShape"><tspan class="TextParagraph" font-family="Liberation Sans" font-size="353px" font-weight="400"><tspan class="TextPosition" x="320" y="6382"><tspan fill="rgb(0,0,0)" stroke="none">-100,0000</tspan></tspan></tspan></text>
 <text class="TextShape"><tspan class="TextParagraph" font-family="Liberation Sans" font-size="353px" font-weight="400"><tspan class="TextPosition" x="505" y="5424"><tspan fill="rgb(0,0,0)" stroke="none">-90,0000</tspan></tspan></tspan></text>
 <text class="TextShape"><tspan class="TextParagraph" font-family="Liberation Sans" font-size="353px" font-weight="400"><tspan class="TextPosition" x="505" y="4466"><tspan fill="rgb(0,0,0)" stroke="none">-80,0000</tspan></tspan></tspan></text>
 <text class="TextShape"><tspan class="TextParagraph" font-family="Liberation Sans" font-size="353px" font-weight="400"><tspan class="TextPosition" x="505" y="3508"><tspan fill="rgb(0,0,0)" stroke="none">-70,0000</tspan></tspan></tspan></text>
 <text class="TextShape"><tspan class="TextParagraph" font-family="Liberation Sans" font-size="353px" font-weight="400"><tspan class="TextPosition" x="505" y="2550"><tspan fill="rgb(0,0,0)" stroke="none">-60,0000</tspan></tspan></tspan></text>
 <text class="TextShape"><tspan class="TextParagraph" font-family="Liberation Sans" font-size="353px" font-weight="400"><tspan class="TextPosition" x="505" y="1592"><tspan fill="rgb(0,0,0)" stroke="none">-50,0000</tspan></tspan></tspan></text>
 <text class="TextShape"><tspan class="TextParagraph" font-family="Liberation Sans" font-size="459px" font-weight="400"><tspan class="TextPosition" x="6147" y="851"><tspan fill="rgb(0,0,0)" stroke="none">Mapeamento RSSI</tspan></tspan></tspan></text>
 <path fill="rgb(0,69,134)" stroke="none" d="M 13188,3650 L 13188,3861 13399,3861 13399,3650 13188,3650 Z"/>
 <path fill="none" stroke="rgb(0,69,134)" stroke-linejoin="round" d="M 13188,3650 L 13188,3861 13399,3861 13399,3650 13188,3650 Z"/>
 <path fill="rgb(255,66,14)" stroke="none" d="M 13399,4253 L 13398,4248 13398,4244 13398,4239 13397,4235 13396,4230 13395,4226 13394,4221 13392,4217 13390,4213 13389,4208 13387,4204 13384,4200 13382,4196 13379,4192 13377,4189 13374,4185 13371,4182 13368,4178 13364,4175 13361,4172 13357,4169 13354,4167 13350,4164 13346,4162 13342,4159 13338,4157 13333,4156 13329,4154 13325,4152 13320,4151 13316,4150 13311,4149 13307,4148 13302,4148 13298,4148 13293,4148 13288,4148 13284,4148 13279,4148 13275,4149 13270,4150 13266,4151 13261,4152 13257,4154 13253,4156 13248,4157 13244,4159 13240,4162 13236,4164 13232,4167 13229,4169 13225,4172 13222,4175 13218,4178 13215,4182 13212,4185 13209,4189 13207,4192 13204,4196 13202,4200 13199,4204 13197,4208 13196,4213 13194,4217 13192,4221 13191,4226 13190,4230 13189,4235 13188,4239 13188,4244 13188,4248 13188,4253 13188,4258 13188,4262 13188,4267 13189,4271 13190,4276 13191,4280 13192,4285 13194,4289 13196,4293 13197,4298 13199,4302 13202,4306 13204,4310 13207,4314 13209,4317 13212,4321 13215,4324 13218,4328 13222,4331 13225,4334 13229,4337 13232,4339 13236,4342 13240,4344 13244,4347 13248,4349 13253,4350 13257,4352 13261,4354 13266,4355 13270,4356 13275,4357 13279,4358 13284,4358 13288,4358 13293,4359 13298,4358 13302,4358 13307,4358 13311,4357 13316,4356 13320,4355 13325,4354 13329,4352 13333,4350 13338,4349 13342,4347 13346,4344 13350,4342 13354,4339 13357,4337 13361,4334 13364,4331 13368,4328 13371,4324 13374,4321 13377,4317 13379,4314 13382,4310 13384,4306 13387,4302 13389,4298 13390,4293 13392,4289 13394,4285 13395,4280 13396,4276 13397,4271 13398,4267 13398,4262 13398,4258 13399,4253 Z"/>
 <path fill="none" stroke="rgb(255,66,14)" stroke-linejoin="round" d="M 13399,4253 L 13398,4248 13398,4244 13398,4239 13397,4235 13396,4230 13395,4226 13394,4221 13392,4217 13390,4213 13389,4208 13387,4204 13384,4200 13382,4196 13379,4192 13377,4189 13374,4185 13371,4182 13368,4178 13364,4175 13361,4172 13357,4169 13354,4167 13350,4164 13346,4162 13342,4159 13338,4157 13333,4156 13329,4154 13325,4152 13320,4151 13316,4150 13311,4149 13307,4148 13302,4148 13298,4148 13293,4148 13288,4148 13284,4148 13279,4148 13275,4149 13270,4150 13266,4151 13261,4152 13257,4154 13253,4156 13248,4157 13244,4159 13240,4162 13236,4164 13232,4167 13229,4169 13225,4172 13222,4175 13218,4178 13215,4182 13212,4185 13209,4189 13207,4192 13204,4196 13202,4200 13199,4204 13197,4208 13196,4213 13194,4217 13192,4221 13191,4226 13190,4230 13189,4235 13188,4239 13188,4244 13188,4248 13188,4253 13188,4258 13188,4262 13188,4267 13189,4271 13190,4276 13191,4280 13192,4285 13194,4289 13196,4293 13197,4298 13199,4302 13202,4306 13204,4310 13207,4314 13209,4317 13212,4321 13215,4324 13218,4328 13222,4331 13225,4334 13229,4337 13232,4339 13236,4342 13240,4344 13244,4347 13248,4349 13253,4350 13257,4352 13261,4354 13266,4355 13270,4356 13275,4357 13279,4358 13284,4358 13288,4358 13293,4359 13298,4358 13302,4358 13307,4358 13311,4357 13316,4356 13320,4355 13325,4354 13329,4352 13333,4350 13338,4349 13342,4347 13346,4344 13350,4342 13354,4339 13357,4337 13361,4334 13364,4331 13368,4328 13371,4324 13374,4321 13377,4317 13379,4314 13382,4310 13384,4306 13387,4302 13389,4298 13390,4293 13392,4289 13394,4285 13395,4280 13396,4276 13397,4271 13398,4267 13398,4262 13398,4258 13399,4253 Z"/>
 <path fill="rgb(197,0,11)" stroke="none" d="M 13188,4645 L 13293,4856 13399,4645 13188,4645 Z"/>
 <path fill="none" stroke="rgb(197,0,11)" stroke-linejoin="round" d="M 13188,4645 L 13293,4856 13399,4645 13188,4645 Z"/>
 <path fill="rgb(0,102,0)" stroke="none" d="M 13285,5143 L 13285,5234 13196,5182 13188,5197 13277,5248 13188,5299 13196,5314 13285,5262 13285,5354 13301,5354 13301,5262 13390,5314 13399,5299 13309,5248 13399,5197 13390,5182 13301,5234 13301,5143 13285,5143 Z"/>
 <path fill="none" stroke="rgb(0,102,0)" stroke-linejoin="round" d="M 13285,5143 L 13285,5234 13196,5182 13188,5197 13277,5248 13188,5299 13196,5314 13285,5262 13285,5354 13301,5354 13301,5262 13390,5314 13399,5299 13309,5248 13399,5197 13390,5182 13301,5234 13301,5143 13285,5143 Z"/>
 <text class="TextShape"><tspan class="TextParagraph" font-family="Liberation Sans" font-size="353px" font-weight="400"><tspan class="TextPosition" x="13499" y="3875"><tspan fill="rgb(0,0,0)" stroke="none">SEM RUIDO</tspan></tspan></tspan></text>
 <text class="TextShape"><tspan class="TextParagraph" font-family="Liberation Sans" font-size="353px" font-weight="400"><tspan class="TextPosition" x="13499" y="4373"><tspan fill="rgb(0,0,0)" stroke="none">RUIDO NO 11</tspan></tspan></tspan></text>
 <text class="TextShape"><tspan class="TextParagraph" font-family="Liberation Sans" font-size="353px" font-weight="400"><tspan class="TextPosition" x="13499" y="4870"><tspan fill="rgb(0,0,0)" stroke="none">RUIDO NO 13</tspan></tspan></tspan></text>
 <text class="TextShape"><tspan class="TextParagraph" font-family="Liberation Sans" font-size="353px" font-weight="400"><tspan class="TextPosition" x="13499" y="5368"><tspan fill="rgb(0,0,0)" stroke="none">RUIDO NO 17</tspan></tspan></tspan></text>
</svg>