<?xml version="1.0" encoding="UTF-8"?>
<!DOCTYPE svg PUBLIC "-//W3C//DTD SVG 1.1//EN" "http://www.w3.org/Graphics/SVG/1.1/DTD/svg11.dtd">
<svg width="204mm" height="150mm" viewBox="0 0 20400 15000" version="1.1" xmlns="http://www.w3.org/2000/svg" stroke-width="28.222" stroke-linejoin="round" xml:space="preserve">
 <path fill="rgb(114,159,207)" stroke="none" d="M -34,3 L 20313,3 20313,15027 -34,15027 -34,3 Z"/>
 <path fill="none" stroke="rgb(52,101,164)" stroke-linejoin="round" d="M -34,3 L 20313,3 20313,15027 -34,15027 -34,3 Z"/>
 <path fill="rgb(255,255,255)" stroke="none" d="M 10140,15027 L -34,15027 -34,3 20313,3 20313,15027 10140,15027 Z"/>
 <path fill="none" stroke="rgb(179,179,179)" stroke-linejoin="round" d="M 10565,11490 L 2772,11490 2772,2021 18358,2021 18358,11490 10565,11490 Z"/>
 <path fill="none" stroke="rgb(179,179,179)" stroke-linejoin="round" d="M 18358,11489 L 2772,11489"/>
 <path fill="none" stroke="rgb(179,179,179)" stroke-linejoin="round" d="M 18358,10542 L 2772,10542"/>
 <path fill="none" stroke="rgb(179,179,179)" stroke-linejoin="round" d="M 18358,9595 L 2772,9595"/>
 <path fill="none" stroke="rgb(179,179,179)" stroke-linejoin="round" d="M 18358,8648 L 2772,8648"/>
 <path fill="none" stroke="rgb(179,179,179)" stroke-linejoin="round" d="M 18358,7701 L 2772,7701"/>
 <path fill="none" stroke="rgb(179,179,179)" stroke-linejoin="round" d="M 18358,6755 L 2772,6755"/>
 <path fill="none" stroke="rgb(179,179,179)" stroke-linejoin="round" d="M 18358,5808 L 2772,5808"/>
 <path fill="none" stroke="rgb(179,179,179)" stroke-linejoin="round" d="M 18358,4861 L 2772,4861"/>
 <path fill="none" stroke="rgb(179,179,179)" stroke-linejoin="round" d="M 18358,3914 L 2772,3914"/>
 <path fill="none" stroke="rgb(179,179,179)" stroke-linejoin="round" d="M 18358,2967 L 2772,2967"/>
 <path fill="none" stroke="rgb(179,179,179)" stroke-linejoin="round" d="M 18358,2020 L 2772,2020"/>
 <path fill="none" stroke="rgb(179,179,179)" stroke-linejoin="round" d="M 2772,11639 L 2772,11489"/>
 <path fill="none" stroke="rgb(179,179,179)" stroke-linejoin="round" d="M 4998,11639 L 4998,11489"/>
 <path fill="none" stroke="rgb(179,179,179)" stroke-linejoin="round" d="M 7225,11639 L 7225,11489"/>
 <path fill="none" stroke="rgb(179,179,179)" stroke-linejoin="round" d="M 9452,11639 L 9452,11489"/>
 <path fill="none" stroke="rgb(179,179,179)" stroke-linejoin="round" d="M 11677,11639 L 11677,11489"/>
 <path fill="none" stroke="rgb(179,179,179)" stroke-linejoin="round" d="M 13904,11639 L 13904,11489"/>
 <path fill="none" stroke="rgb(179,179,179)" stroke-linejoin="round" d="M 16131,11639 L 16131,11489"/>
 <path fill="none" stroke="rgb(179,179,179)" stroke-linejoin="round" d="M 18358,11639 L 18358,11489"/>
 <path fill="none" stroke="rgb(179,179,179)" stroke-linejoin="round" d="M 2772,11489 L 18358,11489"/>
 <path fill="none" stroke="rgb(179,179,179)" stroke-linejoin="round" d="M 2622,11489 L 2772,11489"/>
 <path fill="none" stroke="rgb(179,179,179)" stroke-linejoin="round" d="M 2622,10542 L 2772,10542"/>
 <path fill="none" stroke="rgb(179,179,179)" stroke-linejoin="round" d="M 2622,9595 L 2772,9595"/>
 <path fill="none" stroke="rgb(179,179,179)" stroke-linejoin="round" d="M 2622,8648 L 2772,8648"/>
 <path fill="none" stroke="rgb(179,179,179)" stroke-linejoin="round" d="M 2622,7701 L 2772,7701"/>
 <path fill="none" stroke="rgb(179,179,179)" stroke-linejoin="round" d="M 2622,6755 L 2772,6755"/>
 <path fill="none" stroke="rgb(179,179,179)" stroke-linejoin="round" d="M 2622,5807 L 2772,5807"/>
 <path fill="none" stroke="rgb(179,179,179)" stroke-linejoin="round" d="M 2622,4860 L 2772,4860"/>
 <path fill="none" stroke="rgb(179,179,179)" stroke-linejoin="round" d="M 2622,3914 L 2772,3914"/>
 <path fill="none" stroke="rgb(179,179,179)" stroke-linejoin="round" d="M 2622,2967 L 2772,2967"/>
 <path fill="none" stroke="rgb(179,179,179)" stroke-linejoin="round" d="M 2622,2020 L 2772,2020"/>
 <path fill="none" stroke="rgb(179,179,179)" stroke-linejoin="round" d="M 2772,11489 L 2772,2020"/>
 <path fill="rgb(0,69,134)" stroke="none" d="M 16353,11489 L 16799,11489 16799,10352 16353,10352 16353,11489 Z"/>
 <path fill="rgb(0,69,134)" stroke="none" d="M 14127,11489 L 14572,11489 14572,10603 14127,10603 14127,11489 Z"/>
 <path fill="rgb(0,69,134)" stroke="none" d="M 11900,11489 L 12345,11489 12345,10631 11900,10631 11900,11489 Z"/>
 <path fill="rgb(0,69,134)" stroke="none" d="M 9674,11489 L 10120,11489 10120,9902 9674,9902 9674,11489 Z"/>
 <path fill="rgb(0,69,134)" stroke="none" d="M 7448,11489 L 7893,11489 7893,9997 7448,9997 7448,11489 Z"/>
 <path fill="rgb(0,69,134)" stroke="none" d="M 5221,11489 L 5666,11489 5666,9755 5221,9755 5221,11489 Z"/>
 <path fill="rgb(0,69,134)" stroke="none" d="M 2994,11489 L 3440,11489 3440,9618 2994,9618 2994,11489 Z"/>
 <path fill="rgb(255,66,14)" stroke="none" d="M 16799,11489 L 17244,11489 17244,10489 16799,10489 16799,11489 Z"/>
 <path fill="rgb(255,66,14)" stroke="none" d="M 14572,11489 L 15017,11489 15017,10669 14572,10669 14572,11489 Z"/>
 <path fill="rgb(255,66,14)" stroke="none" d="M 12345,11489 L 12791,11489 12791,10788 12345,10788 12345,11489 Z"/>
 <path fill="rgb(255,66,14)" stroke="none" d="M 10120,11489 L 10564,11489 10564,10049 10120,10049 10120,11489 Z"/>
 <path fill="rgb(255,66,14)" stroke="none" d="M 7893,11489 L 8338,11489 8338,10030 7893,10030 7893,11489 Z"/>
 <path fill="rgb(255,66,14)" stroke="none" d="M 5666,11489 L 6112,11489 6112,9902 5666,9902 5666,11489 Z"/>
 <path fill="rgb(255,66,14)" stroke="none" d="M 3440,11489 L 3885,11489 3885,9997 3440,9997 3440,11489 Z"/>
 <path fill="rgb(255,211,32)" stroke="none" d="M 17244,11489 L 17689,11489 17689,10409 17244,10409 17244,11489 Z"/>
 <path fill="rgb(255,211,32)" stroke="none" d="M 15017,11489 L 15463,11489 15463,10286 15017,10286 15017,11489 Z"/>
 <path fill="rgb(255,211,32)" stroke="none" d="M 12791,11489 L 13236,11489 13236,10210 12791,10210 12791,11489 Z"/>
 <path fill="rgb(255,211,32)" stroke="none" d="M 10564,11489 L 11009,11489 11009,9869 10564,9869 10564,11489 Z"/>
 <path fill="rgb(255,211,32)" stroke="none" d="M 8338,11489 L 8784,11489 8784,10030 8338,10030 8338,11489 Z"/>
 <path fill="rgb(255,211,32)" stroke="none" d="M 6112,11489 L 6557,11489 6557,9656 6112,9656 6112,11489 Z"/>
 <path fill="rgb(255,211,32)" stroke="none" d="M 3885,11489 L 4330,11489 4330,3052 3885,3052 3885,11489 Z"/>
 <path fill="rgb(87,157,28)" stroke="none" d="M 17689,11489 L 18135,11489 18135,10442 17689,10442 17689,11489 Z"/>
 <path fill="rgb(87,157,28)" stroke="none" d="M 15463,11489 L 15908,11489 15908,10452 15463,10452 15463,11489 Z"/>
 <path fill="rgb(87,157,28)" stroke="none" d="M 13236,11489 L 13681,11489 13681,10338 13236,10338 13236,11489 Z"/>
 <path fill="rgb(87,157,28)" stroke="none" d="M 11009,11489 L 11455,11489 11455,9827 11009,9827 11009,11489 Z"/>
 <path fill="rgb(87,157,28)" stroke="none" d="M 8784,11489 L 9229,11489 9229,10134 8784,10134 8784,11489 Z"/>
 <path fill="rgb(87,157,28)" stroke="none" d="M 6557,11489 L 7002,11489 7002,9722 6557,9722 6557,11489 Z"/>
 <path fill="rgb(87,157,28)" stroke="none" d="M 4330,11489 L 4776,11489 4776,3312 4330,3312 4330,11489 Z"/>
 <path fill="none" stroke="rgb(0,0,0)" stroke-linejoin="round" d="M 3217,9869 L 3217,9618 3217,9368"/>
 <path fill="none" stroke="rgb(0,0,0)" stroke-linejoin="round" d="M 3317,9869 L 3117,9869"/>
 <path fill="none" stroke="rgb(0,0,0)" stroke-linejoin="round" d="M 3117,9368 L 3317,9368"/>
 <path fill="none" stroke="rgb(0,0,0)" stroke-linejoin="round" d="M 5444,9793 L 5444,9755 5444,9718"/>
 <path fill="none" stroke="rgb(0,0,0)" stroke-linejoin="round" d="M 5544,9793 L 5344,9793"/>
 <path fill="none" stroke="rgb(0,0,0)" stroke-linejoin="round" d="M 5344,9718 L 5544,9718"/>
 <path fill="none" stroke="rgb(0,0,0)" stroke-linejoin="round" d="M 7670,10062 L 7670,9997 7670,9932"/>
 <path fill="none" stroke="rgb(0,0,0)" stroke-linejoin="round" d="M 7770,10062 L 7570,10062"/>
 <path fill="none" stroke="rgb(0,0,0)" stroke-linejoin="round" d="M 7570,9932 L 7770,9932"/>
 <path fill="none" stroke="rgb(0,0,0)" stroke-linejoin="round" d="M 9897,9967 L 9897,9902 9897,9837"/>
 <path fill="none" stroke="rgb(0,0,0)" stroke-linejoin="round" d="M 9997,9967 L 9797,9967"/>
 <path fill="none" stroke="rgb(0,0,0)" stroke-linejoin="round" d="M 9797,9837 L 9997,9837"/>
 <path fill="none" stroke="rgb(0,0,0)" stroke-linejoin="round" d="M 12123,11179 L 12123,10631 12123,10084"/>
 <path fill="none" stroke="rgb(0,0,0)" stroke-linejoin="round" d="M 12223,11179 L 12023,11179"/>
 <path fill="none" stroke="rgb(0,0,0)" stroke-linejoin="round" d="M 12023,10084 L 12223,10084"/>
 <path fill="none" stroke="rgb(0,0,0)" stroke-linejoin="round" d="M 14349,11002 L 14349,10603 14349,10204"/>
 <path fill="none" stroke="rgb(0,0,0)" stroke-linejoin="round" d="M 14449,11002 L 14249,11002"/>
 <path fill="none" stroke="rgb(0,0,0)" stroke-linejoin="round" d="M 14249,10204 L 14449,10204"/>
 <path fill="none" stroke="rgb(0,0,0)" stroke-linejoin="round" d="M 16576,10538 L 16576,10352 16576,10166"/>
 <path fill="none" stroke="rgb(0,0,0)" stroke-linejoin="round" d="M 16676,10538 L 16476,10538"/>
 <path fill="none" stroke="rgb(0,0,0)" stroke-linejoin="round" d="M 16476,10166 L 16676,10166"/>
 <path fill="none" stroke="rgb(0,0,0)" stroke-linejoin="round" d="M 3662,10192 L 3662,9997 3662,9802"/>
 <path fill="none" stroke="rgb(0,0,0)" stroke-linejoin="round" d="M 3762,10192 L 3562,10192"/>
 <path fill="none" stroke="rgb(0,0,0)" stroke-linejoin="round" d="M 3562,9802 L 3762,9802"/>
 <path fill="none" stroke="rgb(0,0,0)" stroke-linejoin="round" d="M 5889,9930 L 5889,9902 5889,9874"/>
 <path fill="none" stroke="rgb(0,0,0)" stroke-linejoin="round" d="M 5989,9930 L 5789,9930"/>
 <path fill="none" stroke="rgb(0,0,0)" stroke-linejoin="round" d="M 5789,9874 L 5989,9874"/>
 <path fill="none" stroke="rgb(0,0,0)" stroke-linejoin="round" d="M 8116,10030 L 8116,10030 Z"/>
 <path fill="none" stroke="rgb(0,0,0)" stroke-linejoin="round" d="M 8016,10030 L 8216,10030"/>
 <path fill="none" stroke="rgb(0,0,0)" stroke-linejoin="round" d="M 8016,10030 L 8216,10030"/>
 <path fill="none" stroke="rgb(0,0,0)" stroke-linejoin="round" d="M 10341,10049 L 10341,10049 Z"/>
 <path fill="none" stroke="rgb(0,0,0)" stroke-linejoin="round" d="M 10241,10049 L 10441,10049"/>
 <path fill="none" stroke="rgb(0,0,0)" stroke-linejoin="round" d="M 10241,10049 L 10441,10049"/>
 <path fill="none" stroke="rgb(0,0,0)" stroke-linejoin="round" d="M 12568,11029 L 12568,10788 12568,10546"/>
 <path fill="none" stroke="rgb(0,0,0)" stroke-linejoin="round" d="M 12668,11029 L 12468,11029"/>
 <path fill="none" stroke="rgb(0,0,0)" stroke-linejoin="round" d="M 12468,10546 L 12668,10546"/>
 <path fill="none" stroke="rgb(0,0,0)" stroke-linejoin="round" d="M 14795,10697 L 14795,10669 14795,10642"/>
 <path fill="none" stroke="rgb(0,0,0)" stroke-linejoin="round" d="M 14895,10697 L 14695,10697"/>
 <path fill="none" stroke="rgb(0,0,0)" stroke-linejoin="round" d="M 14695,10642 L 14895,10642"/>
 <path fill="none" stroke="rgb(0,0,0)" stroke-linejoin="round" d="M 17021,10647 L 17021,10489 17021,10332"/>
 <path fill="none" stroke="rgb(0,0,0)" stroke-linejoin="round" d="M 17121,10647 L 16921,10647"/>
 <path fill="none" stroke="rgb(0,0,0)" stroke-linejoin="round" d="M 16921,10332 L 17121,10332"/>
 <path fill="none" stroke="rgb(0,0,0)" stroke-linejoin="round" d="M 4108,3998 L 4108,3052 4108,2105"/>
 <path fill="none" stroke="rgb(0,0,0)" stroke-linejoin="round" d="M 4208,3998 L 4008,3998"/>
 <path fill="none" stroke="rgb(0,0,0)" stroke-linejoin="round" d="M 4008,2105 L 4208,2105"/>
 <path fill="none" stroke="rgb(0,0,0)" stroke-linejoin="round" d="M 6334,9665 L 6334,9656 6334,9647"/>
 <path fill="none" stroke="rgb(0,0,0)" stroke-linejoin="round" d="M 6434,9665 L 6234,9665"/>
 <path fill="none" stroke="rgb(0,0,0)" stroke-linejoin="round" d="M 6234,9647 L 6434,9647"/>
 <path fill="none" stroke="rgb(0,0,0)" stroke-linejoin="round" d="M 8561,10030 L 8561,10030 Z"/>
 <path fill="none" stroke="rgb(0,0,0)" stroke-linejoin="round" d="M 8461,10030 L 8661,10030"/>
 <path fill="none" stroke="rgb(0,0,0)" stroke-linejoin="round" d="M 8461,10030 L 8661,10030"/>
 <path fill="none" stroke="rgb(0,0,0)" stroke-linejoin="round" d="M 10787,10110 L 10787,9869 10787,9628"/>
 <path fill="none" stroke="rgb(0,0,0)" stroke-linejoin="round" d="M 10887,10110 L 10687,10110"/>
 <path fill="none" stroke="rgb(0,0,0)" stroke-linejoin="round" d="M 10687,9628 L 10887,9628"/>
 <path fill="none" stroke="rgb(0,0,0)" stroke-linejoin="round" d="M 13013,10210 L 13013,10210 Z"/>
 <path fill="none" stroke="rgb(0,0,0)" stroke-linejoin="round" d="M 12913,10210 L 13113,10210"/>
 <path fill="none" stroke="rgb(0,0,0)" stroke-linejoin="round" d="M 12913,10210 L 13113,10210"/>
 <path fill="none" stroke="rgb(0,0,0)" stroke-linejoin="round" d="M 15240,10360 L 15240,10286 15240,10212"/>
 <path fill="none" stroke="rgb(0,0,0)" stroke-linejoin="round" d="M 15340,10360 L 15140,10360"/>
 <path fill="none" stroke="rgb(0,0,0)" stroke-linejoin="round" d="M 15140,10212 L 15340,10212"/>
 <path fill="none" stroke="rgb(0,0,0)" stroke-linejoin="round" d="M 17467,10613 L 17467,10409 17467,10205"/>
 <path fill="none" stroke="rgb(0,0,0)" stroke-linejoin="round" d="M 17567,10613 L 17367,10613"/>
 <path fill="none" stroke="rgb(0,0,0)" stroke-linejoin="round" d="M 17367,10205 L 17567,10205"/>
 <path fill="none" stroke="rgb(0,0,0)" stroke-linejoin="round" d="M 4553,4305 L 4553,3312 4553,2319"/>
 <path fill="none" stroke="rgb(0,0,0)" stroke-linejoin="round" d="M 4653,4305 L 4453,4305"/>
 <path fill="none" stroke="rgb(0,0,0)" stroke-linejoin="round" d="M 4453,2319 L 4653,2319"/>
 <path fill="none" stroke="rgb(0,0,0)" stroke-linejoin="round" d="M 6780,9732 L 6780,9722 6780,9713"/>
 <path fill="none" stroke="rgb(0,0,0)" stroke-linejoin="round" d="M 6880,9732 L 6680,9732"/>
 <path fill="none" stroke="rgb(0,0,0)" stroke-linejoin="round" d="M 6680,9713 L 6880,9713"/>
 <path fill="none" stroke="rgb(0,0,0)" stroke-linejoin="round" d="M 9006,10134 L 9006,10134 Z"/>
 <path fill="none" stroke="rgb(0,0,0)" stroke-linejoin="round" d="M 8906,10134 L 9106,10134"/>
 <path fill="none" stroke="rgb(0,0,0)" stroke-linejoin="round" d="M 8906,10134 L 9106,10134"/>
 <path fill="none" stroke="rgb(0,0,0)" stroke-linejoin="round" d="M 11232,9947 L 11232,9827 11232,9706"/>
 <path fill="none" stroke="rgb(0,0,0)" stroke-linejoin="round" d="M 11332,9947 L 11132,9947"/>
 <path fill="none" stroke="rgb(0,0,0)" stroke-linejoin="round" d="M 11132,9706 L 11332,9706"/>
 <path fill="none" stroke="rgb(0,0,0)" stroke-linejoin="round" d="M 13459,10366 L 13459,10338 13459,10310"/>
 <path fill="none" stroke="rgb(0,0,0)" stroke-linejoin="round" d="M 13559,10366 L 13359,10366"/>
 <path fill="none" stroke="rgb(0,0,0)" stroke-linejoin="round" d="M 13359,10310 L 13559,10310"/>
 <path fill="none" stroke="rgb(0,0,0)" stroke-linejoin="round" d="M 15685,10554 L 15685,10452 15685,10349"/>
 <path fill="none" stroke="rgb(0,0,0)" stroke-linejoin="round" d="M 15785,10554 L 15585,10554"/>
 <path fill="none" stroke="rgb(0,0,0)" stroke-linejoin="round" d="M 15585,10349 L 15785,10349"/>
 <path fill="none" stroke="rgb(0,0,0)" stroke-linejoin="round" d="M 17912,10451 L 17912,10442 17912,10433"/>
 <path fill="none" stroke="rgb(0,0,0)" stroke-linejoin="round" d="M 18012,10451 L 17812,10451"/>
 <path fill="none" stroke="rgb(0,0,0)" stroke-linejoin="round" d="M 17812,10433 L 18012,10433"/>
 <text class="TextShape" transform="translate(3500,12432) rotate(-44.9) translate(-3500,-12432)"><tspan class="TextParagraph" font-family="Arial" font-size="353px" font-weight="400"><tspan class="TextPosition" x="3500" y="12432"><tspan fill="rgb(33,33,33)" stroke="none">KLE</tspan></tspan></tspan></text>
 <text class="TextShape" transform="translate(5691,12469) rotate(-44.9) translate(-5691,-12469)"><tspan class="TextParagraph" font-family="Arial" font-size="353px" font-weight="400"><tspan class="TextPosition" x="5691" y="12469"><tspan fill="rgb(33,33,33)" stroke="none">PRR</tspan></tspan></tspan></text>
 <text class="TextShape" transform="translate(7785,12600) rotate(-44.9) translate(-7785,-12600)"><tspan class="TextParagraph" font-family="Arial" font-size="353px" font-weight="400"><tspan class="TextPosition" x="7785" y="12600"><tspan fill="rgb(33,33,33)" stroke="none">PRR2</tspan></tspan></tspan></text>
 <text class="TextShape" transform="translate(10199,12414) rotate(-44.9) translate(-10199,-12414)"><tspan class="TextParagraph" font-family="Arial" font-size="353px" font-weight="400"><tspan class="TextPosition" x="10199" y="12414"><tspan fill="rgb(33,33,33)" stroke="none">LQL</tspan></tspan></tspan></text>
 <text class="TextShape" transform="translate(10368,14472) rotate(-44.9) translate(-10368,-14472)"><tspan class="TextParagraph" font-family="Arial" font-size="353px" font-weight="400"><tspan class="TextPosition" x="10368" y="14472"><tspan fill="rgb(33,33,33)" stroke="none">LQR3 sem time control</tspan></tspan></tspan></text>
 <text class="TextShape" transform="translate(12594,14472) rotate(-44.9) translate(-12594,-14472)"><tspan class="TextParagraph" font-family="Arial" font-size="353px" font-weight="400"><tspan class="TextPosition" x="12594" y="14472"><tspan fill="rgb(33,33,33)" stroke="none">LQR3 com time control</tspan></tspan></tspan></text>
 <text class="TextShape" transform="translate(15307,13985) rotate(-44.9) translate(-15307,-13985)"><tspan class="TextParagraph" font-family="Arial" font-size="353px" font-weight="400"><tspan class="TextPosition" x="15307" y="13985"><tspan fill="rgb(33,33,33)" stroke="none">FIXED MAX GAIN</tspan></tspan></tspan></text>
 <text class="TextShape"><tspan class="TextParagraph" font-family="Arial" font-size="353px" font-weight="400"><tspan class="TextPosition" x="1569" y="11610"><tspan fill="rgb(33,33,33)" stroke="none">0,500 </tspan></tspan></tspan></text>
 <text class="TextShape"><tspan class="TextParagraph" font-family="Arial" font-size="353px" font-weight="400"><tspan class="TextPosition" x="1569" y="10663"><tspan fill="rgb(33,33,33)" stroke="none">1,500 </tspan></tspan></tspan></text>
 <text class="TextShape"><tspan class="TextParagraph" font-family="Arial" font-size="353px" font-weight="400"><tspan class="TextPosition" x="1569" y="9716"><tspan fill="rgb(33,33,33)" stroke="none">2,500 </tspan></tspan></tspan></text>
 <text class="TextShape"><tspan class="TextParagraph" font-family="Arial" font-size="353px" font-weight="400"><tspan class="TextPosition" x="1569" y="8769"><tspan fill="rgb(33,33,33)" stroke="none">3,500 </tspan></tspan></tspan></text>
 <text class="TextShape"><tspan class="TextParagraph" font-family="Arial" font-size="353px" font-weight="400"><tspan class="TextPosition" x="1569" y="7822"><tspan fill="rgb(33,33,33)" stroke="none">4,500 </tspan></tspan></tspan></text>
 <text class="TextShape"><tspan class="TextParagraph" font-family="Arial" font-size="353px" font-weight="400"><tspan class="TextPosition" x="1569" y="6875"><tspan fill="rgb(33,33,33)" stroke="none">5,500 </tspan></tspan></tspan></text>
 <text class="TextShape"><tspan class="TextParagraph" font-family="Arial" font-size="353px" font-weight="400"><tspan class="TextPosition" x="1569" y="5927"><tspan fill="rgb(33,33,33)" stroke="none">6,500 </tspan></tspan></tspan></text>
 <text class="TextShape"><tspan class="TextParagraph" font-family="Arial" font-size="353px" font-weight="400"><tspan class="TextPosition" x="1569" y="4980"><tspan fill="rgb(33,33,33)" stroke="none">7,500 </tspan></tspan></tspan></text>
 <text class="TextShape"><tspan class="TextParagraph" font-family="Arial" font-size="353px" font-weight="400"><tspan class="TextPosition" x="1569" y="4034"><tspan fill="rgb(33,33,33)" stroke="none">8,500 </tspan></tspan></tspan></text>
 <text class="TextShape"><tspan class="TextParagraph" font-family="Arial" font-size="353px" font-weight="400"><tspan class="TextPosition" x="1569" y="3087"><tspan fill="rgb(33,33,33)" stroke="none">9,500 </tspan></tspan></tspan></text>
 <text class="TextShape"><tspan class="TextParagraph" font-family="Arial" font-size="353px" font-weight="400"><tspan class="TextPosition" x="1384" y="2140"><tspan fill="rgb(33,33,33)" stroke="none">10,500 </tspan></tspan></tspan></text>
 <text class="TextShape"><tspan class="TextParagraph" font-family="Arial" font-size="459px" font-weight="400"><tspan class="TextPosition" x="6158" y="973"><tspan fill="rgb(33,33,33)" stroke="none">Relação transmissões / pacote recebido</tspan></tspan></tspan><tspan class="TextParagraph" font-family="Arial" font-size="459px" font-weight="400"><tspan class="TextPosition" x="4240" y="1476"><tspan fill="rgb(33,33,33)" stroke="none">Multiple sender - Delay poisson 250ms - sem ruído artificial</tspan></tspan></tspan></text>
 <path fill="rgb(255,255,255)" stroke="none" d="M 19434,8560 L 18764,8560 18764,6469 20103,6469 20103,8560 19434,8560 Z"/>
 <path fill="none" stroke="rgb(0,0,0)" stroke-linejoin="round" d="M 19434,8560 L 18764,8560 18764,6469 20103,6469 20103,8560 19434,8560 Z"/>
 <path fill="rgb(0,69,134)" stroke="none" d="M 18986,6873 L 18880,6873 18880,6662 19091,6662 19091,6873 18986,6873 Z"/>
 <path fill="rgb(255,66,14)" stroke="none" d="M 18986,7371 L 18880,7371 18880,7160 19091,7160 19091,7371 18986,7371 Z"/>
 <path fill="rgb(255,211,32)" stroke="none" d="M 18986,7868 L 18880,7868 18880,7657 19091,7657 19091,7868 18986,7868 Z"/>
 <path fill="rgb(87,157,28)" stroke="none" d="M 18986,8366 L 18880,8366 18880,8155 19091,8155 19091,8366 18986,8366 Z"/>
 <text class="TextShape"><tspan class="TextParagraph" font-family="Liberation Sans" font-size="353px" font-weight="400"><tspan class="TextPosition" x="19191" y="6887"><tspan fill="rgb(0,0,0)" stroke="none">No12</tspan></tspan></tspan></text>
 <text class="TextShape"><tspan class="TextParagraph" font-family="Liberation Sans" font-size="353px" font-weight="400"><tspan class="TextPosition" x="19191" y="7385"><tspan fill="rgb(0,0,0)" stroke="none">No14</tspan></tspan></tspan></text>
 <text class="TextShape"><tspan class="TextParagraph" font-family="Liberation Sans" font-size="353px" font-weight="400"><tspan class="TextPosition" x="19191" y="7882"><tspan fill="rgb(0,0,0)" stroke="none">No16</tspan></tspan></tspan></text>
 <text class="TextShape"><tspan class="TextParagraph" font-family="Liberation Sans" font-size="353px" font-weight="400"><tspan class="TextPosition" x="19191" y="8380"><tspan fill="rgb(0,0,0)" stroke="none">No18</tspan></tspan></tspan></text>
 <text class="TextShape" transform="translate(803,8982) rotate(-90) translate(-803,-8982)"><tspan class="TextParagraph" font-family="Arial" font-size="318px" font-weight="400"><tspan class="TextPosition" x="803" y="8982"><tspan fill="rgb(33,33,33)" stroke="none">Relação</tspan></tspan></tspan></text>
</svg>