<?xml version="1.0" encoding="UTF-8"?>
<!DOCTYPE svg PUBLIC "-//W3C//DTD SVG 1.1//EN" "http://www.w3.org/Graphics/SVG/1.1/DTD/svg11.dtd">
<svg width="204mm" height="150mm" viewBox="0 0 20400 15000" version="1.1" xmlns="http://www.w3.org/2000/svg" stroke-width="28.222" stroke-linejoin="round" xml:space="preserve">
 <path fill="rgb(114,159,207)" stroke="none" d="M -35,4 L 20312,4 20312,15028 -35,15028 -35,4 Z"/>
 <path fill="none" stroke="rgb(52,101,164)" stroke-linejoin="round" d="M -35,4 L 20312,4 20312,15028 -35,15028 -35,4 Z"/>
 <path fill="rgb(255,255,255)" stroke="none" d="M 10139,15028 L -35,15028 -35,4 20312,4 20312,15028 10139,15028 Z"/>
 <path fill="none" stroke="rgb(179,179,179)" stroke-linejoin="round" d="M 10470,11490 L 2585,11490 2585,2391 18355,2391 18355,11490 10470,11490 Z"/>
 <path fill="none" stroke="rgb(179,179,179)" stroke-linejoin="round" d="M 18355,11489 L 2585,11489"/>
 <path fill="none" stroke="rgb(179,179,179)" stroke-linejoin="round" d="M 18355,9214 L 2585,9214"/>
 <path fill="none" stroke="rgb(179,179,179)" stroke-linejoin="round" d="M 18355,6940 L 2585,6940"/>
 <path fill="none" stroke="rgb(179,179,179)" stroke-linejoin="round" d="M 18355,4665 L 2585,4665"/>
 <path fill="none" stroke="rgb(179,179,179)" stroke-linejoin="round" d="M 18355,2390 L 2585,2390"/>
 <path fill="none" stroke="rgb(179,179,179)" stroke-linejoin="round" d="M 2585,11639 L 2585,11489"/>
 <path fill="none" stroke="rgb(179,179,179)" stroke-linejoin="round" d="M 4838,11639 L 4838,11489"/>
 <path fill="none" stroke="rgb(179,179,179)" stroke-linejoin="round" d="M 7091,11639 L 7091,11489"/>
 <path fill="none" stroke="rgb(179,179,179)" stroke-linejoin="round" d="M 9344,11639 L 9344,11489"/>
 <path fill="none" stroke="rgb(179,179,179)" stroke-linejoin="round" d="M 11596,11639 L 11596,11489"/>
 <path fill="none" stroke="rgb(179,179,179)" stroke-linejoin="round" d="M 13848,11639 L 13848,11489"/>
 <path fill="none" stroke="rgb(179,179,179)" stroke-linejoin="round" d="M 16102,11639 L 16102,11489"/>
 <path fill="none" stroke="rgb(179,179,179)" stroke-linejoin="round" d="M 18355,11639 L 18355,11489"/>
 <path fill="none" stroke="rgb(179,179,179)" stroke-linejoin="round" d="M 2585,11489 L 18355,11489"/>
 <path fill="none" stroke="rgb(179,179,179)" stroke-linejoin="round" d="M 2435,11489 L 2585,11489"/>
 <path fill="none" stroke="rgb(179,179,179)" stroke-linejoin="round" d="M 2435,9214 L 2585,9214"/>
 <path fill="none" stroke="rgb(179,179,179)" stroke-linejoin="round" d="M 2435,6940 L 2585,6940"/>
 <path fill="none" stroke="rgb(179,179,179)" stroke-linejoin="round" d="M 2435,4665 L 2585,4665"/>
 <path fill="none" stroke="rgb(179,179,179)" stroke-linejoin="round" d="M 2435,2390 L 2585,2390"/>
 <path fill="none" stroke="rgb(179,179,179)" stroke-linejoin="round" d="M 2585,11489 L 2585,2390"/>
 <path fill="rgb(0,69,134)" stroke="none" d="M 16327,11489 L 16777,11489 16777,11039 16327,11039 16327,11489 Z"/>
 <path fill="rgb(0,69,134)" stroke="none" d="M 14074,11489 L 14524,11489 14524,10408 14074,10408 14074,11489 Z"/>
 <path fill="rgb(0,69,134)" stroke="none" d="M 11821,11489 L 12271,11489 12271,9731 11821,9731 11821,11489 Z"/>
 <path fill="rgb(0,69,134)" stroke="none" d="M 9569,11489 L 10019,11489 10019,9833 9569,9833 9569,11489 Z"/>
 <path fill="rgb(0,69,134)" stroke="none" d="M 7316,11489 L 7766,11489 7766,9890 7316,9890 7316,11489 Z"/>
 <path fill="rgb(0,69,134)" stroke="none" d="M 5063,11489 L 5513,11489 5513,9913 5063,9913 5063,11489 Z"/>
 <path fill="rgb(0,69,134)" stroke="none" d="M 2810,11489 L 3260,11489 3260,5887 2810,5887 2810,11489 Z"/>
 <path fill="rgb(255,66,14)" stroke="none" d="M 16777,11489 L 17228,11489 17228,10505 16777,10505 16777,11489 Z"/>
 <path fill="rgb(255,66,14)" stroke="none" d="M 14524,11489 L 14975,11489 14975,10846 14524,10846 14524,11489 Z"/>
 <path fill="rgb(255,66,14)" stroke="none" d="M 12271,11489 L 12722,11489 12722,10368 12271,10368 12271,11489 Z"/>
 <path fill="rgb(255,66,14)" stroke="none" d="M 10019,11489 L 10469,11489 10469,10271 10019,10271 10019,11489 Z"/>
 <path fill="rgb(255,66,14)" stroke="none" d="M 7766,11489 L 8217,11489 8217,10795 7766,10795 7766,11489 Z"/>
 <path fill="rgb(255,66,14)" stroke="none" d="M 5513,11489 L 5964,11489 5964,10379 5513,10379 5513,11489 Z"/>
 <path fill="rgb(255,66,14)" stroke="none" d="M 3260,11489 L 3711,11489 3711,9805 3260,9805 3260,11489 Z"/>
 <path fill="rgb(255,211,32)" stroke="none" d="M 17228,11489 L 17679,11489 17679,10550 17228,10550 17228,11489 Z"/>
 <path fill="rgb(255,211,32)" stroke="none" d="M 14975,11489 L 15426,11489 15426,10601 14975,10601 14975,11489 Z"/>
 <path fill="rgb(255,211,32)" stroke="none" d="M 12722,11489 L 13173,11489 13173,8941 12722,8941 12722,11489 Z"/>
 <path fill="rgb(255,211,32)" stroke="none" d="M 10469,11489 L 10920,11489 10920,9651 10469,9651 10469,11489 Z"/>
 <path fill="rgb(255,211,32)" stroke="none" d="M 8217,11489 L 8668,11489 8668,10283 8217,10283 8217,11489 Z"/>
 <path fill="rgb(255,211,32)" stroke="none" d="M 5964,11489 L 6415,11489 6415,9811 5964,9811 5964,11489 Z"/>
 <path fill="rgb(255,211,32)" stroke="none" d="M 3711,11489 L 4162,11489 4162,6576 3711,6576 3711,11489 Z"/>
 <path fill="rgb(87,157,28)" stroke="none" d="M 17679,11489 L 18129,11489 18129,10044 17679,10044 17679,11489 Z"/>
 <path fill="rgb(87,157,28)" stroke="none" d="M 15426,11489 L 15876,11489 15876,10624 15426,10624 15426,11489 Z"/>
 <path fill="rgb(87,157,28)" stroke="none" d="M 13173,11489 L 13623,11489 13623,9833 13173,9833 13173,11489 Z"/>
 <path fill="rgb(87,157,28)" stroke="none" d="M 10920,11489 L 11370,11489 11370,9799 10920,9799 10920,11489 Z"/>
 <path fill="rgb(87,157,28)" stroke="none" d="M 8668,11489 L 9118,11489 9118,10055 8668,10055 8668,11489 Z"/>
 <path fill="rgb(87,157,28)" stroke="none" d="M 6415,11489 L 6865,11489 6865,9902 6415,9902 6415,11489 Z"/>
 <path fill="rgb(87,157,28)" stroke="none" d="M 4162,11489 L 4612,11489 4612,2390 4162,2390 4162,11489 Z"/>
 <path fill="none" stroke="rgb(0,0,0)" stroke-linejoin="round" d="M 3035,7525 L 3035,5887 3035,4249"/>
 <path fill="none" stroke="rgb(0,0,0)" stroke-linejoin="round" d="M 3135,7525 L 2935,7525"/>
 <path fill="none" stroke="rgb(0,0,0)" stroke-linejoin="round" d="M 2935,4249 L 3135,4249"/>
 <path fill="none" stroke="rgb(0,0,0)" stroke-linejoin="round" d="M 5288,10236 L 5288,9913 5288,9590"/>
 <path fill="none" stroke="rgb(0,0,0)" stroke-linejoin="round" d="M 5388,10236 L 5188,10236"/>
 <path fill="none" stroke="rgb(0,0,0)" stroke-linejoin="round" d="M 5188,9590 L 5388,9590"/>
 <path fill="none" stroke="rgb(0,0,0)" stroke-linejoin="round" d="M 7541,10280 L 7541,9890 7541,9500"/>
 <path fill="none" stroke="rgb(0,0,0)" stroke-linejoin="round" d="M 7641,10280 L 7441,10280"/>
 <path fill="none" stroke="rgb(0,0,0)" stroke-linejoin="round" d="M 7441,9500 L 7641,9500"/>
 <path fill="none" stroke="rgb(0,0,0)" stroke-linejoin="round" d="M 9794,9978 L 9794,9833 9794,9689"/>
 <path fill="none" stroke="rgb(0,0,0)" stroke-linejoin="round" d="M 9894,9978 L 9694,9978"/>
 <path fill="none" stroke="rgb(0,0,0)" stroke-linejoin="round" d="M 9694,9689 L 9894,9689"/>
 <path fill="none" stroke="rgb(0,0,0)" stroke-linejoin="round" d="M 12046,10389 L 12046,9731 12046,9073"/>
 <path fill="none" stroke="rgb(0,0,0)" stroke-linejoin="round" d="M 12146,10389 L 11946,10389"/>
 <path fill="none" stroke="rgb(0,0,0)" stroke-linejoin="round" d="M 11946,9073 L 12146,9073"/>
 <path fill="none" stroke="rgb(0,0,0)" stroke-linejoin="round" d="M 14299,10452 L 14299,10408 14299,10363"/>
 <path fill="none" stroke="rgb(0,0,0)" stroke-linejoin="round" d="M 14399,10452 L 14199,10452"/>
 <path fill="none" stroke="rgb(0,0,0)" stroke-linejoin="round" d="M 14199,10363 L 14399,10363"/>
 <path fill="none" stroke="rgb(0,0,0)" stroke-linejoin="round" d="M 16552,11050 L 16552,11039 16552,11028"/>
 <path fill="none" stroke="rgb(0,0,0)" stroke-linejoin="round" d="M 16652,11050 L 16452,11050"/>
 <path fill="none" stroke="rgb(0,0,0)" stroke-linejoin="round" d="M 16452,11028 L 16652,11028"/>
 <path fill="none" stroke="rgb(0,0,0)" stroke-linejoin="round" d="M 3486,10385 L 3486,9805 3486,9225"/>
 <path fill="none" stroke="rgb(0,0,0)" stroke-linejoin="round" d="M 3586,10385 L 3386,10385"/>
 <path fill="none" stroke="rgb(0,0,0)" stroke-linejoin="round" d="M 3386,9225 L 3586,9225"/>
 <path fill="none" stroke="rgb(0,0,0)" stroke-linejoin="round" d="M 5739,10547 L 5739,10379 5739,10212"/>
 <path fill="none" stroke="rgb(0,0,0)" stroke-linejoin="round" d="M 5839,10547 L 5639,10547"/>
 <path fill="none" stroke="rgb(0,0,0)" stroke-linejoin="round" d="M 5639,10212 L 5839,10212"/>
 <path fill="none" stroke="rgb(0,0,0)" stroke-linejoin="round" d="M 7992,10906 L 7992,10795 7992,10683"/>
 <path fill="none" stroke="rgb(0,0,0)" stroke-linejoin="round" d="M 8092,10906 L 7892,10906"/>
 <path fill="none" stroke="rgb(0,0,0)" stroke-linejoin="round" d="M 7892,10683 L 8092,10683"/>
 <path fill="none" stroke="rgb(0,0,0)" stroke-linejoin="round" d="M 10244,10361 L 10244,10271 10244,10182"/>
 <path fill="none" stroke="rgb(0,0,0)" stroke-linejoin="round" d="M 10344,10361 L 10144,10361"/>
 <path fill="none" stroke="rgb(0,0,0)" stroke-linejoin="round" d="M 10144,10182 L 10344,10182"/>
 <path fill="none" stroke="rgb(0,0,0)" stroke-linejoin="round" d="M 12497,11160 L 12497,10368 12497,9577"/>
 <path fill="none" stroke="rgb(0,0,0)" stroke-linejoin="round" d="M 12597,11160 L 12397,11160"/>
 <path fill="none" stroke="rgb(0,0,0)" stroke-linejoin="round" d="M 12397,9577 L 12597,9577"/>
 <path fill="none" stroke="rgb(0,0,0)" stroke-linejoin="round" d="M 14750,11489 L 14750,10846 14750,9943"/>
 <path fill="none" stroke="rgb(0,0,0)" stroke-linejoin="round" d="M 14650,9943 L 14850,9943"/>
 <path fill="none" stroke="rgb(0,0,0)" stroke-linejoin="round" d="M 17003,11095 L 17003,10505 17003,9914"/>
 <path fill="none" stroke="rgb(0,0,0)" stroke-linejoin="round" d="M 17103,11095 L 16903,11095"/>
 <path fill="none" stroke="rgb(0,0,0)" stroke-linejoin="round" d="M 16903,9914 L 17103,9914"/>
 <path fill="none" stroke="rgb(0,0,0)" stroke-linejoin="round" d="M 3936,7630 L 3936,6576 3936,5520"/>
 <path fill="none" stroke="rgb(0,0,0)" stroke-linejoin="round" d="M 4036,7630 L 3836,7630"/>
 <path fill="none" stroke="rgb(0,0,0)" stroke-linejoin="round" d="M 3836,5520 L 4036,5520"/>
 <path fill="none" stroke="rgb(0,0,0)" stroke-linejoin="round" d="M 6189,10147 L 6189,9811 6189,9474"/>
 <path fill="none" stroke="rgb(0,0,0)" stroke-linejoin="round" d="M 6289,10147 L 6089,10147"/>
 <path fill="none" stroke="rgb(0,0,0)" stroke-linejoin="round" d="M 6089,9474 L 6289,9474"/>
 <path fill="none" stroke="rgb(0,0,0)" stroke-linejoin="round" d="M 8442,10410 L 8442,10283 8442,10155"/>
 <path fill="none" stroke="rgb(0,0,0)" stroke-linejoin="round" d="M 8542,10410 L 8342,10410"/>
 <path fill="none" stroke="rgb(0,0,0)" stroke-linejoin="round" d="M 8342,10155 L 8542,10155"/>
 <path fill="none" stroke="rgb(0,0,0)" stroke-linejoin="round" d="M 10694,10116 L 10694,9651 10694,9187"/>
 <path fill="none" stroke="rgb(0,0,0)" stroke-linejoin="round" d="M 10794,10116 L 10594,10116"/>
 <path fill="none" stroke="rgb(0,0,0)" stroke-linejoin="round" d="M 10594,9187 L 10794,9187"/>
 <path fill="none" stroke="rgb(0,0,0)" stroke-linejoin="round" d="M 12947,9559 L 12947,8941 12947,8322"/>
 <path fill="none" stroke="rgb(0,0,0)" stroke-linejoin="round" d="M 13047,9559 L 12847,9559"/>
 <path fill="none" stroke="rgb(0,0,0)" stroke-linejoin="round" d="M 12847,8322 L 13047,8322"/>
 <path fill="none" stroke="rgb(0,0,0)" stroke-linejoin="round" d="M 15200,11129 L 15200,10601 15200,10073"/>
 <path fill="none" stroke="rgb(0,0,0)" stroke-linejoin="round" d="M 15300,11129 L 15100,11129"/>
 <path fill="none" stroke="rgb(0,0,0)" stroke-linejoin="round" d="M 15100,10073 L 15300,10073"/>
 <path fill="none" stroke="rgb(0,0,0)" stroke-linejoin="round" d="M 17453,11488 L 17453,10550 17453,9613"/>
 <path fill="none" stroke="rgb(0,0,0)" stroke-linejoin="round" d="M 17553,11488 L 17353,11488"/>
 <path fill="none" stroke="rgb(0,0,0)" stroke-linejoin="round" d="M 17353,9613 L 17553,9613"/>
 <path fill="none" stroke="rgb(0,0,0)" stroke-linejoin="round" d="M 4387,2390 L 4387,2390 Z"/>
 <path fill="none" stroke="rgb(0,0,0)" stroke-linejoin="round" d="M 6640,9929 L 6640,9902 6640,9874"/>
 <path fill="none" stroke="rgb(0,0,0)" stroke-linejoin="round" d="M 6740,9929 L 6540,9929"/>
 <path fill="none" stroke="rgb(0,0,0)" stroke-linejoin="round" d="M 6540,9874 L 6740,9874"/>
 <path fill="none" stroke="rgb(0,0,0)" stroke-linejoin="round" d="M 8893,10274 L 8893,10055 8893,9837"/>
 <path fill="none" stroke="rgb(0,0,0)" stroke-linejoin="round" d="M 8993,10274 L 8793,10274"/>
 <path fill="none" stroke="rgb(0,0,0)" stroke-linejoin="round" d="M 8793,9837 L 8993,9837"/>
 <path fill="none" stroke="rgb(0,0,0)" stroke-linejoin="round" d="M 11145,9827 L 11145,9799 11145,9772"/>
 <path fill="none" stroke="rgb(0,0,0)" stroke-linejoin="round" d="M 11245,9827 L 11045,9827"/>
 <path fill="none" stroke="rgb(0,0,0)" stroke-linejoin="round" d="M 11045,9772 L 11245,9772"/>
 <path fill="none" stroke="rgb(0,0,0)" stroke-linejoin="round" d="M 13398,10461 L 13398,9833 13398,9205"/>
 <path fill="none" stroke="rgb(0,0,0)" stroke-linejoin="round" d="M 13498,10461 L 13298,10461"/>
 <path fill="none" stroke="rgb(0,0,0)" stroke-linejoin="round" d="M 13298,9205 L 13498,9205"/>
 <path fill="none" stroke="rgb(0,0,0)" stroke-linejoin="round" d="M 15651,10879 L 15651,10624 15651,10369"/>
 <path fill="none" stroke="rgb(0,0,0)" stroke-linejoin="round" d="M 15751,10879 L 15551,10879"/>
 <path fill="none" stroke="rgb(0,0,0)" stroke-linejoin="round" d="M 15551,10369 L 15751,10369"/>
 <path fill="none" stroke="rgb(0,0,0)" stroke-linejoin="round" d="M 17904,11409 L 17904,10044 17904,8679"/>
 <path fill="none" stroke="rgb(0,0,0)" stroke-linejoin="round" d="M 18004,11409 L 17804,11409"/>
 <path fill="none" stroke="rgb(0,0,0)" stroke-linejoin="round" d="M 17804,8679 L 18004,8679"/>
 <text class="TextShape" transform="translate(3326,12432) rotate(-44.9) translate(-3326,-12432)"><tspan class="TextParagraph" font-family="Arial" font-size="353px" font-weight="400"><tspan class="TextPosition" x="3326" y="12432"><tspan fill="rgb(33,33,33)" stroke="none">KLE</tspan></tspan></tspan></text>
 <text class="TextShape" transform="translate(5543,12469) rotate(-44.9) translate(-5543,-12469)"><tspan class="TextParagraph" font-family="Arial" font-size="353px" font-weight="400"><tspan class="TextPosition" x="5543" y="12469"><tspan fill="rgb(33,33,33)" stroke="none">PRR</tspan></tspan></tspan></text>
 <text class="TextShape" transform="translate(7664,12600) rotate(-44.9) translate(-7664,-12600)"><tspan class="TextParagraph" font-family="Arial" font-size="353px" font-weight="400"><tspan class="TextPosition" x="7664" y="12600"><tspan fill="rgb(33,33,33)" stroke="none">PRR2</tspan></tspan></tspan></text>
 <text class="TextShape" transform="translate(10104,12414) rotate(-44.9) translate(-10104,-12414)"><tspan class="TextParagraph" font-family="Arial" font-size="353px" font-weight="400"><tspan class="TextPosition" x="10104" y="12414"><tspan fill="rgb(33,33,33)" stroke="none">LQL</tspan></tspan></tspan></text>
 <text class="TextShape" transform="translate(10299,14472) rotate(-44.9) translate(-10299,-14472)"><tspan class="TextParagraph" font-family="Arial" font-size="353px" font-weight="400"><tspan class="TextPosition" x="10299" y="14472"><tspan fill="rgb(33,33,33)" stroke="none">LQR3 sem time control</tspan></tspan></tspan></text>
 <text class="TextShape" transform="translate(12552,14472) rotate(-44.9) translate(-12552,-14472)"><tspan class="TextParagraph" font-family="Arial" font-size="353px" font-weight="400"><tspan class="TextPosition" x="12552" y="14472"><tspan fill="rgb(33,33,33)" stroke="none">LQR3 com time control</tspan></tspan></tspan></text>
 <text class="TextShape" transform="translate(16095,13180) rotate(-44.9) translate(-16095,-13180)"><tspan class="TextParagraph" font-family="Arial" font-size="353px" font-weight="400"><tspan class="TextPosition" x="16095" y="13180"><tspan fill="rgb(33,33,33)" stroke="none">MAX GAIN</tspan></tspan></tspan></text>
 <text class="TextShape"><tspan class="TextParagraph" font-family="Arial" font-size="353px" font-weight="400"><tspan class="TextPosition" x="1382" y="11610"><tspan fill="rgb(33,33,33)" stroke="none">1,000 </tspan></tspan></tspan></text>
 <text class="TextShape"><tspan class="TextParagraph" font-family="Arial" font-size="353px" font-weight="400"><tspan class="TextPosition" x="1382" y="9335"><tspan fill="rgb(33,33,33)" stroke="none">3,000 </tspan></tspan></tspan></text>
 <text class="TextShape"><tspan class="TextParagraph" font-family="Arial" font-size="353px" font-weight="400"><tspan class="TextPosition" x="1382" y="7060"><tspan fill="rgb(33,33,33)" stroke="none">5,000 </tspan></tspan></tspan></text>
 <text class="TextShape"><tspan class="TextParagraph" font-family="Arial" font-size="353px" font-weight="400"><tspan class="TextPosition" x="1382" y="4785"><tspan fill="rgb(33,33,33)" stroke="none">7,000 </tspan></tspan></tspan></text>
 <text class="TextShape"><tspan class="TextParagraph" font-family="Arial" font-size="353px" font-weight="400"><tspan class="TextPosition" x="1382" y="2510"><tspan fill="rgb(33,33,33)" stroke="none">9,000 </tspan></tspan></tspan></text>
 <text class="TextShape"><tspan class="TextParagraph" font-family="Liberation Sans" font-size="353px" font-weight="400"><tspan class="TextPosition" x="3963" y="2212"><tspan fill="rgb(0,0,0)" stroke="none">22,35</tspan></tspan></tspan></text>
 <text class="TextShape"><tspan class="TextParagraph" font-family="Arial" font-size="459px" font-weight="400"><tspan class="TextPosition" x="6157" y="974"><tspan fill="rgb(33,33,33)" stroke="none">Relação transmissões / pacote recebido</tspan></tspan></tspan><tspan class="TextParagraph" font-family="Arial" font-size="459px" font-weight="400"><tspan class="TextPosition" x="4543" y="1477"><tspan fill="rgb(33,33,33)" stroke="none">Multiple sender - Regular TX 500ms - sem ruído artificial</tspan></tspan></tspan></text>
 <path fill="rgb(255,255,255)" stroke="none" d="M 19433,8561 L 18763,8561 18763,6470 20102,6470 20102,8561 19433,8561 Z"/>
 <path fill="none" stroke="rgb(0,0,0)" stroke-linejoin="round" d="M 19433,8561 L 18763,8561 18763,6470 20102,6470 20102,8561 19433,8561 Z"/>
 <path fill="rgb(0,69,134)" stroke="none" d="M 18985,6874 L 18879,6874 18879,6663 19090,6663 19090,6874 18985,6874 Z"/>
 <path fill="rgb(255,66,14)" stroke="none" d="M 18985,7372 L 18879,7372 18879,7161 19090,7161 19090,7372 18985,7372 Z"/>
 <path fill="rgb(255,211,32)" stroke="none" d="M 18985,7869 L 18879,7869 18879,7658 19090,7658 19090,7869 18985,7869 Z"/>
 <path fill="rgb(87,157,28)" stroke="none" d="M 18985,8367 L 18879,8367 18879,8156 19090,8156 19090,8367 18985,8367 Z"/>
 <text class="TextShape"><tspan class="TextParagraph" font-family="Liberation Sans" font-size="353px" font-weight="400"><tspan class="TextPosition" x="19190" y="6888"><tspan fill="rgb(0,0,0)" stroke="none">No12</tspan></tspan></tspan></text>
 <text class="TextShape"><tspan class="TextParagraph" font-family="Liberation Sans" font-size="353px" font-weight="400"><tspan class="TextPosition" x="19190" y="7386"><tspan fill="rgb(0,0,0)" stroke="none">No14</tspan></tspan></tspan></text>
 <text class="TextShape"><tspan class="TextParagraph" font-family="Liberation Sans" font-size="353px" font-weight="400"><tspan class="TextPosition" x="19190" y="7883"><tspan fill="rgb(0,0,0)" stroke="none">No16</tspan></tspan></tspan></text>
 <text class="TextShape"><tspan class="TextParagraph" font-family="Liberation Sans" font-size="353px" font-weight="400"><tspan class="TextPosition" x="19190" y="8381"><tspan fill="rgb(0,0,0)" stroke="none">No18</tspan></tspan></tspan></text>
 <text class="TextShape" transform="translate(801,8968) rotate(-90) translate(-801,-8968)"><tspan class="TextParagraph" font-family="Arial" font-size="318px" font-weight="400"><tspan class="TextPosition" x="801" y="8968"><tspan fill="rgb(33,33,33)" stroke="none">Relação</tspan></tspan></tspan></text>
</svg>