<?xml version="1.0" encoding="UTF-8"?>
<!DOCTYPE svg PUBLIC "-//W3C//DTD SVG 1.1//EN" "http://www.w3.org/Graphics/SVG/1.1/DTD/svg11.dtd">
<svg width="179mm" height="150mm" viewBox="0 0 17900 15000" version="1.1" xmlns="http://www.w3.org/2000/svg" stroke-width="28.222" stroke-linejoin="round" xml:space="preserve">
 <path fill="rgb(114,159,207)" stroke="none" d="M -18,8 L 17914,8 17914,15004 -18,15004 -18,8 Z"/>
 <path fill="none" stroke="rgb(52,101,164)" stroke-linejoin="round" d="M -18,8 L 17914,8 17914,15004 -18,15004 -18,8 Z"/>
 <path fill="rgb(255,255,255)" stroke="none" d="M 8967,14997 L 1,14997 1,1 17933,1 17933,14997 8967,14997 Z"/>
 <path fill="none" stroke="rgb(179,179,179)" stroke-linejoin="round" d="M 10074,11660 L 2574,11660 2574,2017 17575,2017 17575,11660 10074,11660 Z"/>
 <path fill="none" stroke="rgb(179,179,179)" stroke-linejoin="round" d="M 17575,11659 L 2574,11659"/>
 <path fill="none" stroke="rgb(179,179,179)" stroke-linejoin="round" d="M 17575,10103 L 2574,10103"/>
 <path fill="none" stroke="rgb(179,179,179)" stroke-linejoin="round" d="M 17575,8548 L 2574,8548"/>
 <path fill="none" stroke="rgb(179,179,179)" stroke-linejoin="round" d="M 17575,6993 L 2574,6993"/>
 <path fill="none" stroke="rgb(179,179,179)" stroke-linejoin="round" d="M 17575,5438 L 2574,5438"/>
 <path fill="none" stroke="rgb(179,179,179)" stroke-linejoin="round" d="M 17575,3882 L 2574,3882"/>
 <path fill="none" stroke="rgb(179,179,179)" stroke-linejoin="round" d="M 17575,2327 L 2574,2327"/>
 <path fill="none" stroke="rgb(179,179,179)" stroke-linejoin="round" d="M 2574,11809 L 2574,11659"/>
 <path fill="none" stroke="rgb(179,179,179)" stroke-linejoin="round" d="M 4717,11809 L 4717,11659"/>
 <path fill="none" stroke="rgb(179,179,179)" stroke-linejoin="round" d="M 6860,11809 L 6860,11659"/>
 <path fill="none" stroke="rgb(179,179,179)" stroke-linejoin="round" d="M 9002,11809 L 9002,11659"/>
 <path fill="none" stroke="rgb(179,179,179)" stroke-linejoin="round" d="M 11145,11809 L 11145,11659"/>
 <path fill="none" stroke="rgb(179,179,179)" stroke-linejoin="round" d="M 13288,11809 L 13288,11659"/>
 <path fill="none" stroke="rgb(179,179,179)" stroke-linejoin="round" d="M 15431,11809 L 15431,11659"/>
 <path fill="none" stroke="rgb(179,179,179)" stroke-linejoin="round" d="M 17575,11809 L 17575,11659"/>
 <path fill="none" stroke="rgb(179,179,179)" stroke-linejoin="round" d="M 2574,11659 L 17575,11659"/>
 <path fill="none" stroke="rgb(179,179,179)" stroke-linejoin="round" d="M 2424,11659 L 2574,11659"/>
 <path fill="none" stroke="rgb(179,179,179)" stroke-linejoin="round" d="M 2424,10103 L 2574,10103"/>
 <path fill="none" stroke="rgb(179,179,179)" stroke-linejoin="round" d="M 2424,8548 L 2574,8548"/>
 <path fill="none" stroke="rgb(179,179,179)" stroke-linejoin="round" d="M 2424,6993 L 2574,6993"/>
 <path fill="none" stroke="rgb(179,179,179)" stroke-linejoin="round" d="M 2424,5438 L 2574,5438"/>
 <path fill="none" stroke="rgb(179,179,179)" stroke-linejoin="round" d="M 2424,3882 L 2574,3882"/>
 <path fill="none" stroke="rgb(179,179,179)" stroke-linejoin="round" d="M 2424,2327 L 2574,2327"/>
 <path fill="none" stroke="rgb(179,179,179)" stroke-linejoin="round" d="M 2574,11659 L 2574,2016"/>
 <path fill="rgb(0,69,134)" stroke="none" d="M 15967,11659 L 17039,11659 17039,11083 15967,11083 15967,11659 Z"/>
 <path fill="rgb(0,69,134)" stroke="none" d="M 13824,11659 L 14896,11659 14896,9932 13824,9932 13824,11659 Z"/>
 <path fill="rgb(0,69,134)" stroke="none" d="M 11681,11659 L 12752,11659 12752,10647 11681,10647 11681,11659 Z"/>
 <path fill="rgb(0,69,134)" stroke="none" d="M 9538,11659 L 10609,11659 10609,9722 9538,9722 9538,11659 Z"/>
 <path fill="rgb(0,69,134)" stroke="none" d="M 7396,11659 L 8467,11659 8467,9932 7396,9932 7396,11659 Z"/>
 <path fill="rgb(0,69,134)" stroke="none" d="M 5252,11659 L 6324,11659 6324,9784 5252,9784 5252,11659 Z"/>
 <path fill="rgb(0,69,134)" stroke="none" d="M 3109,11659 L 4181,11659 4181,2778 3109,2778 3109,11659 Z"/>
 <path fill="none" stroke="rgb(0,0,0)" stroke-linejoin="round" d="M 3645,3263 L 3645,2778 3645,2292"/>
 <path fill="none" stroke="rgb(0,0,0)" stroke-linejoin="round" d="M 3745,3263 L 3545,3263"/>
 <path fill="none" stroke="rgb(0,0,0)" stroke-linejoin="round" d="M 3545,2292 L 3745,2292"/>
 <path fill="none" stroke="rgb(0,0,0)" stroke-linejoin="round" d="M 5788,9855 L 5788,9784 5788,9713"/>
 <path fill="none" stroke="rgb(0,0,0)" stroke-linejoin="round" d="M 5888,9855 L 5688,9855"/>
 <path fill="none" stroke="rgb(0,0,0)" stroke-linejoin="round" d="M 5688,9713 L 5888,9713"/>
 <path fill="none" stroke="rgb(0,0,0)" stroke-linejoin="round" d="M 7931,9942 L 7931,9932 7931,9922"/>
 <path fill="none" stroke="rgb(0,0,0)" stroke-linejoin="round" d="M 8031,9942 L 7831,9942"/>
 <path fill="none" stroke="rgb(0,0,0)" stroke-linejoin="round" d="M 7831,9922 L 8031,9922"/>
 <path fill="none" stroke="rgb(0,0,0)" stroke-linejoin="round" d="M 10074,9768 L 10074,9722 10074,9675"/>
 <path fill="none" stroke="rgb(0,0,0)" stroke-linejoin="round" d="M 10174,9768 L 9974,9768"/>
 <path fill="none" stroke="rgb(0,0,0)" stroke-linejoin="round" d="M 9974,9675 L 10174,9675"/>
 <path fill="none" stroke="rgb(0,0,0)" stroke-linejoin="round" d="M 12217,10721 L 12217,10647 12217,10574"/>
 <path fill="none" stroke="rgb(0,0,0)" stroke-linejoin="round" d="M 12317,10721 L 12117,10721"/>
 <path fill="none" stroke="rgb(0,0,0)" stroke-linejoin="round" d="M 12117,10574 L 12317,10574"/>
 <path fill="none" stroke="rgb(0,0,0)" stroke-linejoin="round" d="M 14360,9986 L 14360,9932 14360,9878"/>
 <path fill="none" stroke="rgb(0,0,0)" stroke-linejoin="round" d="M 14460,9986 L 14260,9986"/>
 <path fill="none" stroke="rgb(0,0,0)" stroke-linejoin="round" d="M 14260,9878 L 14460,9878"/>
 <path fill="none" stroke="rgb(0,0,0)" stroke-linejoin="round" d="M 16503,11144 L 16503,11083 16503,11022"/>
 <path fill="none" stroke="rgb(0,0,0)" stroke-linejoin="round" d="M 16603,11144 L 16403,11144"/>
 <path fill="none" stroke="rgb(0,0,0)" stroke-linejoin="round" d="M 16403,11022 L 16603,11022"/>
 <text class="TextShape" transform="translate(3260,12602) rotate(-44.9) translate(-3260,-12602)"><tspan class="TextParagraph" font-family="Arial" font-size="353px" font-weight="400"><tspan class="TextPosition" x="3260" y="12602"><tspan fill="rgb(33,33,33)" stroke="none">KLE</tspan></tspan></tspan></text>
 <text class="TextShape" transform="translate(5367,12639) rotate(-44.9) translate(-5367,-12639)"><tspan class="TextParagraph" font-family="Arial" font-size="353px" font-weight="400"><tspan class="TextPosition" x="5367" y="12639"><tspan fill="rgb(33,33,33)" stroke="none">PRR</tspan></tspan></tspan></text>
 <text class="TextShape" transform="translate(7378,12770) rotate(-44.9) translate(-7378,-12770)"><tspan class="TextParagraph" font-family="Arial" font-size="353px" font-weight="400"><tspan class="TextPosition" x="7378" y="12770"><tspan fill="rgb(33,33,33)" stroke="none">PRR2</tspan></tspan></tspan></text>
 <text class="TextShape" transform="translate(9709,12584) rotate(-44.9) translate(-9709,-12584)"><tspan class="TextParagraph" font-family="Arial" font-size="353px" font-weight="400"><tspan class="TextPosition" x="9709" y="12584"><tspan fill="rgb(33,33,33)" stroke="none">LQL</tspan></tspan></tspan></text>
 <text class="TextShape" transform="translate(9794,14642) rotate(-44.9) translate(-9794,-14642)"><tspan class="TextParagraph" font-family="Arial" font-size="353px" font-weight="400"><tspan class="TextPosition" x="9794" y="14642"><tspan fill="rgb(33,33,33)" stroke="none">LQR3 sem time control</tspan></tspan></tspan></text>
 <text class="TextShape" transform="translate(11937,14642) rotate(-44.9) translate(-11937,-14642)"><tspan class="TextParagraph" font-family="Arial" font-size="353px" font-weight="400"><tspan class="TextPosition" x="11937" y="14642"><tspan fill="rgb(33,33,33)" stroke="none">LQR3 com time control</tspan></tspan></tspan></text>
 <text class="TextShape" transform="translate(15370,13350) rotate(-44.9) translate(-15370,-13350)"><tspan class="TextParagraph" font-family="Arial" font-size="353px" font-weight="400"><tspan class="TextPosition" x="15370" y="13350"><tspan fill="rgb(33,33,33)" stroke="none">MAX GAIN</tspan></tspan></tspan></text>
 <text class="TextShape"><tspan class="TextParagraph" font-family="Arial" font-size="353px" font-weight="400"><tspan class="TextPosition" x="1371" y="11780"><tspan fill="rgb(33,33,33)" stroke="none">1,000 </tspan></tspan></tspan></text>
 <text class="TextShape"><tspan class="TextParagraph" font-family="Arial" font-size="353px" font-weight="400"><tspan class="TextPosition" x="1371" y="10224"><tspan fill="rgb(33,33,33)" stroke="none">2,000 </tspan></tspan></tspan></text>
 <text class="TextShape"><tspan class="TextParagraph" font-family="Arial" font-size="353px" font-weight="400"><tspan class="TextPosition" x="1371" y="8669"><tspan fill="rgb(33,33,33)" stroke="none">3,000 </tspan></tspan></tspan></text>
 <text class="TextShape"><tspan class="TextParagraph" font-family="Arial" font-size="353px" font-weight="400"><tspan class="TextPosition" x="1371" y="7113"><tspan fill="rgb(33,33,33)" stroke="none">4,000 </tspan></tspan></tspan></text>
 <text class="TextShape"><tspan class="TextParagraph" font-family="Arial" font-size="353px" font-weight="400"><tspan class="TextPosition" x="1371" y="5558"><tspan fill="rgb(33,33,33)" stroke="none">5,000 </tspan></tspan></tspan></text>
 <text class="TextShape"><tspan class="TextParagraph" font-family="Arial" font-size="353px" font-weight="400"><tspan class="TextPosition" x="1371" y="4002"><tspan fill="rgb(33,33,33)" stroke="none">6,000 </tspan></tspan></tspan></text>
 <text class="TextShape"><tspan class="TextParagraph" font-family="Arial" font-size="353px" font-weight="400"><tspan class="TextPosition" x="1371" y="2447"><tspan fill="rgb(33,33,33)" stroke="none">7,000 </tspan></tspan></tspan></text>
 <text class="TextShape"><tspan class="TextParagraph" font-family="Arial" font-size="459px" font-weight="400"><tspan class="TextPosition" x="4985" y="970"><tspan fill="rgb(33,33,33)" stroke="none">Relação transmissões / pacote recebido</tspan></tspan></tspan><tspan class="TextParagraph" font-family="Arial" font-size="459px" font-weight="400"><tspan class="TextPosition" x="3860" y="1473"><tspan fill="rgb(33,33,33)" stroke="none">Single sender - Regular 500ms - sem ruído artificial</tspan></tspan></tspan></text>
 <text class="TextShape" transform="translate(838,8966) rotate(-90) translate(-838,-8966)"><tspan class="TextParagraph" font-family="Arial" font-size="318px" font-weight="400"><tspan class="TextPosition" x="838" y="8966"><tspan fill="rgb(33,33,33)" stroke="none">Relação</tspan></tspan></tspan></text>
</svg>