<?xml version="1.0" encoding="UTF-8"?>
<!DOCTYPE svg PUBLIC "-//W3C//DTD SVG 1.1//EN" "http://www.w3.org/Graphics/SVG/1.1/DTD/svg11.dtd">
<svg width="195mm" height="145mm" viewBox="0 0 19500 14500" version="1.1" xmlns="http://www.w3.org/2000/svg" stroke-width="28.222" stroke-linejoin="round" xml:space="preserve">
 <path fill="rgb(114,159,207)" stroke="none" d="M -18,8 L 19474,8 19474,14517 -18,14517 -18,8 Z"/>
 <path fill="none" stroke="rgb(52,101,164)" stroke-linejoin="round" d="M -18,8 L 19474,8 19474,14517 -18,14517 -18,8 Z"/>
 <path fill="rgb(255,255,255)" stroke="none" d="M 9747,14510 L 1,14510 1,1 19493,1 19493,14510 9747,14510 Z"/>
 <path fill="none" stroke="rgb(179,179,179)" stroke-linejoin="round" d="M 11052,10983 L 3001,10983 3001,1999 19104,1999 19104,10983 11052,10983 Z"/>
 <path fill="none" stroke="rgb(179,179,179)" stroke-linejoin="round" d="M 19104,10982 L 3001,10982"/>
 <path fill="none" stroke="rgb(179,179,179)" stroke-linejoin="round" d="M 19104,9858 L 3001,9858"/>
 <path fill="none" stroke="rgb(179,179,179)" stroke-linejoin="round" d="M 19104,8735 L 3001,8735"/>
 <path fill="none" stroke="rgb(179,179,179)" stroke-linejoin="round" d="M 19104,7612 L 3001,7612"/>
 <path fill="none" stroke="rgb(179,179,179)" stroke-linejoin="round" d="M 19104,6490 L 3001,6490"/>
 <path fill="none" stroke="rgb(179,179,179)" stroke-linejoin="round" d="M 19104,5367 L 3001,5367"/>
 <path fill="none" stroke="rgb(179,179,179)" stroke-linejoin="round" d="M 19104,4244 L 3001,4244"/>
 <path fill="none" stroke="rgb(179,179,179)" stroke-linejoin="round" d="M 19104,3121 L 3001,3121"/>
 <path fill="none" stroke="rgb(179,179,179)" stroke-linejoin="round" d="M 19104,1998 L 3001,1998"/>
 <path fill="none" stroke="rgb(179,179,179)" stroke-linejoin="round" d="M 3001,11132 L 3001,10982"/>
 <path fill="none" stroke="rgb(179,179,179)" stroke-linejoin="round" d="M 5301,11132 L 5301,10982"/>
 <path fill="none" stroke="rgb(179,179,179)" stroke-linejoin="round" d="M 7602,11132 L 7602,10982"/>
 <path fill="none" stroke="rgb(179,179,179)" stroke-linejoin="round" d="M 9901,11132 L 9901,10982"/>
 <path fill="none" stroke="rgb(179,179,179)" stroke-linejoin="round" d="M 12202,11132 L 12202,10982"/>
 <path fill="none" stroke="rgb(179,179,179)" stroke-linejoin="round" d="M 14502,11132 L 14502,10982"/>
 <path fill="none" stroke="rgb(179,179,179)" stroke-linejoin="round" d="M 16803,11132 L 16803,10982"/>
 <path fill="none" stroke="rgb(179,179,179)" stroke-linejoin="round" d="M 19104,11132 L 19104,10982"/>
 <path fill="none" stroke="rgb(179,179,179)" stroke-linejoin="round" d="M 3001,10982 L 19104,10982"/>
 <path fill="none" stroke="rgb(179,179,179)" stroke-linejoin="round" d="M 2851,10982 L 3001,10982"/>
 <path fill="none" stroke="rgb(179,179,179)" stroke-linejoin="round" d="M 2851,9858 L 3001,9858"/>
 <path fill="none" stroke="rgb(179,179,179)" stroke-linejoin="round" d="M 2851,8735 L 3001,8735"/>
 <path fill="none" stroke="rgb(179,179,179)" stroke-linejoin="round" d="M 2851,7612 L 3001,7612"/>
 <path fill="none" stroke="rgb(179,179,179)" stroke-linejoin="round" d="M 2851,6490 L 3001,6490"/>
 <path fill="none" stroke="rgb(179,179,179)" stroke-linejoin="round" d="M 2851,5367 L 3001,5367"/>
 <path fill="none" stroke="rgb(179,179,179)" stroke-linejoin="round" d="M 2851,4244 L 3001,4244"/>
 <path fill="none" stroke="rgb(179,179,179)" stroke-linejoin="round" d="M 2851,3121 L 3001,3121"/>
 <path fill="none" stroke="rgb(179,179,179)" stroke-linejoin="round" d="M 2851,1998 L 3001,1998"/>
 <path fill="none" stroke="rgb(179,179,179)" stroke-linejoin="round" d="M 3001,10982 L 3001,1998"/>
 <path fill="rgb(255,102,0)" stroke="none" d="M 17378,10982 L 18528,10982 18528,1998 17378,1998 17378,10982 Z"/>
 <path fill="rgb(255,102,0)" stroke="none" d="M 15078,10982 L 16228,10982 16228,2670 15078,2670 15078,10982 Z"/>
 <path fill="rgb(255,102,0)" stroke="none" d="M 12777,10982 L 13927,10982 13927,1998 12777,1998 12777,10982 Z"/>
 <path fill="rgb(255,102,0)" stroke="none" d="M 10476,10982 L 11627,10982 11627,2896 10476,2896 10476,10982 Z"/>
 <path fill="rgb(255,102,0)" stroke="none" d="M 8177,10982 L 9327,10982 9327,2626 8177,2626 8177,10982 Z"/>
 <path fill="rgb(255,102,0)" stroke="none" d="M 5876,10982 L 7027,10982 7027,2984 5876,2984 5876,10982 Z"/>
 <path fill="rgb(255,102,0)" stroke="none" d="M 3576,10982 L 4726,10982 4726,10320 3576,10320 3576,10982 Z"/>
 <path fill="none" stroke="rgb(0,0,0)" stroke-linejoin="round" d="M 4151,10923 L 4151,10320 4151,9717"/>
 <path fill="none" stroke="rgb(0,0,0)" stroke-linejoin="round" d="M 4251,10923 L 4051,10923"/>
 <path fill="none" stroke="rgb(0,0,0)" stroke-linejoin="round" d="M 4051,9717 L 4251,9717"/>
 <path fill="none" stroke="rgb(0,0,0)" stroke-linejoin="round" d="M 6451,3073 L 6451,2984 6451,2894"/>
 <path fill="none" stroke="rgb(0,0,0)" stroke-linejoin="round" d="M 6551,3073 L 6351,3073"/>
 <path fill="none" stroke="rgb(0,0,0)" stroke-linejoin="round" d="M 6351,2894 L 6551,2894"/>
 <path fill="none" stroke="rgb(0,0,0)" stroke-linejoin="round" d="M 8752,2679 L 8752,2626 8752,2574"/>
 <path fill="none" stroke="rgb(0,0,0)" stroke-linejoin="round" d="M 8852,2679 L 8652,2679"/>
 <path fill="none" stroke="rgb(0,0,0)" stroke-linejoin="round" d="M 8652,2574 L 8852,2574"/>
 <path fill="none" stroke="rgb(0,0,0)" stroke-linejoin="round" d="M 11052,3002 L 11052,2896 11052,2790"/>
 <path fill="none" stroke="rgb(0,0,0)" stroke-linejoin="round" d="M 11152,3002 L 10952,3002"/>
 <path fill="none" stroke="rgb(0,0,0)" stroke-linejoin="round" d="M 10952,2790 L 11152,2790"/>
 <path fill="none" stroke="rgb(0,0,0)" stroke-linejoin="round" d="M 13352,2048 L 13352,1998 13352,1998"/>
 <path fill="none" stroke="rgb(0,0,0)" stroke-linejoin="round" d="M 13452,2048 L 13252,2048"/>
 <path fill="none" stroke="rgb(0,0,0)" stroke-linejoin="round" d="M 15653,2776 L 15653,2670 15653,2564"/>
 <path fill="none" stroke="rgb(0,0,0)" stroke-linejoin="round" d="M 15753,2776 L 15553,2776"/>
 <path fill="none" stroke="rgb(0,0,0)" stroke-linejoin="round" d="M 15553,2564 L 15753,2564"/>
 <path fill="none" stroke="rgb(0,0,0)" stroke-linejoin="round" d="M 17953,1998 L 17953,1998 Z"/>
 <path fill="none" stroke="rgb(0,0,0)" stroke-linejoin="round" d="M 17853,1998 L 18053,1998"/>
 <path fill="none" stroke="rgb(0,0,0)" stroke-linejoin="round" d="M 17853,1998 L 18053,1998"/>
 <text class="TextShape" transform="translate(3766,11925) rotate(-44.9) translate(-3766,-11925)"><tspan class="TextParagraph" font-family="Arial" font-size="353px" font-weight="400"><tspan class="TextPosition" x="3766" y="11925"><tspan fill="rgb(33,33,33)" stroke="none">KLE</tspan></tspan></tspan></text>
 <text class="TextShape" transform="translate(6030,11962) rotate(-44.9) translate(-6030,-11962)"><tspan class="TextParagraph" font-family="Arial" font-size="353px" font-weight="400"><tspan class="TextPosition" x="6030" y="11962"><tspan fill="rgb(33,33,33)" stroke="none">PRR</tspan></tspan></tspan></text>
 <text class="TextShape" transform="translate(8199,12093) rotate(-44.9) translate(-8199,-12093)"><tspan class="TextParagraph" font-family="Arial" font-size="353px" font-weight="400"><tspan class="TextPosition" x="8199" y="12093"><tspan fill="rgb(33,33,33)" stroke="none">PRR2</tspan></tspan></tspan></text>
 <text class="TextShape" transform="translate(10687,11907) rotate(-44.9) translate(-10687,-11907)"><tspan class="TextParagraph" font-family="Arial" font-size="353px" font-weight="400"><tspan class="TextPosition" x="10687" y="11907"><tspan fill="rgb(33,33,33)" stroke="none">LQL</tspan></tspan></tspan></text>
 <text class="TextShape" transform="translate(10929,13965) rotate(-44.9) translate(-10929,-13965)"><tspan class="TextParagraph" font-family="Arial" font-size="353px" font-weight="400"><tspan class="TextPosition" x="10929" y="13965"><tspan fill="rgb(33,33,33)" stroke="none">LQR3 sem time control</tspan></tspan></tspan></text>
 <text class="TextShape" transform="translate(13230,13965) rotate(-44.9) translate(-13230,-13965)"><tspan class="TextParagraph" font-family="Arial" font-size="353px" font-weight="400"><tspan class="TextPosition" x="13230" y="13965"><tspan fill="rgb(33,33,33)" stroke="none">LQR3 com time control</tspan></tspan></tspan></text>
 <text class="TextShape" transform="translate(16820,12673) rotate(-44.9) translate(-16820,-12673)"><tspan class="TextParagraph" font-family="Arial" font-size="353px" font-weight="400"><tspan class="TextPosition" x="16820" y="12673"><tspan fill="rgb(33,33,33)" stroke="none">MAX GAIN</tspan></tspan></tspan></text>
 <text class="TextShape"><tspan class="TextParagraph" font-family="Arial" font-size="353px" font-weight="400"><tspan class="TextPosition" x="1587" y="11103"><tspan fill="rgb(33,33,33)" stroke="none">60,00%</tspan></tspan></tspan></text>
 <text class="TextShape"><tspan class="TextParagraph" font-family="Arial" font-size="353px" font-weight="400"><tspan class="TextPosition" x="1587" y="9979"><tspan fill="rgb(33,33,33)" stroke="none">65,00%</tspan></tspan></tspan></text>
 <text class="TextShape"><tspan class="TextParagraph" font-family="Arial" font-size="353px" font-weight="400"><tspan class="TextPosition" x="1587" y="8856"><tspan fill="rgb(33,33,33)" stroke="none">70,00%</tspan></tspan></tspan></text>
 <text class="TextShape"><tspan class="TextParagraph" font-family="Arial" font-size="353px" font-weight="400"><tspan class="TextPosition" x="1587" y="7733"><tspan fill="rgb(33,33,33)" stroke="none">75,00%</tspan></tspan></tspan></text>
 <text class="TextShape"><tspan class="TextParagraph" font-family="Arial" font-size="353px" font-weight="400"><tspan class="TextPosition" x="1587" y="6610"><tspan fill="rgb(33,33,33)" stroke="none">80,00%</tspan></tspan></tspan></text>
 <text class="TextShape"><tspan class="TextParagraph" font-family="Arial" font-size="353px" font-weight="400"><tspan class="TextPosition" x="1587" y="5487"><tspan fill="rgb(33,33,33)" stroke="none">85,00%</tspan></tspan></tspan></text>
 <text class="TextShape"><tspan class="TextParagraph" font-family="Arial" font-size="353px" font-weight="400"><tspan class="TextPosition" x="1587" y="4364"><tspan fill="rgb(33,33,33)" stroke="none">90,00%</tspan></tspan></tspan></text>
 <text class="TextShape"><tspan class="TextParagraph" font-family="Arial" font-size="353px" font-weight="400"><tspan class="TextPosition" x="1587" y="3241"><tspan fill="rgb(33,33,33)" stroke="none">95,00%</tspan></tspan></tspan></text>
 <text class="TextShape"><tspan class="TextParagraph" font-family="Arial" font-size="353px" font-weight="400"><tspan class="TextPosition" x="1402" y="2118"><tspan fill="rgb(33,33,33)" stroke="none">100,00%</tspan></tspan></tspan></text>
 <text class="TextShape"><tspan class="TextParagraph" font-family="Arial" font-size="459px" font-weight="400"><tspan class="TextPosition" x="8172" y="961"><tspan fill="rgb(33,33,33)" stroke="none">Taxa de entrega</tspan></tspan></tspan><tspan class="TextParagraph" font-family="Arial" font-size="459px" font-weight="400"><tspan class="TextPosition" x="4640" y="1464"><tspan fill="rgb(33,33,33)" stroke="none">Single sender - Regular 500ms - sem ruído artificial</tspan></tspan></tspan></text>
 <text class="TextShape" transform="translate(838,9260) rotate(-90) translate(-838,-9260)"><tspan class="TextParagraph" font-family="Arial" font-size="318px" font-weight="400"><tspan class="TextPosition" x="838" y="9260"><tspan fill="rgb(33,33,33)" stroke="none">Taxa de entrega</tspan></tspan></tspan></text>
</svg>