<?xml version="1.0" encoding="UTF-8"?>
<!DOCTYPE svg PUBLIC "-//W3C//DTD SVG 1.1//EN" "http://www.w3.org/Graphics/SVG/1.1/DTD/svg11.dtd">
<svg width="195mm" height="145mm" viewBox="0 0 19500 14500" version="1.1" xmlns="http://www.w3.org/2000/svg" stroke-width="28.222" stroke-linejoin="round" xml:space="preserve">
 <path fill="rgb(114,159,207)" stroke="none" d="M -19,8 L 19473,8 19473,14517 -19,14517 -19,8 Z"/>
 <path fill="none" stroke="rgb(52,101,164)" stroke-linejoin="round" d="M -19,8 L 19473,8 19473,14517 -19,14517 -19,8 Z"/>
 <path fill="rgb(255,255,255)" stroke="none" d="M 9727,14517 L -19,14517 -19,8 19473,8 19473,14517 9727,14517 Z"/>
 <path fill="none" stroke="rgb(179,179,179)" stroke-linejoin="round" d="M 11032,10990 L 2981,10990 2981,2006 19084,2006 19084,10990 11032,10990 Z"/>
 <path fill="none" stroke="rgb(179,179,179)" stroke-linejoin="round" d="M 19084,10989 L 2981,10989"/>
 <path fill="none" stroke="rgb(179,179,179)" stroke-linejoin="round" d="M 19084,9705 L 2981,9705"/>
 <path fill="none" stroke="rgb(179,179,179)" stroke-linejoin="round" d="M 19084,8421 L 2981,8421"/>
 <path fill="none" stroke="rgb(179,179,179)" stroke-linejoin="round" d="M 19084,7139 L 2981,7139"/>
 <path fill="none" stroke="rgb(179,179,179)" stroke-linejoin="round" d="M 19084,5855 L 2981,5855"/>
 <path fill="none" stroke="rgb(179,179,179)" stroke-linejoin="round" d="M 19084,4572 L 2981,4572"/>
 <path fill="none" stroke="rgb(179,179,179)" stroke-linejoin="round" d="M 19084,3288 L 2981,3288"/>
 <path fill="none" stroke="rgb(179,179,179)" stroke-linejoin="round" d="M 19084,2005 L 2981,2005"/>
 <path fill="none" stroke="rgb(179,179,179)" stroke-linejoin="round" d="M 2981,11139 L 2981,10989"/>
 <path fill="none" stroke="rgb(179,179,179)" stroke-linejoin="round" d="M 5281,11139 L 5281,10989"/>
 <path fill="none" stroke="rgb(179,179,179)" stroke-linejoin="round" d="M 7582,11139 L 7582,10989"/>
 <path fill="none" stroke="rgb(179,179,179)" stroke-linejoin="round" d="M 9881,11139 L 9881,10989"/>
 <path fill="none" stroke="rgb(179,179,179)" stroke-linejoin="round" d="M 12182,11139 L 12182,10989"/>
 <path fill="none" stroke="rgb(179,179,179)" stroke-linejoin="round" d="M 14482,11139 L 14482,10989"/>
 <path fill="none" stroke="rgb(179,179,179)" stroke-linejoin="round" d="M 16783,11139 L 16783,10989"/>
 <path fill="none" stroke="rgb(179,179,179)" stroke-linejoin="round" d="M 19084,11139 L 19084,10989"/>
 <path fill="none" stroke="rgb(179,179,179)" stroke-linejoin="round" d="M 2981,10989 L 19084,10989"/>
 <path fill="none" stroke="rgb(179,179,179)" stroke-linejoin="round" d="M 2831,10989 L 2981,10989"/>
 <path fill="none" stroke="rgb(179,179,179)" stroke-linejoin="round" d="M 2831,9705 L 2981,9705"/>
 <path fill="none" stroke="rgb(179,179,179)" stroke-linejoin="round" d="M 2831,8421 L 2981,8421"/>
 <path fill="none" stroke="rgb(179,179,179)" stroke-linejoin="round" d="M 2831,7139 L 2981,7139"/>
 <path fill="none" stroke="rgb(179,179,179)" stroke-linejoin="round" d="M 2831,5855 L 2981,5855"/>
 <path fill="none" stroke="rgb(179,179,179)" stroke-linejoin="round" d="M 2831,4572 L 2981,4572"/>
 <path fill="none" stroke="rgb(179,179,179)" stroke-linejoin="round" d="M 2831,3288 L 2981,3288"/>
 <path fill="none" stroke="rgb(179,179,179)" stroke-linejoin="round" d="M 2831,2005 L 2981,2005"/>
 <path fill="none" stroke="rgb(179,179,179)" stroke-linejoin="round" d="M 2981,10989 L 2981,2005"/>
 <path fill="rgb(255,102,0)" stroke="none" d="M 17358,10989 L 18508,10989 18508,2056 17358,2056 17358,10989 Z"/>
 <path fill="rgb(255,102,0)" stroke="none" d="M 15058,10989 L 16208,10989 16208,2330 15058,2330 15058,10989 Z"/>
 <path fill="rgb(255,102,0)" stroke="none" d="M 12757,10989 L 13907,10989 13907,2159 12757,2159 12757,10989 Z"/>
 <path fill="rgb(255,102,0)" stroke="none" d="M 10456,10989 L 11607,10989 11607,2860 10456,2860 10456,10989 Z"/>
 <path fill="rgb(255,102,0)" stroke="none" d="M 8157,10989 L 9307,10989 9307,2612 8157,2612 8157,10989 Z"/>
 <path fill="rgb(255,102,0)" stroke="none" d="M 5856,10989 L 7007,10989 7007,2997 5856,2997 5856,10989 Z"/>
 <path fill="rgb(255,102,0)" stroke="none" d="M 3556,10989 L 4706,10989 4706,8019 3556,8019 3556,10989 Z"/>
 <path fill="none" stroke="rgb(0,0,0)" stroke-linejoin="round" d="M 4131,8708 L 4131,8019 4131,7330"/>
 <path fill="none" stroke="rgb(0,0,0)" stroke-linejoin="round" d="M 4231,8708 L 4031,8708"/>
 <path fill="none" stroke="rgb(0,0,0)" stroke-linejoin="round" d="M 4031,7330 L 4231,7330"/>
 <path fill="none" stroke="rgb(0,0,0)" stroke-linejoin="round" d="M 6431,3099 L 6431,2997 6431,2895"/>
 <path fill="none" stroke="rgb(0,0,0)" stroke-linejoin="round" d="M 6531,3099 L 6331,3099"/>
 <path fill="none" stroke="rgb(0,0,0)" stroke-linejoin="round" d="M 6331,2895 L 6531,2895"/>
 <path fill="none" stroke="rgb(0,0,0)" stroke-linejoin="round" d="M 8732,2673 L 8732,2612 8732,2552"/>
 <path fill="none" stroke="rgb(0,0,0)" stroke-linejoin="round" d="M 8832,2673 L 8632,2673"/>
 <path fill="none" stroke="rgb(0,0,0)" stroke-linejoin="round" d="M 8632,2552 L 8832,2552"/>
 <path fill="none" stroke="rgb(0,0,0)" stroke-linejoin="round" d="M 11032,2981 L 11032,2860 11032,2739"/>
 <path fill="none" stroke="rgb(0,0,0)" stroke-linejoin="round" d="M 11132,2981 L 10932,2981"/>
 <path fill="none" stroke="rgb(0,0,0)" stroke-linejoin="round" d="M 10932,2739 L 11132,2739"/>
 <path fill="none" stroke="rgb(0,0,0)" stroke-linejoin="round" d="M 13332,2217 L 13332,2159 13332,2100"/>
 <path fill="none" stroke="rgb(0,0,0)" stroke-linejoin="round" d="M 13432,2217 L 13232,2217"/>
 <path fill="none" stroke="rgb(0,0,0)" stroke-linejoin="round" d="M 13232,2100 L 13432,2100"/>
 <path fill="none" stroke="rgb(0,0,0)" stroke-linejoin="round" d="M 15633,2451 L 15633,2330 15633,2209"/>
 <path fill="none" stroke="rgb(0,0,0)" stroke-linejoin="round" d="M 15733,2451 L 15533,2451"/>
 <path fill="none" stroke="rgb(0,0,0)" stroke-linejoin="round" d="M 15533,2209 L 15733,2209"/>
 <path fill="none" stroke="rgb(0,0,0)" stroke-linejoin="round" d="M 17933,2056 L 17933,2056 Z"/>
 <path fill="none" stroke="rgb(0,0,0)" stroke-linejoin="round" d="M 17833,2056 L 18033,2056"/>
 <path fill="none" stroke="rgb(0,0,0)" stroke-linejoin="round" d="M 17833,2056 L 18033,2056"/>
 <text class="TextShape" transform="translate(3746,11932) rotate(-44.9) translate(-3746,-11932)"><tspan class="TextParagraph" font-family="Arial" font-size="353px" font-weight="400"><tspan class="TextPosition" x="3746" y="11932"><tspan fill="rgb(33,33,33)" stroke="none">KLE</tspan></tspan></tspan></text>
 <text class="TextShape" transform="translate(6010,11969) rotate(-44.9) translate(-6010,-11969)"><tspan class="TextParagraph" font-family="Arial" font-size="353px" font-weight="400"><tspan class="TextPosition" x="6010" y="11969"><tspan fill="rgb(33,33,33)" stroke="none">PRR</tspan></tspan></tspan></text>
 <text class="TextShape" transform="translate(8179,12100) rotate(-44.9) translate(-8179,-12100)"><tspan class="TextParagraph" font-family="Arial" font-size="353px" font-weight="400"><tspan class="TextPosition" x="8179" y="12100"><tspan fill="rgb(33,33,33)" stroke="none">PRR2</tspan></tspan></tspan></text>
 <text class="TextShape" transform="translate(10667,11914) rotate(-44.9) translate(-10667,-11914)"><tspan class="TextParagraph" font-family="Arial" font-size="353px" font-weight="400"><tspan class="TextPosition" x="10667" y="11914"><tspan fill="rgb(33,33,33)" stroke="none">LQL</tspan></tspan></tspan></text>
 <text class="TextShape" transform="translate(10909,13972) rotate(-44.9) translate(-10909,-13972)"><tspan class="TextParagraph" font-family="Arial" font-size="353px" font-weight="400"><tspan class="TextPosition" x="10909" y="13972"><tspan fill="rgb(33,33,33)" stroke="none">LQR3 sem time control</tspan></tspan></tspan></text>
 <text class="TextShape" transform="translate(13210,13972) rotate(-44.9) translate(-13210,-13972)"><tspan class="TextParagraph" font-family="Arial" font-size="353px" font-weight="400"><tspan class="TextPosition" x="13210" y="13972"><tspan fill="rgb(33,33,33)" stroke="none">LQR3 com time control</tspan></tspan></tspan></text>
 <text class="TextShape" transform="translate(15996,13485) rotate(-44.9) translate(-15996,-13485)"><tspan class="TextParagraph" font-family="Arial" font-size="353px" font-weight="400"><tspan class="TextPosition" x="15996" y="13485"><tspan fill="rgb(33,33,33)" stroke="none">FIXED MAX GAIN</tspan></tspan></tspan></text>
 <text class="TextShape"><tspan class="TextParagraph" font-family="Arial" font-size="353px" font-weight="400"><tspan class="TextPosition" x="1567" y="11110"><tspan fill="rgb(33,33,33)" stroke="none">65,00%</tspan></tspan></tspan></text>
 <text class="TextShape"><tspan class="TextParagraph" font-family="Arial" font-size="353px" font-weight="400"><tspan class="TextPosition" x="1567" y="9826"><tspan fill="rgb(33,33,33)" stroke="none">70,00%</tspan></tspan></tspan></text>
 <text class="TextShape"><tspan class="TextParagraph" font-family="Arial" font-size="353px" font-weight="400"><tspan class="TextPosition" x="1567" y="8542"><tspan fill="rgb(33,33,33)" stroke="none">75,00%</tspan></tspan></tspan></text>
 <text class="TextShape"><tspan class="TextParagraph" font-family="Arial" font-size="353px" font-weight="400"><tspan class="TextPosition" x="1567" y="7259"><tspan fill="rgb(33,33,33)" stroke="none">80,00%</tspan></tspan></tspan></text>
 <text class="TextShape"><tspan class="TextParagraph" font-family="Arial" font-size="353px" font-weight="400"><tspan class="TextPosition" x="1567" y="5975"><tspan fill="rgb(33,33,33)" stroke="none">85,00%</tspan></tspan></tspan></text>
 <text class="TextShape"><tspan class="TextParagraph" font-family="Arial" font-size="353px" font-weight="400"><tspan class="TextPosition" x="1567" y="4692"><tspan fill="rgb(33,33,33)" stroke="none">90,00%</tspan></tspan></tspan></text>
 <text class="TextShape"><tspan class="TextParagraph" font-family="Arial" font-size="353px" font-weight="400"><tspan class="TextPosition" x="1567" y="3408"><tspan fill="rgb(33,33,33)" stroke="none">95,00%</tspan></tspan></tspan></text>
 <text class="TextShape"><tspan class="TextParagraph" font-family="Arial" font-size="353px" font-weight="400"><tspan class="TextPosition" x="1382" y="2125"><tspan fill="rgb(33,33,33)" stroke="none">100,00%</tspan></tspan></tspan></text>
 <text class="TextShape"><tspan class="TextParagraph" font-family="Arial" font-size="459px" font-weight="400"><tspan class="TextPosition" x="8152" y="968"><tspan fill="rgb(33,33,33)" stroke="none">Taxa de entrega</tspan></tspan></tspan><tspan class="TextParagraph" font-family="Arial" font-size="459px" font-weight="400"><tspan class="TextPosition" x="3985" y="1471"><tspan fill="rgb(33,33,33)" stroke="none">Single sender - Delay poisson 250ms - sem ruído artificial</tspan></tspan></tspan></text>
 <text class="TextShape" transform="translate(818,9267) rotate(-90) translate(-818,-9267)"><tspan class="TextParagraph" font-family="Arial" font-size="318px" font-weight="400"><tspan class="TextPosition" x="818" y="9267"><tspan fill="rgb(33,33,33)" stroke="none">Taxa de entrega</tspan></tspan></tspan></text>
</svg>