<?xml version="1.0" encoding="UTF-8"?>
<!DOCTYPE svg PUBLIC "-//W3C//DTD SVG 1.1//EN" "http://www.w3.org/Graphics/SVG/1.1/DTD/svg11.dtd">
<svg width="195mm" height="145mm" viewBox="0 0 19500 14500" version="1.1" xmlns="http://www.w3.org/2000/svg" stroke-width="28.222" stroke-linejoin="round" xml:space="preserve">
 <path fill="rgb(114,159,207)" stroke="none" d="M -19,8 L 19473,8 19473,14517 -19,14517 -19,8 Z"/>
 <path fill="none" stroke="rgb(52,101,164)" stroke-linejoin="round" d="M -19,8 L 19473,8 19473,14517 -19,14517 -19,8 Z"/>
 <path fill="rgb(255,255,255)" stroke="none" d="M 9747,14510 L 1,14510 1,1 19493,1 19493,14510 9747,14510 Z"/>
 <path fill="none" stroke="rgb(179,179,179)" stroke-linejoin="round" d="M 11052,10983 L 3001,10983 3001,2972 19104,2972 19104,10983 11052,10983 Z"/>
 <path fill="none" stroke="rgb(179,179,179)" stroke-linejoin="round" d="M 19104,10982 L 3001,10982"/>
 <path fill="none" stroke="rgb(179,179,179)" stroke-linejoin="round" d="M 19104,9837 L 3001,9837"/>
 <path fill="none" stroke="rgb(179,179,179)" stroke-linejoin="round" d="M 19104,8692 L 3001,8692"/>
 <path fill="none" stroke="rgb(179,179,179)" stroke-linejoin="round" d="M 19104,7548 L 3001,7548"/>
 <path fill="none" stroke="rgb(179,179,179)" stroke-linejoin="round" d="M 19104,6404 L 3001,6404"/>
 <path fill="none" stroke="rgb(179,179,179)" stroke-linejoin="round" d="M 19104,5260 L 3001,5260"/>
 <path fill="none" stroke="rgb(179,179,179)" stroke-linejoin="round" d="M 19104,4115 L 3001,4115"/>
 <path fill="none" stroke="rgb(179,179,179)" stroke-linejoin="round" d="M 19104,2971 L 3001,2971"/>
 <path fill="none" stroke="rgb(179,179,179)" stroke-linejoin="round" d="M 3001,11132 L 3001,10982"/>
 <path fill="none" stroke="rgb(179,179,179)" stroke-linejoin="round" d="M 5301,11132 L 5301,10982"/>
 <path fill="none" stroke="rgb(179,179,179)" stroke-linejoin="round" d="M 7602,11132 L 7602,10982"/>
 <path fill="none" stroke="rgb(179,179,179)" stroke-linejoin="round" d="M 9901,11132 L 9901,10982"/>
 <path fill="none" stroke="rgb(179,179,179)" stroke-linejoin="round" d="M 12202,11132 L 12202,10982"/>
 <path fill="none" stroke="rgb(179,179,179)" stroke-linejoin="round" d="M 14502,11132 L 14502,10982"/>
 <path fill="none" stroke="rgb(179,179,179)" stroke-linejoin="round" d="M 16803,11132 L 16803,10982"/>
 <path fill="none" stroke="rgb(179,179,179)" stroke-linejoin="round" d="M 19104,11132 L 19104,10982"/>
 <path fill="none" stroke="rgb(179,179,179)" stroke-linejoin="round" d="M 3001,10982 L 19104,10982"/>
 <path fill="none" stroke="rgb(179,179,179)" stroke-linejoin="round" d="M 2851,10982 L 3001,10982"/>
 <path fill="none" stroke="rgb(179,179,179)" stroke-linejoin="round" d="M 2851,9837 L 3001,9837"/>
 <path fill="none" stroke="rgb(179,179,179)" stroke-linejoin="round" d="M 2851,8692 L 3001,8692"/>
 <path fill="none" stroke="rgb(179,179,179)" stroke-linejoin="round" d="M 2851,7548 L 3001,7548"/>
 <path fill="none" stroke="rgb(179,179,179)" stroke-linejoin="round" d="M 2851,6404 L 3001,6404"/>
 <path fill="none" stroke="rgb(179,179,179)" stroke-linejoin="round" d="M 2851,5260 L 3001,5260"/>
 <path fill="none" stroke="rgb(179,179,179)" stroke-linejoin="round" d="M 2851,4115 L 3001,4115"/>
 <path fill="none" stroke="rgb(179,179,179)" stroke-linejoin="round" d="M 2851,2971 L 3001,2971"/>
 <path fill="none" stroke="rgb(179,179,179)" stroke-linejoin="round" d="M 3001,10982 L 3001,2971"/>
 <path fill="rgb(255,102,0)" stroke="none" d="M 17378,10982 L 18528,10982 18528,3016 17378,3016 17378,10982 Z"/>
 <path fill="rgb(255,102,0)" stroke="none" d="M 15078,10982 L 16228,10982 16228,3260 15078,3260 15078,10982 Z"/>
 <path fill="rgb(255,102,0)" stroke="none" d="M 12777,10982 L 13927,10982 13927,3108 12777,3108 12777,10982 Z"/>
 <path fill="rgb(255,102,0)" stroke="none" d="M 10476,10982 L 11627,10982 11627,3734 10476,3734 10476,10982 Z"/>
 <path fill="rgb(255,102,0)" stroke="none" d="M 8177,10982 L 9327,10982 9327,3512 8177,3512 8177,10982 Z"/>
 <path fill="rgb(255,102,0)" stroke="none" d="M 5876,10982 L 7027,10982 7027,3856 5876,3856 5876,10982 Z"/>
 <path fill="rgb(255,102,0)" stroke="none" d="M 3576,10982 L 4726,10982 4726,8334 3576,8334 3576,10982 Z"/>
 <path fill="none" stroke="rgb(0,0,0)" stroke-linejoin="round" d="M 4151,8948 L 4151,8334 4151,7719"/>
 <path fill="none" stroke="rgb(0,0,0)" stroke-linejoin="round" d="M 4251,8948 L 4051,8948"/>
 <path fill="none" stroke="rgb(0,0,0)" stroke-linejoin="round" d="M 4051,7719 L 4251,7719"/>
 <path fill="none" stroke="rgb(0,0,0)" stroke-linejoin="round" d="M 6451,3947 L 6451,3856 6451,3765"/>
 <path fill="none" stroke="rgb(0,0,0)" stroke-linejoin="round" d="M 6551,3947 L 6351,3947"/>
 <path fill="none" stroke="rgb(0,0,0)" stroke-linejoin="round" d="M 6351,3765 L 6551,3765"/>
 <path fill="none" stroke="rgb(0,0,0)" stroke-linejoin="round" d="M 8752,3566 L 8752,3512 8752,3458"/>
 <path fill="none" stroke="rgb(0,0,0)" stroke-linejoin="round" d="M 8852,3566 L 8652,3566"/>
 <path fill="none" stroke="rgb(0,0,0)" stroke-linejoin="round" d="M 8652,3458 L 8852,3458"/>
 <path fill="none" stroke="rgb(0,0,0)" stroke-linejoin="round" d="M 11052,3841 L 11052,3734 11052,3626"/>
 <path fill="none" stroke="rgb(0,0,0)" stroke-linejoin="round" d="M 11152,3841 L 10952,3841"/>
 <path fill="none" stroke="rgb(0,0,0)" stroke-linejoin="round" d="M 10952,3626 L 11152,3626"/>
 <path fill="none" stroke="rgb(0,0,0)" stroke-linejoin="round" d="M 13352,3160 L 13352,3108 13352,3056"/>
 <path fill="none" stroke="rgb(0,0,0)" stroke-linejoin="round" d="M 13452,3160 L 13252,3160"/>
 <path fill="none" stroke="rgb(0,0,0)" stroke-linejoin="round" d="M 13252,3056 L 13452,3056"/>
 <path fill="none" stroke="rgb(0,0,0)" stroke-linejoin="round" d="M 15653,3368 L 15653,3260 15653,3153"/>
 <path fill="none" stroke="rgb(0,0,0)" stroke-linejoin="round" d="M 15753,3368 L 15553,3368"/>
 <path fill="none" stroke="rgb(0,0,0)" stroke-linejoin="round" d="M 15553,3153 L 15753,3153"/>
 <path fill="none" stroke="rgb(0,0,0)" stroke-linejoin="round" d="M 17953,3016 L 17953,3016 Z"/>
 <path fill="none" stroke="rgb(0,0,0)" stroke-linejoin="round" d="M 17853,3016 L 18053,3016"/>
 <path fill="none" stroke="rgb(0,0,0)" stroke-linejoin="round" d="M 17853,3016 L 18053,3016"/>
 <text class="TextShape" transform="translate(3766,11925) rotate(-44.9) translate(-3766,-11925)"><tspan class="TextParagraph" font-family="Arial, sans-serif" font-size="353px" font-weight="400"><tspan class="TextPosition" x="3766" y="11925"><tspan fill="rgb(33,33,33)" stroke="none">KLE</tspan></tspan></tspan></text>
 <text class="TextShape" transform="translate(6030,11962) rotate(-44.9) translate(-6030,-11962)"><tspan class="TextParagraph" font-family="Arial, sans-serif" font-size="353px" font-weight="400"><tspan class="TextPosition" x="6030" y="11962"><tspan fill="rgb(33,33,33)" stroke="none">PRR</tspan></tspan></tspan></text>
 <text class="TextShape" transform="translate(8199,12093) rotate(-44.9) translate(-8199,-12093)"><tspan class="TextParagraph" font-family="Arial, sans-serif" font-size="353px" font-weight="400"><tspan class="TextPosition" x="8199" y="12093"><tspan fill="rgb(33,33,33)" stroke="none">PRR2</tspan></tspan></tspan></text>
 <text class="TextShape" transform="translate(10687,11907) rotate(-44.9) translate(-10687,-11907)"><tspan class="TextParagraph" font-family="Arial, sans-serif" font-size="353px" font-weight="400"><tspan class="TextPosition" x="10687" y="11907"><tspan fill="rgb(33,33,33)" stroke="none">LQL</tspan></tspan></tspan></text>
 <text class="TextShape" transform="translate(10929,13965) rotate(-44.9) translate(-10929,-13965)"><tspan class="TextParagraph" font-family="Arial, sans-serif" font-size="353px" font-weight="400"><tspan class="TextPosition" x="10929" y="13965"><tspan fill="rgb(33,33,33)" stroke="none">LQR3 sem time control</tspan></tspan></tspan></text>
 <text class="TextShape" transform="translate(13230,13965) rotate(-44.9) translate(-13230,-13965)"><tspan class="TextParagraph" font-family="Arial, sans-serif" font-size="353px" font-weight="400"><tspan class="TextPosition" x="13230" y="13965"><tspan fill="rgb(33,33,33)" stroke="none">LQR3 com time control</tspan></tspan></tspan></text>
 <text class="TextShape" transform="translate(16016,13478) rotate(-44.9) translate(-16016,-13478)"><tspan class="TextParagraph" font-family="Arial, sans-serif" font-size="353px" font-weight="400"><tspan class="TextPosition" x="16016" y="13478"><tspan fill="rgb(33,33,33)" stroke="none">FIXED MAX GAIN</tspan></tspan></tspan></text>
 <text class="TextShape"><tspan class="TextParagraph" font-family="Arial, sans-serif" font-size="353px" font-weight="400"><tspan class="TextPosition" x="1587" y="11103"><tspan fill="rgb(33,33,33)" stroke="none">65,00%</tspan></tspan></tspan></text>
 <text class="TextShape"><tspan class="TextParagraph" font-family="Arial, sans-serif" font-size="353px" font-weight="400"><tspan class="TextPosition" x="1587" y="9958"><tspan fill="rgb(33,33,33)" stroke="none">70,00%</tspan></tspan></tspan></text>
 <text class="TextShape"><tspan class="TextParagraph" font-family="Arial, sans-serif" font-size="353px" font-weight="400"><tspan class="TextPosition" x="1587" y="8813"><tspan fill="rgb(33,33,33)" stroke="none">75,00%</tspan></tspan></tspan></text>
 <text class="TextShape"><tspan class="TextParagraph" font-family="Arial, sans-serif" font-size="353px" font-weight="400"><tspan class="TextPosition" x="1587" y="7669"><tspan fill="rgb(33,33,33)" stroke="none">80,00%</tspan></tspan></tspan></text>
 <text class="TextShape"><tspan class="TextParagraph" font-family="Arial, sans-serif" font-size="353px" font-weight="400"><tspan class="TextPosition" x="1587" y="6524"><tspan fill="rgb(33,33,33)" stroke="none">85,00%</tspan></tspan></tspan></text>
 <text class="TextShape"><tspan class="TextParagraph" font-family="Arial, sans-serif" font-size="353px" font-weight="400"><tspan class="TextPosition" x="1587" y="5380"><tspan fill="rgb(33,33,33)" stroke="none">90,00%</tspan></tspan></tspan></text>
 <text class="TextShape"><tspan class="TextParagraph" font-family="Arial, sans-serif" font-size="353px" font-weight="400"><tspan class="TextPosition" x="1587" y="4235"><tspan fill="rgb(33,33,33)" stroke="none">95,00%</tspan></tspan></tspan></text>
 <text class="TextShape"><tspan class="TextParagraph" font-family="Arial, sans-serif" font-size="353px" font-weight="400"><tspan class="TextPosition" x="1402" y="3091"><tspan fill="rgb(33,33,33)" stroke="none">100,00%</tspan></tspan></tspan></text>
 <text class="TextShape"><tspan class="TextParagraph" font-family="Arial, sans-serif" font-size="459px" font-weight="400"><tspan class="TextPosition" x="8172" y="961"><tspan fill="rgb(33,33,33)" stroke="none">Taxa de entrega</tspan></tspan></tspan><tspan class="TextParagraph" font-family="Arial, sans-serif" font-size="459px" font-weight="400"><tspan class="TextPosition" x="4005" y="1464"><tspan fill="rgb(33,33,33)" stroke="none">Single sender - Delay poisson 250ms - sem ruído artificial</tspan></tspan></tspan></text>
 <text class="TextShape"><tspan class="TextParagraph" font-family="Liberation Sans, sans-serif" font-size="388px" font-weight="400"><tspan class="TextPosition" x="9072" y="2485"><tspan fill="rgb(0,0,0)" stroke="none">sub-title</tspan></tspan></tspan></text>
 <text class="TextShape" transform="translate(838,9746) rotate(-90) translate(-838,-9746)"><tspan class="TextParagraph" font-family="Arial, sans-serif" font-size="318px" font-weight="400"><tspan class="TextPosition" x="838" y="9746"><tspan fill="rgb(33,33,33)" stroke="none">Taxa de entrega</tspan></tspan></tspan></text>
</svg>