<?xml version="1.0" encoding="UTF-8"?>
<!DOCTYPE svg PUBLIC "-//W3C//DTD SVG 1.1//EN" "http://www.w3.org/Graphics/SVG/1.1/DTD/svg11.dtd">
<svg width="196mm" height="153mm" viewBox="0 0 19600 15300" version="1.1" xmlns="http://www.w3.org/2000/svg" stroke-width="28.222" stroke-linejoin="round" xml:space="preserve">
 <path fill="rgb(114,159,207)" stroke="none" d="M -20,3 L 19596,3 19596,15345 -20,15345 -20,3 Z"/>
 <path fill="none" stroke="rgb(52,101,164)" stroke-linejoin="round" d="M -20,3 L 19596,3 19596,15345 -20,15345 -20,3 Z"/>
 <path fill="rgb(255,255,255)" stroke="none" d="M 9788,15345 L -20,15345 -20,3 19596,3 19596,15345 9788,15345 Z"/>
 <path fill="none" stroke="rgb(179,179,179)" stroke-linejoin="round" d="M 10319,12001 L 2983,12001 2983,2033 17655,2033 17655,12001 10319,12001 Z"/>
 <path fill="none" stroke="rgb(179,179,179)" stroke-linejoin="round" d="M 17655,12000 L 2983,12000"/>
 <path fill="none" stroke="rgb(179,179,179)" stroke-linejoin="round" d="M 17655,10466 L 2983,10466"/>
 <path fill="none" stroke="rgb(179,179,179)" stroke-linejoin="round" d="M 17655,8932 L 2983,8932"/>
 <path fill="none" stroke="rgb(179,179,179)" stroke-linejoin="round" d="M 17655,7399 L 2983,7399"/>
 <path fill="none" stroke="rgb(179,179,179)" stroke-linejoin="round" d="M 17655,5866 L 2983,5866"/>
 <path fill="none" stroke="rgb(179,179,179)" stroke-linejoin="round" d="M 17655,4332 L 2983,4332"/>
 <path fill="none" stroke="rgb(179,179,179)" stroke-linejoin="round" d="M 17655,2798 L 2983,2798"/>
 <path fill="none" stroke="rgb(179,179,179)" stroke-linejoin="round" d="M 2983,12150 L 2983,12000"/>
 <path fill="none" stroke="rgb(179,179,179)" stroke-linejoin="round" d="M 5079,12150 L 5079,12000"/>
 <path fill="none" stroke="rgb(179,179,179)" stroke-linejoin="round" d="M 7175,12150 L 7175,12000"/>
 <path fill="none" stroke="rgb(179,179,179)" stroke-linejoin="round" d="M 9271,12150 L 9271,12000"/>
 <path fill="none" stroke="rgb(179,179,179)" stroke-linejoin="round" d="M 11366,12150 L 11366,12000"/>
 <path fill="none" stroke="rgb(179,179,179)" stroke-linejoin="round" d="M 13462,12150 L 13462,12000"/>
 <path fill="none" stroke="rgb(179,179,179)" stroke-linejoin="round" d="M 15558,12150 L 15558,12000"/>
 <path fill="none" stroke="rgb(179,179,179)" stroke-linejoin="round" d="M 17655,12150 L 17655,12000"/>
 <path fill="none" stroke="rgb(179,179,179)" stroke-linejoin="round" d="M 2983,12000 L 17655,12000"/>
 <path fill="none" stroke="rgb(179,179,179)" stroke-linejoin="round" d="M 2833,12000 L 2983,12000"/>
 <path fill="none" stroke="rgb(179,179,179)" stroke-linejoin="round" d="M 2833,10466 L 2983,10466"/>
 <path fill="none" stroke="rgb(179,179,179)" stroke-linejoin="round" d="M 2833,8932 L 2983,8932"/>
 <path fill="none" stroke="rgb(179,179,179)" stroke-linejoin="round" d="M 2833,7399 L 2983,7399"/>
 <path fill="none" stroke="rgb(179,179,179)" stroke-linejoin="round" d="M 2833,5866 L 2983,5866"/>
 <path fill="none" stroke="rgb(179,179,179)" stroke-linejoin="round" d="M 2833,4332 L 2983,4332"/>
 <path fill="none" stroke="rgb(179,179,179)" stroke-linejoin="round" d="M 2833,2798 L 2983,2798"/>
 <path fill="none" stroke="rgb(179,179,179)" stroke-linejoin="round" d="M 2983,12000 L 2983,2031"/>
 <path fill="rgb(0,69,134)" stroke="none" d="M 15768,12000 L 16187,12000 16187,2798 15768,2798 15768,12000 Z"/>
 <path fill="rgb(0,69,134)" stroke="none" d="M 13672,12000 L 14091,12000 14091,2798 13672,2798 13672,12000 Z"/>
 <path fill="rgb(0,69,134)" stroke="none" d="M 11576,12000 L 11995,12000 11995,2798 11576,2798 11576,12000 Z"/>
 <path fill="rgb(0,69,134)" stroke="none" d="M 9481,12000 L 9899,12000 9899,2952 9481,2952 9481,12000 Z"/>
 <path fill="rgb(0,69,134)" stroke="none" d="M 7384,12000 L 7804,12000 7804,3086 7384,3086 7384,12000 Z"/>
 <path fill="rgb(0,69,134)" stroke="none" d="M 5288,12000 L 5707,12000 5707,3183 5288,3183 5288,12000 Z"/>
 <path fill="rgb(0,69,134)" stroke="none" d="M 3192,12000 L 3611,12000 3611,3163 3192,3163 3192,12000 Z"/>
 <path fill="rgb(255,66,14)" stroke="none" d="M 16187,12000 L 16606,12000 16606,2798 16187,2798 16187,12000 Z"/>
 <path fill="rgb(255,66,14)" stroke="none" d="M 14091,12000 L 14510,12000 14510,2798 14091,2798 14091,12000 Z"/>
 <path fill="rgb(255,66,14)" stroke="none" d="M 11995,12000 L 12414,12000 12414,2798 11995,2798 11995,12000 Z"/>
 <path fill="rgb(255,66,14)" stroke="none" d="M 9899,12000 L 10318,12000 10318,2971 9899,2971 9899,12000 Z"/>
 <path fill="rgb(255,66,14)" stroke="none" d="M 7804,12000 L 8223,12000 8223,2913 7804,2913 7804,12000 Z"/>
 <path fill="rgb(255,66,14)" stroke="none" d="M 5707,12000 L 6127,12000 6127,3373 5707,3373 5707,12000 Z"/>
 <path fill="rgb(255,66,14)" stroke="none" d="M 3611,12000 L 4031,12000 4031,2837 3611,2837 3611,12000 Z"/>
 <path fill="rgb(255,211,32)" stroke="none" d="M 16606,12000 L 17026,12000 17026,2894 16606,2894 16606,12000 Z"/>
 <path fill="rgb(255,211,32)" stroke="none" d="M 14510,12000 L 14930,12000 14930,2952 14510,2952 14510,12000 Z"/>
 <path fill="rgb(255,211,32)" stroke="none" d="M 12414,12000 L 12833,12000 12833,3048 12414,3048 12414,12000 Z"/>
 <path fill="rgb(255,211,32)" stroke="none" d="M 10318,12000 L 10737,12000 10737,3547 10318,3547 10318,12000 Z"/>
 <path fill="rgb(255,211,32)" stroke="none" d="M 8223,12000 L 8642,12000 8642,3452 8223,3452 8223,12000 Z"/>
 <path fill="rgb(255,211,32)" stroke="none" d="M 6127,12000 L 6546,12000 6546,3719 6127,3719 6127,12000 Z"/>
 <path fill="rgb(255,211,32)" stroke="none" d="M 4031,12000 L 4450,12000 4450,10945 4031,10945 4031,12000 Z"/>
 <path fill="rgb(87,157,28)" stroke="none" d="M 17026,12000 L 17445,12000 17445,2856 17026,2856 17026,12000 Z"/>
 <path fill="rgb(87,157,28)" stroke="none" d="M 14930,12000 L 15349,12000 15349,2913 14930,2913 14930,12000 Z"/>
 <path fill="rgb(87,157,28)" stroke="none" d="M 12833,12000 L 13253,12000 13253,2971 12833,2971 12833,12000 Z"/>
 <path fill="rgb(87,157,28)" stroke="none" d="M 10737,12000 L 11156,12000 11156,3681 10737,3681 10737,12000 Z"/>
 <path fill="rgb(87,157,28)" stroke="none" d="M 8642,12000 L 9061,12000 9061,3297 8642,3297 8642,12000 Z"/>
 <path fill="rgb(87,157,28)" stroke="none" d="M 6546,12000 L 6965,12000 6965,3834 6546,3834 6546,12000 Z"/>
 <path fill="rgb(87,157,28)" stroke="none" d="M 4450,12000 L 4869,12000 4869,10523 4450,10523 4450,12000 Z"/>
 <path fill="none" stroke="rgb(0,0,0)" stroke-linejoin="round" d="M 3402,3426 L 3402,3163 3402,2900"/>
 <path fill="none" stroke="rgb(0,0,0)" stroke-linejoin="round" d="M 3502,3426 L 3302,3426"/>
 <path fill="none" stroke="rgb(0,0,0)" stroke-linejoin="round" d="M 3302,2900 L 3502,2900"/>
 <path fill="none" stroke="rgb(0,0,0)" stroke-linejoin="round" d="M 5498,3331 L 5498,3183 5498,3034"/>
 <path fill="none" stroke="rgb(0,0,0)" stroke-linejoin="round" d="M 5598,3331 L 5398,3331"/>
 <path fill="none" stroke="rgb(0,0,0)" stroke-linejoin="round" d="M 5398,3034 L 5598,3034"/>
 <path fill="none" stroke="rgb(0,0,0)" stroke-linejoin="round" d="M 7594,3349 L 7594,3086 7594,2823"/>
 <path fill="none" stroke="rgb(0,0,0)" stroke-linejoin="round" d="M 7694,3349 L 7494,3349"/>
 <path fill="none" stroke="rgb(0,0,0)" stroke-linejoin="round" d="M 7494,2823 L 7694,2823"/>
 <path fill="none" stroke="rgb(0,0,0)" stroke-linejoin="round" d="M 9690,2952 L 9690,2952 Z"/>
 <path fill="none" stroke="rgb(0,0,0)" stroke-linejoin="round" d="M 9590,2952 L 9789,2952"/>
 <path fill="none" stroke="rgb(0,0,0)" stroke-linejoin="round" d="M 9590,2952 L 9789,2952"/>
 <path fill="none" stroke="rgb(0,0,0)" stroke-linejoin="round" d="M 11785,2798 L 11785,2798 Z"/>
 <path fill="none" stroke="rgb(0,0,0)" stroke-linejoin="round" d="M 11685,2798 L 11885,2798"/>
 <path fill="none" stroke="rgb(0,0,0)" stroke-linejoin="round" d="M 11685,2798 L 11885,2798"/>
 <path fill="none" stroke="rgb(0,0,0)" stroke-linejoin="round" d="M 13881,2798 L 13881,2798 Z"/>
 <path fill="none" stroke="rgb(0,0,0)" stroke-linejoin="round" d="M 13781,2798 L 13981,2798"/>
 <path fill="none" stroke="rgb(0,0,0)" stroke-linejoin="round" d="M 13781,2798 L 13981,2798"/>
 <path fill="none" stroke="rgb(0,0,0)" stroke-linejoin="round" d="M 15978,2798 L 15978,2798 Z"/>
 <path fill="none" stroke="rgb(0,0,0)" stroke-linejoin="round" d="M 15878,2798 L 16078,2798"/>
 <path fill="none" stroke="rgb(0,0,0)" stroke-linejoin="round" d="M 15878,2798 L 16078,2798"/>
 <path fill="none" stroke="rgb(0,0,0)" stroke-linejoin="round" d="M 3821,2912 L 3821,2837 3821,2762"/>
 <path fill="none" stroke="rgb(0,0,0)" stroke-linejoin="round" d="M 3921,2912 L 3721,2912"/>
 <path fill="none" stroke="rgb(0,0,0)" stroke-linejoin="round" d="M 3721,2762 L 3921,2762"/>
 <path fill="none" stroke="rgb(0,0,0)" stroke-linejoin="round" d="M 5917,3524 L 5917,3373 5917,3223"/>
 <path fill="none" stroke="rgb(0,0,0)" stroke-linejoin="round" d="M 6017,3524 L 5817,3524"/>
 <path fill="none" stroke="rgb(0,0,0)" stroke-linejoin="round" d="M 5817,3223 L 6017,3223"/>
 <path fill="none" stroke="rgb(0,0,0)" stroke-linejoin="round" d="M 8013,2913 L 8013,2913 Z"/>
 <path fill="none" stroke="rgb(0,0,0)" stroke-linejoin="round" d="M 7913,2913 L 8113,2913"/>
 <path fill="none" stroke="rgb(0,0,0)" stroke-linejoin="round" d="M 7913,2913 L 8113,2913"/>
 <path fill="none" stroke="rgb(0,0,0)" stroke-linejoin="round" d="M 10108,3309 L 10108,2971 10108,2633"/>
 <path fill="none" stroke="rgb(0,0,0)" stroke-linejoin="round" d="M 10208,3309 L 10008,3309"/>
 <path fill="none" stroke="rgb(0,0,0)" stroke-linejoin="round" d="M 10008,2633 L 10208,2633"/>
 <path fill="none" stroke="rgb(0,0,0)" stroke-linejoin="round" d="M 12205,2798 L 12205,2798 Z"/>
 <path fill="none" stroke="rgb(0,0,0)" stroke-linejoin="round" d="M 12105,2798 L 12305,2798"/>
 <path fill="none" stroke="rgb(0,0,0)" stroke-linejoin="round" d="M 12105,2798 L 12305,2798"/>
 <path fill="none" stroke="rgb(0,0,0)" stroke-linejoin="round" d="M 14301,2798 L 14301,2798 Z"/>
 <path fill="none" stroke="rgb(0,0,0)" stroke-linejoin="round" d="M 14201,2798 L 14401,2798"/>
 <path fill="none" stroke="rgb(0,0,0)" stroke-linejoin="round" d="M 14201,2798 L 14401,2798"/>
 <path fill="none" stroke="rgb(0,0,0)" stroke-linejoin="round" d="M 16397,2798 L 16397,2798 Z"/>
 <path fill="none" stroke="rgb(0,0,0)" stroke-linejoin="round" d="M 16297,2798 L 16497,2798"/>
 <path fill="none" stroke="rgb(0,0,0)" stroke-linejoin="round" d="M 16297,2798 L 16497,2798"/>
 <path fill="none" stroke="rgb(0,0,0)" stroke-linejoin="round" d="M 4240,11358 L 4240,10945 4240,10532"/>
 <path fill="none" stroke="rgb(0,0,0)" stroke-linejoin="round" d="M 4340,11358 L 4140,11358"/>
 <path fill="none" stroke="rgb(0,0,0)" stroke-linejoin="round" d="M 4140,10532 L 4340,10532"/>
 <path fill="none" stroke="rgb(0,0,0)" stroke-linejoin="round" d="M 6336,3944 L 6336,3719 6336,3493"/>
 <path fill="none" stroke="rgb(0,0,0)" stroke-linejoin="round" d="M 6436,3944 L 6236,3944"/>
 <path fill="none" stroke="rgb(0,0,0)" stroke-linejoin="round" d="M 6236,3493 L 6436,3493"/>
 <path fill="none" stroke="rgb(0,0,0)" stroke-linejoin="round" d="M 8432,3452 L 8432,3452 Z"/>
 <path fill="none" stroke="rgb(0,0,0)" stroke-linejoin="round" d="M 8332,3452 L 8532,3452"/>
 <path fill="none" stroke="rgb(0,0,0)" stroke-linejoin="round" d="M 8332,3452 L 8532,3452"/>
 <path fill="none" stroke="rgb(0,0,0)" stroke-linejoin="round" d="M 10528,3808 L 10528,3547 10528,3285"/>
 <path fill="none" stroke="rgb(0,0,0)" stroke-linejoin="round" d="M 10628,3808 L 10428,3808"/>
 <path fill="none" stroke="rgb(0,0,0)" stroke-linejoin="round" d="M 10428,3285 L 10628,3285"/>
 <path fill="none" stroke="rgb(0,0,0)" stroke-linejoin="round" d="M 12624,3160 L 12624,3048 12624,2935"/>
 <path fill="none" stroke="rgb(0,0,0)" stroke-linejoin="round" d="M 12724,3160 L 12524,3160"/>
 <path fill="none" stroke="rgb(0,0,0)" stroke-linejoin="round" d="M 12524,2935 L 12724,2935"/>
 <path fill="none" stroke="rgb(0,0,0)" stroke-linejoin="round" d="M 14720,3027 L 14720,2952 14720,2877"/>
 <path fill="none" stroke="rgb(0,0,0)" stroke-linejoin="round" d="M 14820,3027 L 14620,3027"/>
 <path fill="none" stroke="rgb(0,0,0)" stroke-linejoin="round" d="M 14620,2877 L 14820,2877"/>
 <path fill="none" stroke="rgb(0,0,0)" stroke-linejoin="round" d="M 16816,2932 L 16816,2894 16816,2857"/>
 <path fill="none" stroke="rgb(0,0,0)" stroke-linejoin="round" d="M 16916,2932 L 16716,2932"/>
 <path fill="none" stroke="rgb(0,0,0)" stroke-linejoin="round" d="M 16716,2857 L 16916,2857"/>
 <path fill="none" stroke="rgb(0,0,0)" stroke-linejoin="round" d="M 4659,11012 L 4659,10523 4659,10035"/>
 <path fill="none" stroke="rgb(0,0,0)" stroke-linejoin="round" d="M 4759,11012 L 4559,11012"/>
 <path fill="none" stroke="rgb(0,0,0)" stroke-linejoin="round" d="M 4559,10035 L 4759,10035"/>
 <path fill="none" stroke="rgb(0,0,0)" stroke-linejoin="round" d="M 6756,3834 L 6756,3834 Z"/>
 <path fill="none" stroke="rgb(0,0,0)" stroke-linejoin="round" d="M 6656,3834 L 6856,3834"/>
 <path fill="none" stroke="rgb(0,0,0)" stroke-linejoin="round" d="M 6656,3834 L 6856,3834"/>
 <path fill="none" stroke="rgb(0,0,0)" stroke-linejoin="round" d="M 8852,3297 L 8852,3297 Z"/>
 <path fill="none" stroke="rgb(0,0,0)" stroke-linejoin="round" d="M 8752,3297 L 8952,3297"/>
 <path fill="none" stroke="rgb(0,0,0)" stroke-linejoin="round" d="M 8752,3297 L 8952,3297"/>
 <path fill="none" stroke="rgb(0,0,0)" stroke-linejoin="round" d="M 10947,3905 L 10947,3681 10947,3457"/>
 <path fill="none" stroke="rgb(0,0,0)" stroke-linejoin="round" d="M 11047,3905 L 10847,3905"/>
 <path fill="none" stroke="rgb(0,0,0)" stroke-linejoin="round" d="M 10847,3457 L 11047,3457"/>
 <path fill="none" stroke="rgb(0,0,0)" stroke-linejoin="round" d="M 13043,3084 L 13043,2971 13043,2858"/>
 <path fill="none" stroke="rgb(0,0,0)" stroke-linejoin="round" d="M 13143,3084 L 12943,3084"/>
 <path fill="none" stroke="rgb(0,0,0)" stroke-linejoin="round" d="M 12943,2858 L 13143,2858"/>
 <path fill="none" stroke="rgb(0,0,0)" stroke-linejoin="round" d="M 15139,2913 L 15139,2913 Z"/>
 <path fill="none" stroke="rgb(0,0,0)" stroke-linejoin="round" d="M 15039,2913 L 15239,2913"/>
 <path fill="none" stroke="rgb(0,0,0)" stroke-linejoin="round" d="M 15039,2913 L 15239,2913"/>
 <path fill="none" stroke="rgb(0,0,0)" stroke-linejoin="round" d="M 17235,2893 L 17235,2856 17235,2818"/>
 <path fill="none" stroke="rgb(0,0,0)" stroke-linejoin="round" d="M 17335,2893 L 17135,2893"/>
 <path fill="none" stroke="rgb(0,0,0)" stroke-linejoin="round" d="M 17135,2818 L 17335,2818"/>
 <text class="TextShape" transform="translate(3646,12943) rotate(-44.9) translate(-3646,-12943)"><tspan class="TextParagraph" font-family="Arial" font-size="353px" font-weight="400"><tspan class="TextPosition" x="3646" y="12943"><tspan fill="rgb(33,33,33)" stroke="none">KLE</tspan></tspan></tspan></text>
 <text class="TextShape" transform="translate(5706,12980) rotate(-44.9) translate(-5706,-12980)"><tspan class="TextParagraph" font-family="Arial" font-size="353px" font-weight="400"><tspan class="TextPosition" x="5706" y="12980"><tspan fill="rgb(33,33,33)" stroke="none">PRR</tspan></tspan></tspan></text>
 <text class="TextShape" transform="translate(7670,13111) rotate(-44.9) translate(-7670,-13111)"><tspan class="TextParagraph" font-family="Arial" font-size="353px" font-weight="400"><tspan class="TextPosition" x="7670" y="13111"><tspan fill="rgb(33,33,33)" stroke="none">PRR2</tspan></tspan></tspan></text>
 <text class="TextShape" transform="translate(9953,12925) rotate(-44.9) translate(-9953,-12925)"><tspan class="TextParagraph" font-family="Arial" font-size="353px" font-weight="400"><tspan class="TextPosition" x="9953" y="12925"><tspan fill="rgb(33,33,33)" stroke="none">LQL</tspan></tspan></tspan></text>
 <text class="TextShape" transform="translate(9991,14983) rotate(-44.9) translate(-9991,-14983)"><tspan class="TextParagraph" font-family="Arial" font-size="353px" font-weight="400"><tspan class="TextPosition" x="9991" y="14983"><tspan fill="rgb(33,33,33)" stroke="none">LQR3 sem time control</tspan></tspan></tspan></text>
 <text class="TextShape" transform="translate(12087,14983) rotate(-44.9) translate(-12087,-14983)"><tspan class="TextParagraph" font-family="Arial" font-size="353px" font-weight="400"><tspan class="TextPosition" x="12087" y="14983"><tspan fill="rgb(33,33,33)" stroke="none">LQR3 com time control</tspan></tspan></tspan></text>
 <text class="TextShape" transform="translate(14669,14496) rotate(-44.9) translate(-14669,-14496)"><tspan class="TextParagraph" font-family="Arial" font-size="353px" font-weight="400"><tspan class="TextPosition" x="14669" y="14496"><tspan fill="rgb(33,33,33)" stroke="none">FIXED MAX GAIN</tspan></tspan></tspan></text>
 <text class="TextShape"><tspan class="TextParagraph" font-family="Arial" font-size="353px" font-weight="400"><tspan class="TextPosition" x="1569" y="12121"><tspan fill="rgb(33,33,33)" stroke="none">40,00%</tspan></tspan></tspan></text>
 <text class="TextShape"><tspan class="TextParagraph" font-family="Arial" font-size="353px" font-weight="400"><tspan class="TextPosition" x="1569" y="10587"><tspan fill="rgb(33,33,33)" stroke="none">50,00%</tspan></tspan></tspan></text>
 <text class="TextShape"><tspan class="TextParagraph" font-family="Arial" font-size="353px" font-weight="400"><tspan class="TextPosition" x="1569" y="9053"><tspan fill="rgb(33,33,33)" stroke="none">60,00%</tspan></tspan></tspan></text>
 <text class="TextShape"><tspan class="TextParagraph" font-family="Arial" font-size="353px" font-weight="400"><tspan class="TextPosition" x="1569" y="7519"><tspan fill="rgb(33,33,33)" stroke="none">70,00%</tspan></tspan></tspan></text>
 <text class="TextShape"><tspan class="TextParagraph" font-family="Arial" font-size="353px" font-weight="400"><tspan class="TextPosition" x="1569" y="5986"><tspan fill="rgb(33,33,33)" stroke="none">80,00%</tspan></tspan></tspan></text>
 <text class="TextShape"><tspan class="TextParagraph" font-family="Arial" font-size="353px" font-weight="400"><tspan class="TextPosition" x="1569" y="4452"><tspan fill="rgb(33,33,33)" stroke="none">90,00%</tspan></tspan></tspan></text>
 <text class="TextShape"><tspan class="TextParagraph" font-family="Arial" font-size="353px" font-weight="400"><tspan class="TextPosition" x="1384" y="2918"><tspan fill="rgb(33,33,33)" stroke="none">100,00%</tspan></tspan></tspan></text>
 <text class="TextShape"><tspan class="TextParagraph" font-family="Arial" font-size="459px" font-weight="400"><tspan class="TextPosition" x="8214" y="979"><tspan fill="rgb(33,33,33)" stroke="none">Taxa de entrega</tspan></tspan></tspan><tspan class="TextParagraph" font-family="Arial" font-size="459px" font-weight="400"><tspan class="TextPosition" x="3888" y="1482"><tspan fill="rgb(33,33,33)" stroke="none">Multiple sender - Delay poisson 250ms - sem ruído artificial</tspan></tspan></tspan></text>
 <path fill="rgb(255,255,255)" stroke="none" d="M 18717,8719 L 18047,8719 18047,6628 19386,6628 19386,8719 18717,8719 Z"/>
 <path fill="none" stroke="rgb(0,0,0)" stroke-linejoin="round" d="M 18717,8719 L 18047,8719 18047,6628 19386,6628 19386,8719 18717,8719 Z"/>
 <path fill="rgb(0,69,134)" stroke="none" d="M 18269,7032 L 18163,7032 18163,6821 18374,6821 18374,7032 18269,7032 Z"/>
 <path fill="rgb(255,66,14)" stroke="none" d="M 18269,7530 L 18163,7530 18163,7319 18374,7319 18374,7530 18269,7530 Z"/>
 <path fill="rgb(255,211,32)" stroke="none" d="M 18269,8027 L 18163,8027 18163,7816 18374,7816 18374,8027 18269,8027 Z"/>
 <path fill="rgb(87,157,28)" stroke="none" d="M 18269,8525 L 18163,8525 18163,8314 18374,8314 18374,8525 18269,8525 Z"/>
 <text class="TextShape"><tspan class="TextParagraph" font-family="Liberation Sans" font-size="353px" font-weight="400"><tspan class="TextPosition" x="18474" y="7046"><tspan fill="rgb(0,0,0)" stroke="none">No12</tspan></tspan></tspan></text>
 <text class="TextShape"><tspan class="TextParagraph" font-family="Liberation Sans" font-size="353px" font-weight="400"><tspan class="TextPosition" x="18474" y="7544"><tspan fill="rgb(0,0,0)" stroke="none">No14</tspan></tspan></tspan></text>
 <text class="TextShape"><tspan class="TextParagraph" font-family="Liberation Sans" font-size="353px" font-weight="400"><tspan class="TextPosition" x="18474" y="8041"><tspan fill="rgb(0,0,0)" stroke="none">No16</tspan></tspan></tspan></text>
 <text class="TextShape"><tspan class="TextParagraph" font-family="Liberation Sans" font-size="353px" font-weight="400"><tspan class="TextPosition" x="18474" y="8539"><tspan fill="rgb(0,0,0)" stroke="none">No18</tspan></tspan></tspan></text>
 <text class="TextShape" transform="translate(817,9686) rotate(-90) translate(-817,-9686)"><tspan class="TextParagraph" font-family="Arial" font-size="318px" font-weight="400"><tspan class="TextPosition" x="817" y="9686"><tspan fill="rgb(33,33,33)" stroke="none">Taxa de entrega</tspan></tspan></tspan></text>
</svg>