<?xml version="1.0" encoding="UTF-8"?>
<!DOCTYPE svg PUBLIC "-//W3C//DTD SVG 1.1//EN" "http://www.w3.org/Graphics/SVG/1.1/DTD/svg11.dtd">
<svg width="196mm" height="154mm" viewBox="0 0 19600 15400" version="1.1" xmlns="http://www.w3.org/2000/svg" stroke-width="28.222" stroke-linejoin="round" xml:space="preserve">
 <path fill="rgb(114,159,207)" stroke="none" d="M -70,3 L 19518,3 19518,15355 -70,15355 -70,3 Z"/>
 <path fill="none" stroke="rgb(52,101,164)" stroke-linejoin="round" d="M -70,3 L 19518,3 19518,15355 -70,15355 -70,3 Z"/>
 <path fill="rgb(255,255,255)" stroke="none" d="M 9724,15355 L -70,15355 -70,3 19518,3 19518,15355 9724,15355 Z"/>
 <path fill="none" stroke="rgb(179,179,179)" stroke-linejoin="round" d="M 9257,11811 L 2721,11811 2721,2035 15792,2035 15792,11811 9257,11811 Z"/>
 <path fill="none" stroke="rgb(179,179,179)" stroke-linejoin="round" d="M 15792,11810 L 2721,11810"/>
 <path fill="none" stroke="rgb(179,179,179)" stroke-linejoin="round" d="M 15792,10832 L 2721,10832"/>
 <path fill="none" stroke="rgb(179,179,179)" stroke-linejoin="round" d="M 15792,9854 L 2721,9854"/>
 <path fill="none" stroke="rgb(179,179,179)" stroke-linejoin="round" d="M 15792,8876 L 2721,8876"/>
 <path fill="none" stroke="rgb(179,179,179)" stroke-linejoin="round" d="M 15792,7899 L 2721,7899"/>
 <path fill="none" stroke="rgb(179,179,179)" stroke-linejoin="round" d="M 15792,6922 L 2721,6922"/>
 <path fill="none" stroke="rgb(179,179,179)" stroke-linejoin="round" d="M 15792,5944 L 2721,5944"/>
 <path fill="none" stroke="rgb(179,179,179)" stroke-linejoin="round" d="M 15792,4967 L 2721,4967"/>
 <path fill="none" stroke="rgb(179,179,179)" stroke-linejoin="round" d="M 15792,3989 L 2721,3989"/>
 <path fill="none" stroke="rgb(179,179,179)" stroke-linejoin="round" d="M 15792,3011 L 2721,3011"/>
 <path fill="none" stroke="rgb(179,179,179)" stroke-linejoin="round" d="M 15792,2034 L 2721,2034"/>
 <path fill="none" stroke="rgb(179,179,179)" stroke-linejoin="round" d="M 2721,11960 L 2721,11810"/>
 <path fill="none" stroke="rgb(179,179,179)" stroke-linejoin="round" d="M 4588,11960 L 4588,11810"/>
 <path fill="none" stroke="rgb(179,179,179)" stroke-linejoin="round" d="M 6455,11960 L 6455,11810"/>
 <path fill="none" stroke="rgb(179,179,179)" stroke-linejoin="round" d="M 8323,11960 L 8323,11810"/>
 <path fill="none" stroke="rgb(179,179,179)" stroke-linejoin="round" d="M 10189,11960 L 10189,11810"/>
 <path fill="none" stroke="rgb(179,179,179)" stroke-linejoin="round" d="M 12057,11960 L 12057,11810"/>
 <path fill="none" stroke="rgb(179,179,179)" stroke-linejoin="round" d="M 13924,11960 L 13924,11810"/>
 <path fill="none" stroke="rgb(179,179,179)" stroke-linejoin="round" d="M 15792,11960 L 15792,11810"/>
 <path fill="none" stroke="rgb(179,179,179)" stroke-linejoin="round" d="M 2721,11810 L 15792,11810"/>
 <path fill="none" stroke="rgb(179,179,179)" stroke-linejoin="round" d="M 2571,11810 L 2721,11810"/>
 <path fill="none" stroke="rgb(179,179,179)" stroke-linejoin="round" d="M 2571,10832 L 2721,10832"/>
 <path fill="none" stroke="rgb(179,179,179)" stroke-linejoin="round" d="M 2571,9854 L 2721,9854"/>
 <path fill="none" stroke="rgb(179,179,179)" stroke-linejoin="round" d="M 2571,8876 L 2721,8876"/>
 <path fill="none" stroke="rgb(179,179,179)" stroke-linejoin="round" d="M 2571,7899 L 2721,7899"/>
 <path fill="none" stroke="rgb(179,179,179)" stroke-linejoin="round" d="M 2571,6922 L 2721,6922"/>
 <path fill="none" stroke="rgb(179,179,179)" stroke-linejoin="round" d="M 2571,5944 L 2721,5944"/>
 <path fill="none" stroke="rgb(179,179,179)" stroke-linejoin="round" d="M 2571,4967 L 2721,4967"/>
 <path fill="none" stroke="rgb(179,179,179)" stroke-linejoin="round" d="M 2571,3989 L 2721,3989"/>
 <path fill="none" stroke="rgb(179,179,179)" stroke-linejoin="round" d="M 2571,3011 L 2721,3011"/>
 <path fill="none" stroke="rgb(179,179,179)" stroke-linejoin="round" d="M 2571,2034 L 2721,2034"/>
 <path fill="none" stroke="rgb(179,179,179)" stroke-linejoin="round" d="M 2721,11810 L 2721,2034"/>
 <path fill="none" stroke="rgb(179,179,179)" stroke-linejoin="round" d="M 15942,11810 L 15792,11810"/>
 <path fill="none" stroke="rgb(179,179,179)" stroke-linejoin="round" d="M 15942,10180 L 15792,10180"/>
 <path fill="none" stroke="rgb(179,179,179)" stroke-linejoin="round" d="M 15942,8551 L 15792,8551"/>
 <path fill="none" stroke="rgb(179,179,179)" stroke-linejoin="round" d="M 15942,6922 L 15792,6922"/>
 <path fill="none" stroke="rgb(179,179,179)" stroke-linejoin="round" d="M 15942,5293 L 15792,5293"/>
 <path fill="none" stroke="rgb(179,179,179)" stroke-linejoin="round" d="M 15942,3663 L 15792,3663"/>
 <path fill="none" stroke="rgb(179,179,179)" stroke-linejoin="round" d="M 15942,2034 L 15792,2034"/>
 <path fill="none" stroke="rgb(179,179,179)" stroke-linejoin="round" d="M 15904,10995 L 15792,10995"/>
 <path fill="none" stroke="rgb(179,179,179)" stroke-linejoin="round" d="M 15904,9365 L 15792,9365"/>
 <path fill="none" stroke="rgb(179,179,179)" stroke-linejoin="round" d="M 15904,7736 L 15792,7736"/>
 <path fill="none" stroke="rgb(179,179,179)" stroke-linejoin="round" d="M 15904,6107 L 15792,6107"/>
 <path fill="none" stroke="rgb(179,179,179)" stroke-linejoin="round" d="M 15904,4478 L 15792,4478"/>
 <path fill="none" stroke="rgb(179,179,179)" stroke-linejoin="round" d="M 15904,2848 L 15792,2848"/>
 <path fill="none" stroke="rgb(179,179,179)" stroke-linejoin="round" d="M 15792,11810 L 15792,2034"/>
 <path fill="rgb(87,157,28)" stroke="none" d="M 14235,11810 L 14858,11810 14858,2249 14235,2249 14235,11810 Z"/>
 <path fill="rgb(87,157,28)" stroke="none" d="M 12368,11810 L 12990,11810 12990,8715 12368,8715 12368,11810 Z"/>
 <path fill="rgb(87,157,28)" stroke="none" d="M 10500,11810 L 11123,11810 11123,9035 10500,9035 10500,11810 Z"/>
 <path fill="rgb(87,157,28)" stroke="none" d="M 8634,11810 L 9257,11810 9257,10369 8634,10369 8634,11810 Z"/>
 <path fill="rgb(87,157,28)" stroke="none" d="M 6767,11810 L 7389,11810 7389,8517 6767,8517 6767,11810 Z"/>
 <path fill="rgb(87,157,28)" stroke="none" d="M 4899,11810 L 5522,11810 5522,10380 4899,10380 4899,11810 Z"/>
 <path fill="rgb(87,157,28)" stroke="none" d="M 3032,11810 L 3654,11810 3654,10119 3032,10119 3032,11810 Z"/>
 <path fill="rgb(255,66,14)" stroke="none" d="M 14858,11810 L 15480,11810 15480,3256 14858,3256 14858,11810 Z"/>
 <path fill="rgb(255,66,14)" stroke="none" d="M 12990,11810 L 13613,11810 13613,11176 12990,11176 12990,11810 Z"/>
 <path fill="rgb(255,66,14)" stroke="none" d="M 11123,11810 L 11745,11810 11745,8150 11123,8150 11123,11810 Z"/>
 <path fill="rgb(255,66,14)" stroke="none" d="M 9257,11810 L 9878,11810 9878,8864 9257,8864 9257,11810 Z"/>
 <path fill="rgb(255,66,14)" stroke="none" d="M 7389,11810 L 8012,11810 8012,9288 7389,9288 7389,11810 Z"/>
 <path fill="rgb(255,66,14)" stroke="none" d="M 5522,11810 L 6144,11810 6144,9320 5522,9320 5522,11810 Z"/>
 <path fill="rgb(255,66,14)" stroke="none" d="M 3654,11810 L 4277,11810 4277,7282 3654,7282 3654,11810 Z"/>
 <path fill="none" stroke="rgb(0,0,0)" stroke-linejoin="round" d="M 3343,10146 L 3343,10119 3343,10092"/>
 <path fill="none" stroke="rgb(0,0,0)" stroke-linejoin="round" d="M 3443,10146 L 3243,10146"/>
 <path fill="none" stroke="rgb(0,0,0)" stroke-linejoin="round" d="M 3243,10092 L 3443,10092"/>
 <path fill="none" stroke="rgb(0,0,0)" stroke-linejoin="round" d="M 5210,10415 L 5210,10380 5210,10345"/>
 <path fill="none" stroke="rgb(0,0,0)" stroke-linejoin="round" d="M 5310,10415 L 5110,10415"/>
 <path fill="none" stroke="rgb(0,0,0)" stroke-linejoin="round" d="M 5110,10345 L 5310,10345"/>
 <path fill="none" stroke="rgb(0,0,0)" stroke-linejoin="round" d="M 7078,8673 L 7078,8517 7078,8360"/>
 <path fill="none" stroke="rgb(0,0,0)" stroke-linejoin="round" d="M 7178,8673 L 6978,8673"/>
 <path fill="none" stroke="rgb(0,0,0)" stroke-linejoin="round" d="M 6978,8360 L 7178,8360"/>
 <path fill="none" stroke="rgb(0,0,0)" stroke-linejoin="round" d="M 8945,10420 L 8945,10369 8945,10319"/>
 <path fill="none" stroke="rgb(0,0,0)" stroke-linejoin="round" d="M 9045,10420 L 8845,10420"/>
 <path fill="none" stroke="rgb(0,0,0)" stroke-linejoin="round" d="M 8845,10319 L 9045,10319"/>
 <path fill="none" stroke="rgb(0,0,0)" stroke-linejoin="round" d="M 10812,9083 L 10812,9035 10812,8986"/>
 <path fill="none" stroke="rgb(0,0,0)" stroke-linejoin="round" d="M 10912,9083 L 10712,9083"/>
 <path fill="none" stroke="rgb(0,0,0)" stroke-linejoin="round" d="M 10712,8986 L 10912,8986"/>
 <path fill="none" stroke="rgb(0,0,0)" stroke-linejoin="round" d="M 12679,8784 L 12679,8715 12679,8646"/>
 <path fill="none" stroke="rgb(0,0,0)" stroke-linejoin="round" d="M 12779,8784 L 12579,8784"/>
 <path fill="none" stroke="rgb(0,0,0)" stroke-linejoin="round" d="M 12579,8646 L 12779,8646"/>
 <path fill="none" stroke="rgb(0,0,0)" stroke-linejoin="round" d="M 14547,2283 L 14547,2249 14547,2215"/>
 <path fill="none" stroke="rgb(0,0,0)" stroke-linejoin="round" d="M 14647,2283 L 14447,2283"/>
 <path fill="none" stroke="rgb(0,0,0)" stroke-linejoin="round" d="M 14447,2215 L 14647,2215"/>
 <text class="TextShape" transform="translate(3269,12753) rotate(-44.9) translate(-3269,-12753)"><tspan class="TextParagraph" font-family="Arial" font-size="353px" font-weight="400"><tspan class="TextPosition" x="3269" y="12753"><tspan fill="rgb(33,33,33)" stroke="none">KLE</tspan></tspan></tspan></text>
 <text class="TextShape" transform="translate(5101,12790) rotate(-44.9) translate(-5101,-12790)"><tspan class="TextParagraph" font-family="Arial" font-size="353px" font-weight="400"><tspan class="TextPosition" x="5101" y="12790"><tspan fill="rgb(33,33,33)" stroke="none">PRR</tspan></tspan></tspan></text>
 <text class="TextShape" transform="translate(6836,12921) rotate(-44.9) translate(-6836,-12921)"><tspan class="TextParagraph" font-family="Arial" font-size="353px" font-weight="400"><tspan class="TextPosition" x="6836" y="12921"><tspan fill="rgb(33,33,33)" stroke="none">PRR2</tspan></tspan></tspan></text>
 <text class="TextShape" transform="translate(8891,12735) rotate(-44.9) translate(-8891,-12735)"><tspan class="TextParagraph" font-family="Arial" font-size="353px" font-weight="400"><tspan class="TextPosition" x="8891" y="12735"><tspan fill="rgb(33,33,33)" stroke="none">LQL</tspan></tspan></tspan></text>
 <text class="TextShape" transform="translate(8700,14793) rotate(-44.9) translate(-8700,-14793)"><tspan class="TextParagraph" font-family="Arial" font-size="353px" font-weight="400"><tspan class="TextPosition" x="8700" y="14793"><tspan fill="rgb(33,33,33)" stroke="none">LQR3 sem time control</tspan></tspan></tspan></text>
 <text class="TextShape" transform="translate(10567,14793) rotate(-44.9) translate(-10567,-14793)"><tspan class="TextParagraph" font-family="Arial" font-size="353px" font-weight="400"><tspan class="TextPosition" x="10567" y="14793"><tspan fill="rgb(33,33,33)" stroke="none">LQR3 com time control</tspan></tspan></tspan></text>
 <text class="TextShape" transform="translate(13726,13501) rotate(-44.9) translate(-13726,-13501)"><tspan class="TextParagraph" font-family="Arial" font-size="353px" font-weight="400"><tspan class="TextPosition" x="13726" y="13501"><tspan fill="rgb(33,33,33)" stroke="none">MAX GAIN</tspan></tspan></tspan></text>
 <text class="TextShape"><tspan class="TextParagraph" font-family="Arial" font-size="353px" font-weight="400"><tspan class="TextPosition" x="1333" y="11931"><tspan fill="rgb(33,33,33)" stroke="none">40,000 </tspan></tspan></tspan></text>
 <text class="TextShape"><tspan class="TextParagraph" font-family="Arial" font-size="353px" font-weight="400"><tspan class="TextPosition" x="1333" y="10953"><tspan fill="rgb(33,33,33)" stroke="none">45,000 </tspan></tspan></tspan></text>
 <text class="TextShape"><tspan class="TextParagraph" font-family="Arial" font-size="353px" font-weight="400"><tspan class="TextPosition" x="1333" y="9975"><tspan fill="rgb(33,33,33)" stroke="none">50,000 </tspan></tspan></tspan></text>
 <text class="TextShape"><tspan class="TextParagraph" font-family="Arial" font-size="353px" font-weight="400"><tspan class="TextPosition" x="1333" y="8997"><tspan fill="rgb(33,33,33)" stroke="none">55,000 </tspan></tspan></tspan></text>
 <text class="TextShape"><tspan class="TextParagraph" font-family="Arial" font-size="353px" font-weight="400"><tspan class="TextPosition" x="1333" y="8020"><tspan fill="rgb(33,33,33)" stroke="none">60,000 </tspan></tspan></tspan></text>
 <text class="TextShape"><tspan class="TextParagraph" font-family="Arial" font-size="353px" font-weight="400"><tspan class="TextPosition" x="1333" y="7042"><tspan fill="rgb(33,33,33)" stroke="none">65,000 </tspan></tspan></tspan></text>
 <text class="TextShape"><tspan class="TextParagraph" font-family="Arial" font-size="353px" font-weight="400"><tspan class="TextPosition" x="1333" y="6064"><tspan fill="rgb(33,33,33)" stroke="none">70,000 </tspan></tspan></tspan></text>
 <text class="TextShape"><tspan class="TextParagraph" font-family="Arial" font-size="353px" font-weight="400"><tspan class="TextPosition" x="1333" y="5087"><tspan fill="rgb(33,33,33)" stroke="none">75,000 </tspan></tspan></tspan></text>
 <text class="TextShape"><tspan class="TextParagraph" font-family="Arial" font-size="353px" font-weight="400"><tspan class="TextPosition" x="1333" y="4109"><tspan fill="rgb(33,33,33)" stroke="none">80,000 </tspan></tspan></tspan></text>
 <text class="TextShape"><tspan class="TextParagraph" font-family="Arial" font-size="353px" font-weight="400"><tspan class="TextPosition" x="1333" y="3131"><tspan fill="rgb(33,33,33)" stroke="none">85,000 </tspan></tspan></tspan></text>
 <text class="TextShape"><tspan class="TextParagraph" font-family="Arial" font-size="353px" font-weight="400"><tspan class="TextPosition" x="1333" y="2154"><tspan fill="rgb(33,33,33)" stroke="none">90,000 </tspan></tspan></tspan></text>
 <text class="TextShape"><tspan class="TextParagraph" font-family="Arial" font-size="353px" font-weight="400"><tspan class="TextPosition" x="16042" y="11931"><tspan fill="rgb(33,33,33)" stroke="none">15000,00</tspan></tspan></tspan></text>
 <text class="TextShape"><tspan class="TextParagraph" font-family="Arial" font-size="353px" font-weight="400"><tspan class="TextPosition" x="16042" y="10301"><tspan fill="rgb(33,33,33)" stroke="none">20000,00</tspan></tspan></tspan></text>
 <text class="TextShape"><tspan class="TextParagraph" font-family="Arial" font-size="353px" font-weight="400"><tspan class="TextPosition" x="16042" y="8672"><tspan fill="rgb(33,33,33)" stroke="none">25000,00</tspan></tspan></tspan></text>
 <text class="TextShape"><tspan class="TextParagraph" font-family="Arial" font-size="353px" font-weight="400"><tspan class="TextPosition" x="16042" y="7042"><tspan fill="rgb(33,33,33)" stroke="none">30000,00</tspan></tspan></tspan></text>
 <text class="TextShape"><tspan class="TextParagraph" font-family="Arial" font-size="353px" font-weight="400"><tspan class="TextPosition" x="16042" y="5413"><tspan fill="rgb(33,33,33)" stroke="none">35000,00</tspan></tspan></tspan></text>
 <text class="TextShape"><tspan class="TextParagraph" font-family="Arial" font-size="353px" font-weight="400"><tspan class="TextPosition" x="16042" y="3783"><tspan fill="rgb(33,33,33)" stroke="none">40000,00</tspan></tspan></tspan></text>
 <text class="TextShape"><tspan class="TextParagraph" font-family="Arial" font-size="353px" font-weight="400"><tspan class="TextPosition" x="16042" y="2154"><tspan fill="rgb(33,33,33)" stroke="none">45000,00</tspan></tspan></tspan></text>
 <text class="TextShape"><tspan class="TextParagraph" font-family="Arial" font-size="459px" font-weight="400"><tspan class="TextPosition" x="6694" y="980"><tspan fill="rgb(33,33,33)" stroke="none">Ganho e custo na transmissão</tspan></tspan></tspan><tspan class="TextParagraph" font-family="Arial" font-size="459px" font-weight="400"><tspan class="TextPosition" x="3334" y="1483"><tspan fill="rgb(33,33,33)" stroke="none">Nó 14 - Multiple sender - Regular TX 500ms - sem ruído artificial</tspan></tspan></tspan></text>
 <path fill="rgb(87,157,28)" stroke="none" d="M 18059,7535 L 17953,7535 17953,7324 18164,7324 18164,7535 18059,7535 Z"/>
 <path fill="rgb(255,66,14)" stroke="none" d="M 18059,8032 L 17953,8032 17953,7821 18164,7821 18164,8032 18059,8032 Z"/>
 <text class="TextShape"><tspan class="TextParagraph" font-family="Arial" font-size="353px" font-weight="400"><tspan class="TextPosition" x="18264" y="7549"><tspan fill="rgb(33,33,33)" stroke="none">ganho</tspan></tspan></tspan></text>
 <text class="TextShape"><tspan class="TextParagraph" font-family="Arial" font-size="353px" font-weight="400"><tspan class="TextPosition" x="18264" y="8046"><tspan fill="rgb(33,33,33)" stroke="none">custo</tspan></tspan></tspan></text>
 <text class="TextShape" transform="translate(767,9322) rotate(-90) translate(-767,-9322)"><tspan class="TextParagraph" font-family="Arial" font-size="318px" font-weight="400"><tspan class="TextPosition" x="767" y="9322"><tspan fill="rgb(33,33,33)" stroke="none">Gain index</tspan></tspan></tspan></text>
</svg>