<?xml version="1.0" encoding="UTF-8"?>
<!DOCTYPE svg PUBLIC "-//W3C//DTD SVG 1.1//EN" "http://www.w3.org/Graphics/SVG/1.1/DTD/svg11.dtd">
<svg width="197mm" height="147mm" viewBox="0 0 19700 14700" version="1.1" xmlns="http://www.w3.org/2000/svg" stroke-width="28.222" stroke-linejoin="round" xml:space="preserve">
 <path fill="rgb(114,159,207)" stroke="none" d="M -60,8 L 19615,8 19615,14681 -60,14681 -60,8 Z"/>
 <path fill="none" stroke="rgb(52,101,164)" stroke-linejoin="round" d="M -60,8 L 19615,8 19615,14681 -60,14681 -60,8 Z"/>
 <path fill="rgb(255,255,255)" stroke="none" d="M 9778,14681 L -60,14681 -60,8 19615,8 19615,14681 9778,14681 Z"/>
 <path fill="none" stroke="rgb(179,179,179)" stroke-linejoin="round" d="M 8873,11151 L 1965,11151 1965,2012 15780,2012 15780,11151 8873,11151 Z"/>
 <path fill="none" stroke="rgb(179,179,179)" stroke-linejoin="round" d="M 15780,11150 L 1965,11150"/>
 <path fill="none" stroke="rgb(179,179,179)" stroke-linejoin="round" d="M 15780,10236 L 1965,10236"/>
 <path fill="none" stroke="rgb(179,179,179)" stroke-linejoin="round" d="M 15780,9322 L 1965,9322"/>
 <path fill="none" stroke="rgb(179,179,179)" stroke-linejoin="round" d="M 15780,8408 L 1965,8408"/>
 <path fill="none" stroke="rgb(179,179,179)" stroke-linejoin="round" d="M 15780,7494 L 1965,7494"/>
 <path fill="none" stroke="rgb(179,179,179)" stroke-linejoin="round" d="M 15780,6581 L 1965,6581"/>
 <path fill="none" stroke="rgb(179,179,179)" stroke-linejoin="round" d="M 15780,5667 L 1965,5667"/>
 <path fill="none" stroke="rgb(179,179,179)" stroke-linejoin="round" d="M 15780,4753 L 1965,4753"/>
 <path fill="none" stroke="rgb(179,179,179)" stroke-linejoin="round" d="M 15780,3839 L 1965,3839"/>
 <path fill="none" stroke="rgb(179,179,179)" stroke-linejoin="round" d="M 15780,2924 L 1965,2924"/>
 <path fill="none" stroke="rgb(179,179,179)" stroke-linejoin="round" d="M 15780,2011 L 1965,2011"/>
 <path fill="none" stroke="rgb(179,179,179)" stroke-linejoin="round" d="M 1965,11300 L 1965,11150"/>
 <path fill="none" stroke="rgb(179,179,179)" stroke-linejoin="round" d="M 3938,11300 L 3938,11150"/>
 <path fill="none" stroke="rgb(179,179,179)" stroke-linejoin="round" d="M 5912,11300 L 5912,11150"/>
 <path fill="none" stroke="rgb(179,179,179)" stroke-linejoin="round" d="M 7886,11300 L 7886,11150"/>
 <path fill="none" stroke="rgb(179,179,179)" stroke-linejoin="round" d="M 9858,11300 L 9858,11150"/>
 <path fill="none" stroke="rgb(179,179,179)" stroke-linejoin="round" d="M 11832,11300 L 11832,11150"/>
 <path fill="none" stroke="rgb(179,179,179)" stroke-linejoin="round" d="M 13806,11300 L 13806,11150"/>
 <path fill="none" stroke="rgb(179,179,179)" stroke-linejoin="round" d="M 15780,11300 L 15780,11150"/>
 <path fill="none" stroke="rgb(179,179,179)" stroke-linejoin="round" d="M 1965,11150 L 15780,11150"/>
 <path fill="none" stroke="rgb(179,179,179)" stroke-linejoin="round" d="M 1815,11150 L 1965,11150"/>
 <path fill="none" stroke="rgb(179,179,179)" stroke-linejoin="round" d="M 1815,10236 L 1965,10236"/>
 <path fill="none" stroke="rgb(179,179,179)" stroke-linejoin="round" d="M 1815,9322 L 1965,9322"/>
 <path fill="none" stroke="rgb(179,179,179)" stroke-linejoin="round" d="M 1815,8408 L 1965,8408"/>
 <path fill="none" stroke="rgb(179,179,179)" stroke-linejoin="round" d="M 1815,7494 L 1965,7494"/>
 <path fill="none" stroke="rgb(179,179,179)" stroke-linejoin="round" d="M 1815,6581 L 1965,6581"/>
 <path fill="none" stroke="rgb(179,179,179)" stroke-linejoin="round" d="M 1815,5667 L 1965,5667"/>
 <path fill="none" stroke="rgb(179,179,179)" stroke-linejoin="round" d="M 1815,4752 L 1965,4752"/>
 <path fill="none" stroke="rgb(179,179,179)" stroke-linejoin="round" d="M 1815,3839 L 1965,3839"/>
 <path fill="none" stroke="rgb(179,179,179)" stroke-linejoin="round" d="M 1815,2925 L 1965,2925"/>
 <path fill="none" stroke="rgb(179,179,179)" stroke-linejoin="round" d="M 1815,2011 L 1965,2011"/>
 <path fill="none" stroke="rgb(179,179,179)" stroke-linejoin="round" d="M 1965,11150 L 1965,2011"/>
 <path fill="none" stroke="rgb(179,179,179)" stroke-linejoin="round" d="M 15930,11150 L 15780,11150"/>
 <path fill="none" stroke="rgb(179,179,179)" stroke-linejoin="round" d="M 15930,9844 L 15780,9844"/>
 <path fill="none" stroke="rgb(179,179,179)" stroke-linejoin="round" d="M 15930,8538 L 15780,8538"/>
 <path fill="none" stroke="rgb(179,179,179)" stroke-linejoin="round" d="M 15930,7233 L 15780,7233"/>
 <path fill="none" stroke="rgb(179,179,179)" stroke-linejoin="round" d="M 15930,5928 L 15780,5928"/>
 <path fill="none" stroke="rgb(179,179,179)" stroke-linejoin="round" d="M 15930,4622 L 15780,4622"/>
 <path fill="none" stroke="rgb(179,179,179)" stroke-linejoin="round" d="M 15930,3316 L 15780,3316"/>
 <path fill="none" stroke="rgb(179,179,179)" stroke-linejoin="round" d="M 15930,2011 L 15780,2011"/>
 <path fill="none" stroke="rgb(179,179,179)" stroke-linejoin="round" d="M 15892,10497 L 15780,10497"/>
 <path fill="none" stroke="rgb(179,179,179)" stroke-linejoin="round" d="M 15892,9191 L 15780,9191"/>
 <path fill="none" stroke="rgb(179,179,179)" stroke-linejoin="round" d="M 15892,7885 L 15780,7885"/>
 <path fill="none" stroke="rgb(179,179,179)" stroke-linejoin="round" d="M 15892,6581 L 15780,6581"/>
 <path fill="none" stroke="rgb(179,179,179)" stroke-linejoin="round" d="M 15892,5275 L 15780,5275"/>
 <path fill="none" stroke="rgb(179,179,179)" stroke-linejoin="round" d="M 15892,3969 L 15780,3969"/>
 <path fill="none" stroke="rgb(179,179,179)" stroke-linejoin="round" d="M 15892,2663 L 15780,2663"/>
 <path fill="none" stroke="rgb(179,179,179)" stroke-linejoin="round" d="M 15780,11150 L 15780,2011"/>
 <path fill="rgb(87,157,28)" stroke="none" d="M 14135,11150 L 14793,11150 14793,2204 14135,2204 14135,11150 Z"/>
 <path fill="rgb(87,157,28)" stroke="none" d="M 12161,11150 L 12819,11150 12819,9459 12161,9459 12161,11150 Z"/>
 <path fill="rgb(87,157,28)" stroke="none" d="M 10187,11150 L 10845,11150 10845,9267 10187,9267 10187,11150 Z"/>
 <path fill="rgb(87,157,28)" stroke="none" d="M 8215,11150 L 8873,11150 8873,9809 8215,9809 8215,11150 Z"/>
 <path fill="rgb(87,157,28)" stroke="none" d="M 6241,11150 L 6899,11150 6899,9414 6241,9414 6241,11150 Z"/>
 <path fill="rgb(87,157,28)" stroke="none" d="M 4267,11150 L 4925,11150 4925,9850 4267,9850 4267,11150 Z"/>
 <path fill="rgb(87,157,28)" stroke="none" d="M 2293,11150 L 2951,11150 2951,10158 2293,10158 2293,11150 Z"/>
 <path fill="rgb(255,66,14)" stroke="none" d="M 14793,11150 L 15451,11150 15451,5185 14793,5185 14793,11150 Z"/>
 <path fill="rgb(255,66,14)" stroke="none" d="M 12819,11150 L 13477,11150 13477,7623 12819,7623 12819,11150 Z"/>
 <path fill="rgb(255,66,14)" stroke="none" d="M 10845,11150 L 11503,11150 11503,8193 10845,8193 10845,11150 Z"/>
 <path fill="rgb(255,66,14)" stroke="none" d="M 8873,11150 L 9530,11150 9530,6904 8873,6904 8873,11150 Z"/>
 <path fill="rgb(255,66,14)" stroke="none" d="M 6899,11150 L 7557,11150 7557,6849 6899,6849 6899,11150 Z"/>
 <path fill="rgb(255,66,14)" stroke="none" d="M 4925,11150 L 5583,11150 5583,6570 4925,6570 4925,11150 Z"/>
 <path fill="rgb(255,66,14)" stroke="none" d="M 2951,11150 L 3609,11150 3609,2536 2951,2536 2951,11150 Z"/>
 <path fill="none" stroke="rgb(0,0,0)" stroke-linejoin="round" d="M 2622,10163 L 2622,10158 2622,10153"/>
 <path fill="none" stroke="rgb(0,0,0)" stroke-linejoin="round" d="M 2722,10163 L 2522,10163"/>
 <path fill="none" stroke="rgb(0,0,0)" stroke-linejoin="round" d="M 2522,10153 L 2722,10153"/>
 <path fill="none" stroke="rgb(0,0,0)" stroke-linejoin="round" d="M 4596,9863 L 4596,9850 4596,9838"/>
 <path fill="none" stroke="rgb(0,0,0)" stroke-linejoin="round" d="M 4696,9863 L 4496,9863"/>
 <path fill="none" stroke="rgb(0,0,0)" stroke-linejoin="round" d="M 4496,9838 L 4696,9838"/>
 <path fill="none" stroke="rgb(0,0,0)" stroke-linejoin="round" d="M 6570,9458 L 6570,9414 6570,9369"/>
 <path fill="none" stroke="rgb(0,0,0)" stroke-linejoin="round" d="M 6670,9458 L 6470,9458"/>
 <path fill="none" stroke="rgb(0,0,0)" stroke-linejoin="round" d="M 6470,9369 L 6670,9369"/>
 <path fill="none" stroke="rgb(0,0,0)" stroke-linejoin="round" d="M 8544,9834 L 8544,9809 8544,9784"/>
 <path fill="none" stroke="rgb(0,0,0)" stroke-linejoin="round" d="M 8644,9834 L 8444,9834"/>
 <path fill="none" stroke="rgb(0,0,0)" stroke-linejoin="round" d="M 8444,9784 L 8644,9784"/>
 <path fill="none" stroke="rgb(0,0,0)" stroke-linejoin="round" d="M 10516,9285 L 10516,9267 10516,9248"/>
 <path fill="none" stroke="rgb(0,0,0)" stroke-linejoin="round" d="M 10616,9285 L 10416,9285"/>
 <path fill="none" stroke="rgb(0,0,0)" stroke-linejoin="round" d="M 10416,9248 L 10616,9248"/>
 <path fill="none" stroke="rgb(0,0,0)" stroke-linejoin="round" d="M 12490,9487 L 12490,9459 12490,9430"/>
 <path fill="none" stroke="rgb(0,0,0)" stroke-linejoin="round" d="M 12590,9487 L 12390,9487"/>
 <path fill="none" stroke="rgb(0,0,0)" stroke-linejoin="round" d="M 12390,9430 L 12590,9430"/>
 <path fill="none" stroke="rgb(0,0,0)" stroke-linejoin="round" d="M 14464,2226 L 14464,2204 14464,2183"/>
 <path fill="none" stroke="rgb(0,0,0)" stroke-linejoin="round" d="M 14564,2226 L 14364,2226"/>
 <path fill="none" stroke="rgb(0,0,0)" stroke-linejoin="round" d="M 14364,2183 L 14564,2183"/>
 <text class="TextShape" transform="translate(2566,12093) rotate(-44.9) translate(-2566,-12093)"><tspan class="TextParagraph" font-family="Arial" font-size="353px" font-weight="400"><tspan class="TextPosition" x="2566" y="12093"><tspan fill="rgb(33,33,33)" stroke="none">KLE</tspan></tspan></tspan></text>
 <text class="TextShape" transform="translate(4504,12130) rotate(-44.9) translate(-4504,-12130)"><tspan class="TextParagraph" font-family="Arial" font-size="353px" font-weight="400"><tspan class="TextPosition" x="4504" y="12130"><tspan fill="rgb(33,33,33)" stroke="none">PRR</tspan></tspan></tspan></text>
 <text class="TextShape" transform="translate(6346,12261) rotate(-44.9) translate(-6346,-12261)"><tspan class="TextParagraph" font-family="Arial" font-size="353px" font-weight="400"><tspan class="TextPosition" x="6346" y="12261"><tspan fill="rgb(33,33,33)" stroke="none">PRR2</tspan></tspan></tspan></text>
 <text class="TextShape" transform="translate(8507,12075) rotate(-44.9) translate(-8507,-12075)"><tspan class="TextParagraph" font-family="Arial" font-size="353px" font-weight="400"><tspan class="TextPosition" x="8507" y="12075"><tspan fill="rgb(33,33,33)" stroke="none">LQL</tspan></tspan></tspan></text>
 <text class="TextShape" transform="translate(8422,14133) rotate(-44.9) translate(-8422,-14133)"><tspan class="TextParagraph" font-family="Arial" font-size="353px" font-weight="400"><tspan class="TextPosition" x="8422" y="14133"><tspan fill="rgb(33,33,33)" stroke="none">LQR3 sem time control</tspan></tspan></tspan></text>
 <text class="TextShape" transform="translate(10396,14133) rotate(-44.9) translate(-10396,-14133)"><tspan class="TextParagraph" font-family="Arial" font-size="353px" font-weight="400"><tspan class="TextPosition" x="10396" y="14133"><tspan fill="rgb(33,33,33)" stroke="none">LQR3 com time control</tspan></tspan></tspan></text>
 <text class="TextShape" transform="translate(12857,13646) rotate(-44.9) translate(-12857,-13646)"><tspan class="TextParagraph" font-family="Arial" font-size="353px" font-weight="400"><tspan class="TextPosition" x="12857" y="13646"><tspan fill="rgb(33,33,33)" stroke="none">FIXED MAX GAIN</tspan></tspan></tspan></text>
 <text class="TextShape"><tspan class="TextParagraph" font-family="Arial" font-size="353px" font-weight="400"><tspan class="TextPosition" x="1345" y="11271"><tspan fill="rgb(33,33,33)" stroke="none">40</tspan></tspan></tspan></text>
 <text class="TextShape"><tspan class="TextParagraph" font-family="Arial" font-size="353px" font-weight="400"><tspan class="TextPosition" x="1345" y="10357"><tspan fill="rgb(33,33,33)" stroke="none">45</tspan></tspan></tspan></text>
 <text class="TextShape"><tspan class="TextParagraph" font-family="Arial" font-size="353px" font-weight="400"><tspan class="TextPosition" x="1345" y="9443"><tspan fill="rgb(33,33,33)" stroke="none">50</tspan></tspan></tspan></text>
 <text class="TextShape"><tspan class="TextParagraph" font-family="Arial" font-size="353px" font-weight="400"><tspan class="TextPosition" x="1345" y="8529"><tspan fill="rgb(33,33,33)" stroke="none">55</tspan></tspan></tspan></text>
 <text class="TextShape"><tspan class="TextParagraph" font-family="Arial" font-size="353px" font-weight="400"><tspan class="TextPosition" x="1345" y="7615"><tspan fill="rgb(33,33,33)" stroke="none">60</tspan></tspan></tspan></text>
 <text class="TextShape"><tspan class="TextParagraph" font-family="Arial" font-size="353px" font-weight="400"><tspan class="TextPosition" x="1345" y="6701"><tspan fill="rgb(33,33,33)" stroke="none">65</tspan></tspan></tspan></text>
 <text class="TextShape"><tspan class="TextParagraph" font-family="Arial" font-size="353px" font-weight="400"><tspan class="TextPosition" x="1345" y="5787"><tspan fill="rgb(33,33,33)" stroke="none">70</tspan></tspan></tspan></text>
 <text class="TextShape"><tspan class="TextParagraph" font-family="Arial" font-size="353px" font-weight="400"><tspan class="TextPosition" x="1345" y="4872"><tspan fill="rgb(33,33,33)" stroke="none">75</tspan></tspan></tspan></text>
 <text class="TextShape"><tspan class="TextParagraph" font-family="Arial" font-size="353px" font-weight="400"><tspan class="TextPosition" x="1345" y="3959"><tspan fill="rgb(33,33,33)" stroke="none">80</tspan></tspan></tspan></text>
 <text class="TextShape"><tspan class="TextParagraph" font-family="Arial" font-size="353px" font-weight="400"><tspan class="TextPosition" x="1345" y="3045"><tspan fill="rgb(33,33,33)" stroke="none">85</tspan></tspan></tspan></text>
 <text class="TextShape"><tspan class="TextParagraph" font-family="Arial" font-size="353px" font-weight="400"><tspan class="TextPosition" x="1345" y="2131"><tspan fill="rgb(33,33,33)" stroke="none">90</tspan></tspan></tspan></text>
 <text class="TextShape"><tspan class="TextParagraph" font-family="Arial" font-size="353px" font-weight="400"><tspan class="TextPosition" x="16030" y="11271"><tspan fill="rgb(33,33,33)" stroke="none">30000,00</tspan></tspan></tspan></text>
 <text class="TextShape"><tspan class="TextParagraph" font-family="Arial" font-size="353px" font-weight="400"><tspan class="TextPosition" x="16030" y="9965"><tspan fill="rgb(33,33,33)" stroke="none">50000,00</tspan></tspan></tspan></text>
 <text class="TextShape"><tspan class="TextParagraph" font-family="Arial" font-size="353px" font-weight="400"><tspan class="TextPosition" x="16030" y="8659"><tspan fill="rgb(33,33,33)" stroke="none">70000,00</tspan></tspan></tspan></text>
 <text class="TextShape"><tspan class="TextParagraph" font-family="Arial" font-size="353px" font-weight="400"><tspan class="TextPosition" x="16030" y="7353"><tspan fill="rgb(33,33,33)" stroke="none">90000,00</tspan></tspan></tspan></text>
 <text class="TextShape"><tspan class="TextParagraph" font-family="Arial" font-size="353px" font-weight="400"><tspan class="TextPosition" x="16030" y="6048"><tspan fill="rgb(33,33,33)" stroke="none">110000,00</tspan></tspan></tspan></text>
 <text class="TextShape"><tspan class="TextParagraph" font-family="Arial" font-size="353px" font-weight="400"><tspan class="TextPosition" x="16030" y="4742"><tspan fill="rgb(33,33,33)" stroke="none">130000,00</tspan></tspan></tspan></text>
 <text class="TextShape"><tspan class="TextParagraph" font-family="Arial" font-size="353px" font-weight="400"><tspan class="TextPosition" x="16030" y="3436"><tspan fill="rgb(33,33,33)" stroke="none">150000,00</tspan></tspan></tspan></text>
 <text class="TextShape"><tspan class="TextParagraph" font-family="Arial" font-size="353px" font-weight="400"><tspan class="TextPosition" x="16030" y="2131"><tspan fill="rgb(33,33,33)" stroke="none">170000,00</tspan></tspan></tspan></text>
 <text class="TextShape"><tspan class="TextParagraph" font-family="Arial" font-size="459px" font-weight="400"><tspan class="TextPosition" x="6748" y="971"><tspan fill="rgb(33,33,33)" stroke="none">Ganho e custo na transmissão</tspan></tspan></tspan><tspan class="TextParagraph" font-family="Arial" font-size="459px" font-weight="400"><tspan class="TextPosition" x="4036" y="1474"><tspan fill="rgb(33,33,33)" stroke="none">Single sender - Delay poisson 250ms - sem ruído artificial</tspan></tspan></tspan></text>
 <path fill="rgb(87,157,28)" stroke="none" d="M 18235,7201 L 18129,7201 18129,6990 18340,6990 18340,7201 18235,7201 Z"/>
 <path fill="rgb(255,66,14)" stroke="none" d="M 18235,7698 L 18129,7698 18129,7487 18340,7487 18340,7698 18235,7698 Z"/>
 <text class="TextShape"><tspan class="TextParagraph" font-family="Arial" font-size="353px" font-weight="400"><tspan class="TextPosition" x="18440" y="7215"><tspan fill="rgb(33,33,33)" stroke="none">gain</tspan></tspan></tspan></text>
 <text class="TextShape"><tspan class="TextParagraph" font-family="Arial" font-size="353px" font-weight="400"><tspan class="TextPosition" x="18440" y="7712"><tspan fill="rgb(33,33,33)" stroke="none">custo</tspan></tspan></tspan></text>
 <text class="TextShape" transform="translate(777,8980) rotate(-90) translate(-777,-8980)"><tspan class="TextParagraph" font-family="Arial" font-size="318px" font-weight="400"><tspan class="TextPosition" x="777" y="8980"><tspan fill="rgb(33,33,33)" stroke="none">Gain index</tspan></tspan></tspan></text>
</svg>