<?xml version="1.0" encoding="UTF-8"?>
<!DOCTYPE svg PUBLIC "-//W3C//DTD SVG 1.1//EN" "http://www.w3.org/Graphics/SVG/1.1/DTD/svg11.dtd">
<svg width="196mm" height="154mm" viewBox="0 0 19600 15400" version="1.1" xmlns="http://www.w3.org/2000/svg" stroke-width="28.222" stroke-linejoin="round" xml:space="preserve">
 <path fill="rgb(114,159,207)" stroke="none" d="M -73,3 L 19515,3 19515,15355 -73,15355 -73,3 Z"/>
 <path fill="none" stroke="rgb(52,101,164)" stroke-linejoin="round" d="M -73,3 L 19515,3 19515,15355 -73,15355 -73,3 Z"/>
 <path fill="rgb(255,255,255)" stroke="none" d="M 9721,15355 L -73,15355 -73,3 19515,3 19515,15355 9721,15355 Z"/>
 <path fill="none" stroke="rgb(179,179,179)" stroke-linejoin="round" d="M 8909,11811 L 1950,11811 1950,2035 15868,2035 15868,11811 8909,11811 Z"/>
 <path fill="none" stroke="rgb(179,179,179)" stroke-linejoin="round" d="M 15868,11810 L 1950,11810"/>
 <path fill="none" stroke="rgb(179,179,179)" stroke-linejoin="round" d="M 15868,10832 L 1950,10832"/>
 <path fill="none" stroke="rgb(179,179,179)" stroke-linejoin="round" d="M 15868,9854 L 1950,9854"/>
 <path fill="none" stroke="rgb(179,179,179)" stroke-linejoin="round" d="M 15868,8876 L 1950,8876"/>
 <path fill="none" stroke="rgb(179,179,179)" stroke-linejoin="round" d="M 15868,7899 L 1950,7899"/>
 <path fill="none" stroke="rgb(179,179,179)" stroke-linejoin="round" d="M 15868,6922 L 1950,6922"/>
 <path fill="none" stroke="rgb(179,179,179)" stroke-linejoin="round" d="M 15868,5944 L 1950,5944"/>
 <path fill="none" stroke="rgb(179,179,179)" stroke-linejoin="round" d="M 15868,4967 L 1950,4967"/>
 <path fill="none" stroke="rgb(179,179,179)" stroke-linejoin="round" d="M 15868,3989 L 1950,3989"/>
 <path fill="none" stroke="rgb(179,179,179)" stroke-linejoin="round" d="M 15868,3011 L 1950,3011"/>
 <path fill="none" stroke="rgb(179,179,179)" stroke-linejoin="round" d="M 15868,2034 L 1950,2034"/>
 <path fill="none" stroke="rgb(179,179,179)" stroke-linejoin="round" d="M 1950,11960 L 1950,11810"/>
 <path fill="none" stroke="rgb(179,179,179)" stroke-linejoin="round" d="M 3938,11960 L 3938,11810"/>
 <path fill="none" stroke="rgb(179,179,179)" stroke-linejoin="round" d="M 5926,11960 L 5926,11810"/>
 <path fill="none" stroke="rgb(179,179,179)" stroke-linejoin="round" d="M 7915,11960 L 7915,11810"/>
 <path fill="none" stroke="rgb(179,179,179)" stroke-linejoin="round" d="M 9902,11960 L 9902,11810"/>
 <path fill="none" stroke="rgb(179,179,179)" stroke-linejoin="round" d="M 11891,11960 L 11891,11810"/>
 <path fill="none" stroke="rgb(179,179,179)" stroke-linejoin="round" d="M 13879,11960 L 13879,11810"/>
 <path fill="none" stroke="rgb(179,179,179)" stroke-linejoin="round" d="M 15868,11960 L 15868,11810"/>
 <path fill="none" stroke="rgb(179,179,179)" stroke-linejoin="round" d="M 1950,11810 L 15868,11810"/>
 <path fill="none" stroke="rgb(179,179,179)" stroke-linejoin="round" d="M 1800,11810 L 1950,11810"/>
 <path fill="none" stroke="rgb(179,179,179)" stroke-linejoin="round" d="M 1800,10832 L 1950,10832"/>
 <path fill="none" stroke="rgb(179,179,179)" stroke-linejoin="round" d="M 1800,9854 L 1950,9854"/>
 <path fill="none" stroke="rgb(179,179,179)" stroke-linejoin="round" d="M 1800,8876 L 1950,8876"/>
 <path fill="none" stroke="rgb(179,179,179)" stroke-linejoin="round" d="M 1800,7899 L 1950,7899"/>
 <path fill="none" stroke="rgb(179,179,179)" stroke-linejoin="round" d="M 1800,6922 L 1950,6922"/>
 <path fill="none" stroke="rgb(179,179,179)" stroke-linejoin="round" d="M 1800,5944 L 1950,5944"/>
 <path fill="none" stroke="rgb(179,179,179)" stroke-linejoin="round" d="M 1800,4967 L 1950,4967"/>
 <path fill="none" stroke="rgb(179,179,179)" stroke-linejoin="round" d="M 1800,3989 L 1950,3989"/>
 <path fill="none" stroke="rgb(179,179,179)" stroke-linejoin="round" d="M 1800,3011 L 1950,3011"/>
 <path fill="none" stroke="rgb(179,179,179)" stroke-linejoin="round" d="M 1800,2034 L 1950,2034"/>
 <path fill="none" stroke="rgb(179,179,179)" stroke-linejoin="round" d="M 1950,11810 L 1950,2034"/>
 <path fill="none" stroke="rgb(179,179,179)" stroke-linejoin="round" d="M 16018,11810 L 15868,11810"/>
 <path fill="none" stroke="rgb(179,179,179)" stroke-linejoin="round" d="M 16018,10723 L 15868,10723"/>
 <path fill="none" stroke="rgb(179,179,179)" stroke-linejoin="round" d="M 16018,9637 L 15868,9637"/>
 <path fill="none" stroke="rgb(179,179,179)" stroke-linejoin="round" d="M 16018,8551 L 15868,8551"/>
 <path fill="none" stroke="rgb(179,179,179)" stroke-linejoin="round" d="M 16018,7465 L 15868,7465"/>
 <path fill="none" stroke="rgb(179,179,179)" stroke-linejoin="round" d="M 16018,6379 L 15868,6379"/>
 <path fill="none" stroke="rgb(179,179,179)" stroke-linejoin="round" d="M 16018,5292 L 15868,5292"/>
 <path fill="none" stroke="rgb(179,179,179)" stroke-linejoin="round" d="M 16018,4206 L 15868,4206"/>
 <path fill="none" stroke="rgb(179,179,179)" stroke-linejoin="round" d="M 16018,3120 L 15868,3120"/>
 <path fill="none" stroke="rgb(179,179,179)" stroke-linejoin="round" d="M 16018,2033 L 15868,2033"/>
 <path fill="none" stroke="rgb(179,179,179)" stroke-linejoin="round" d="M 15980,11266 L 15868,11266"/>
 <path fill="none" stroke="rgb(179,179,179)" stroke-linejoin="round" d="M 15980,10180 L 15868,10180"/>
 <path fill="none" stroke="rgb(179,179,179)" stroke-linejoin="round" d="M 15980,9094 L 15868,9094"/>
 <path fill="none" stroke="rgb(179,179,179)" stroke-linejoin="round" d="M 15980,8007 L 15868,8007"/>
 <path fill="none" stroke="rgb(179,179,179)" stroke-linejoin="round" d="M 15980,6922 L 15868,6922"/>
 <path fill="none" stroke="rgb(179,179,179)" stroke-linejoin="round" d="M 15980,5836 L 15868,5836"/>
 <path fill="none" stroke="rgb(179,179,179)" stroke-linejoin="round" d="M 15980,4749 L 15868,4749"/>
 <path fill="none" stroke="rgb(179,179,179)" stroke-linejoin="round" d="M 15980,3663 L 15868,3663"/>
 <path fill="none" stroke="rgb(179,179,179)" stroke-linejoin="round" d="M 15980,2577 L 15868,2577"/>
 <path fill="none" stroke="rgb(179,179,179)" stroke-linejoin="round" d="M 15868,11810 L 15868,2033"/>
 <path fill="rgb(87,157,28)" stroke="none" d="M 14210,11810 L 14873,11810 14873,2229 14210,2229 14210,11810 Z"/>
 <path fill="rgb(87,157,28)" stroke="none" d="M 12222,11810 L 12885,11810 12885,10019 12222,10019 12222,11810 Z"/>
 <path fill="rgb(87,157,28)" stroke="none" d="M 10234,11810 L 10896,11810 10896,9840 10234,9840 10234,11810 Z"/>
 <path fill="rgb(87,157,28)" stroke="none" d="M 8246,11810 L 8909,11810 8909,10493 8246,10493 8246,11810 Z"/>
 <path fill="rgb(87,157,28)" stroke="none" d="M 6258,11810 L 6921,11810 6921,9883 6258,9883 6258,11810 Z"/>
 <path fill="rgb(87,157,28)" stroke="none" d="M 4269,11810 L 4932,11810 4932,10420 4269,10420 4269,11810 Z"/>
 <path fill="rgb(87,157,28)" stroke="none" d="M 2281,11810 L 2944,11810 2944,10617 2281,10617 2281,11810 Z"/>
 <path fill="rgb(255,66,14)" stroke="none" d="M 14873,11810 L 15536,11810 15536,3026 14873,3026 14873,11810 Z"/>
 <path fill="rgb(255,66,14)" stroke="none" d="M 12885,11810 L 13548,11810 13548,9961 12885,9961 12885,11810 Z"/>
 <path fill="rgb(255,66,14)" stroke="none" d="M 10896,11810 L 11559,11810 11559,8627 10896,8627 10896,11810 Z"/>
 <path fill="rgb(255,66,14)" stroke="none" d="M 8909,11810 L 9572,11810 9572,7434 8909,7434 8909,11810 Z"/>
 <path fill="rgb(255,66,14)" stroke="none" d="M 6921,11810 L 7583,11810 7583,7448 6921,7448 6921,11810 Z"/>
 <path fill="rgb(255,66,14)" stroke="none" d="M 4932,11810 L 5595,11810 5595,6868 4932,6868 4932,11810 Z"/>
 <path fill="rgb(255,66,14)" stroke="none" d="M 2944,11810 L 3607,11810 3607,6490 2944,6490 2944,11810 Z"/>
 <path fill="none" stroke="rgb(0,0,0)" stroke-linejoin="round" d="M 2612,10654 L 2612,10617 2612,10579"/>
 <path fill="none" stroke="rgb(0,0,0)" stroke-linejoin="round" d="M 2712,10654 L 2512,10654"/>
 <path fill="none" stroke="rgb(0,0,0)" stroke-linejoin="round" d="M 2512,10579 L 2712,10579"/>
 <path fill="none" stroke="rgb(0,0,0)" stroke-linejoin="round" d="M 4601,10443 L 4601,10420 4601,10397"/>
 <path fill="none" stroke="rgb(0,0,0)" stroke-linejoin="round" d="M 4701,10443 L 4501,10443"/>
 <path fill="none" stroke="rgb(0,0,0)" stroke-linejoin="round" d="M 4501,10397 L 4701,10397"/>
 <path fill="none" stroke="rgb(0,0,0)" stroke-linejoin="round" d="M 6589,9960 L 6589,9883 6589,9807"/>
 <path fill="none" stroke="rgb(0,0,0)" stroke-linejoin="round" d="M 6689,9960 L 6489,9960"/>
 <path fill="none" stroke="rgb(0,0,0)" stroke-linejoin="round" d="M 6489,9807 L 6689,9807"/>
 <path fill="none" stroke="rgb(0,0,0)" stroke-linejoin="round" d="M 8578,10526 L 8578,10493 8578,10459"/>
 <path fill="none" stroke="rgb(0,0,0)" stroke-linejoin="round" d="M 8678,10526 L 8478,10526"/>
 <path fill="none" stroke="rgb(0,0,0)" stroke-linejoin="round" d="M 8478,10459 L 8678,10459"/>
 <path fill="none" stroke="rgb(0,0,0)" stroke-linejoin="round" d="M 10565,9860 L 10565,9840 10565,9821"/>
 <path fill="none" stroke="rgb(0,0,0)" stroke-linejoin="round" d="M 10665,9860 L 10465,9860"/>
 <path fill="none" stroke="rgb(0,0,0)" stroke-linejoin="round" d="M 10465,9821 L 10665,9821"/>
 <path fill="none" stroke="rgb(0,0,0)" stroke-linejoin="round" d="M 12553,10039 L 12553,10019 12553,10000"/>
 <path fill="none" stroke="rgb(0,0,0)" stroke-linejoin="round" d="M 12653,10039 L 12453,10039"/>
 <path fill="none" stroke="rgb(0,0,0)" stroke-linejoin="round" d="M 12453,10000 L 12653,10000"/>
 <path fill="none" stroke="rgb(0,0,0)" stroke-linejoin="round" d="M 14542,2229 L 14542,2229 Z"/>
 <path fill="none" stroke="rgb(0,0,0)" stroke-linejoin="round" d="M 14442,2229 L 14642,2229"/>
 <path fill="none" stroke="rgb(0,0,0)" stroke-linejoin="round" d="M 14442,2229 L 14642,2229"/>
 <text class="TextShape" transform="translate(2559,12753) rotate(-44.9) translate(-2559,-12753)"><tspan class="TextParagraph" font-family="Arial" font-size="353px" font-weight="400"><tspan class="TextPosition" x="2559" y="12753"><tspan fill="rgb(33,33,33)" stroke="none">KLE</tspan></tspan></tspan></text>
 <text class="TextShape" transform="translate(4511,12790) rotate(-44.9) translate(-4511,-12790)"><tspan class="TextParagraph" font-family="Arial" font-size="353px" font-weight="400"><tspan class="TextPosition" x="4511" y="12790"><tspan fill="rgb(33,33,33)" stroke="none">PRR</tspan></tspan></tspan></text>
 <text class="TextShape" transform="translate(6368,12921) rotate(-44.9) translate(-6368,-12921)"><tspan class="TextParagraph" font-family="Arial" font-size="353px" font-weight="400"><tspan class="TextPosition" x="6368" y="12921"><tspan fill="rgb(33,33,33)" stroke="none">PRR2</tspan></tspan></tspan></text>
 <text class="TextShape" transform="translate(8543,12735) rotate(-44.9) translate(-8543,-12735)"><tspan class="TextParagraph" font-family="Arial" font-size="353px" font-weight="400"><tspan class="TextPosition" x="8543" y="12735"><tspan fill="rgb(33,33,33)" stroke="none">LQL</tspan></tspan></tspan></text>
 <text class="TextShape" transform="translate(8473,14793) rotate(-44.9) translate(-8473,-14793)"><tspan class="TextParagraph" font-family="Arial" font-size="353px" font-weight="400"><tspan class="TextPosition" x="8473" y="14793"><tspan fill="rgb(33,33,33)" stroke="none">LQR3 sem time control</tspan></tspan></tspan></text>
 <text class="TextShape" transform="translate(10462,14793) rotate(-44.9) translate(-10462,-14793)"><tspan class="TextParagraph" font-family="Arial" font-size="353px" font-weight="400"><tspan class="TextPosition" x="10462" y="14793"><tspan fill="rgb(33,33,33)" stroke="none">LQR3 com time control</tspan></tspan></tspan></text>
 <text class="TextShape" transform="translate(12937,14306) rotate(-44.9) translate(-12937,-14306)"><tspan class="TextParagraph" font-family="Arial" font-size="353px" font-weight="400"><tspan class="TextPosition" x="12937" y="14306"><tspan fill="rgb(33,33,33)" stroke="none">FIXED MAX GAIN</tspan></tspan></tspan></text>
 <text class="TextShape"><tspan class="TextParagraph" font-family="Arial" font-size="353px" font-weight="400"><tspan class="TextPosition" x="1330" y="11931"><tspan fill="rgb(33,33,33)" stroke="none">40</tspan></tspan></tspan></text>
 <text class="TextShape"><tspan class="TextParagraph" font-family="Arial" font-size="353px" font-weight="400"><tspan class="TextPosition" x="1330" y="10953"><tspan fill="rgb(33,33,33)" stroke="none">45</tspan></tspan></tspan></text>
 <text class="TextShape"><tspan class="TextParagraph" font-family="Arial" font-size="353px" font-weight="400"><tspan class="TextPosition" x="1330" y="9975"><tspan fill="rgb(33,33,33)" stroke="none">50</tspan></tspan></tspan></text>
 <text class="TextShape"><tspan class="TextParagraph" font-family="Arial" font-size="353px" font-weight="400"><tspan class="TextPosition" x="1330" y="8997"><tspan fill="rgb(33,33,33)" stroke="none">55</tspan></tspan></tspan></text>
 <text class="TextShape"><tspan class="TextParagraph" font-family="Arial" font-size="353px" font-weight="400"><tspan class="TextPosition" x="1330" y="8020"><tspan fill="rgb(33,33,33)" stroke="none">60</tspan></tspan></tspan></text>
 <text class="TextShape"><tspan class="TextParagraph" font-family="Arial" font-size="353px" font-weight="400"><tspan class="TextPosition" x="1330" y="7042"><tspan fill="rgb(33,33,33)" stroke="none">65</tspan></tspan></tspan></text>
 <text class="TextShape"><tspan class="TextParagraph" font-family="Arial" font-size="353px" font-weight="400"><tspan class="TextPosition" x="1330" y="6064"><tspan fill="rgb(33,33,33)" stroke="none">70</tspan></tspan></tspan></text>
 <text class="TextShape"><tspan class="TextParagraph" font-family="Arial" font-size="353px" font-weight="400"><tspan class="TextPosition" x="1330" y="5087"><tspan fill="rgb(33,33,33)" stroke="none">75</tspan></tspan></tspan></text>
 <text class="TextShape"><tspan class="TextParagraph" font-family="Arial" font-size="353px" font-weight="400"><tspan class="TextPosition" x="1330" y="4109"><tspan fill="rgb(33,33,33)" stroke="none">80</tspan></tspan></tspan></text>
 <text class="TextShape"><tspan class="TextParagraph" font-family="Arial" font-size="353px" font-weight="400"><tspan class="TextPosition" x="1330" y="3131"><tspan fill="rgb(33,33,33)" stroke="none">85</tspan></tspan></tspan></text>
 <text class="TextShape"><tspan class="TextParagraph" font-family="Arial" font-size="353px" font-weight="400"><tspan class="TextPosition" x="1330" y="2154"><tspan fill="rgb(33,33,33)" stroke="none">90</tspan></tspan></tspan></text>
 <text class="TextShape"><tspan class="TextParagraph" font-family="Arial" font-size="353px" font-weight="400"><tspan class="TextPosition" x="16118" y="11931"><tspan fill="rgb(33,33,33)" stroke="none">20000,00</tspan></tspan></tspan></text>
 <text class="TextShape"><tspan class="TextParagraph" font-family="Arial" font-size="353px" font-weight="400"><tspan class="TextPosition" x="16118" y="10844"><tspan fill="rgb(33,33,33)" stroke="none">25000,00</tspan></tspan></tspan></text>
 <text class="TextShape"><tspan class="TextParagraph" font-family="Arial" font-size="353px" font-weight="400"><tspan class="TextPosition" x="16118" y="9758"><tspan fill="rgb(33,33,33)" stroke="none">30000,00</tspan></tspan></tspan></text>
 <text class="TextShape"><tspan class="TextParagraph" font-family="Arial" font-size="353px" font-weight="400"><tspan class="TextPosition" x="16118" y="8672"><tspan fill="rgb(33,33,33)" stroke="none">35000,00</tspan></tspan></tspan></text>
 <text class="TextShape"><tspan class="TextParagraph" font-family="Arial" font-size="353px" font-weight="400"><tspan class="TextPosition" x="16118" y="7585"><tspan fill="rgb(33,33,33)" stroke="none">40000,00</tspan></tspan></tspan></text>
 <text class="TextShape"><tspan class="TextParagraph" font-family="Arial" font-size="353px" font-weight="400"><tspan class="TextPosition" x="16118" y="6499"><tspan fill="rgb(33,33,33)" stroke="none">45000,00</tspan></tspan></tspan></text>
 <text class="TextShape"><tspan class="TextParagraph" font-family="Arial" font-size="353px" font-weight="400"><tspan class="TextPosition" x="16118" y="5412"><tspan fill="rgb(33,33,33)" stroke="none">50000,00</tspan></tspan></tspan></text>
 <text class="TextShape"><tspan class="TextParagraph" font-family="Arial" font-size="353px" font-weight="400"><tspan class="TextPosition" x="16118" y="4326"><tspan fill="rgb(33,33,33)" stroke="none">55000,00</tspan></tspan></tspan></text>
 <text class="TextShape"><tspan class="TextParagraph" font-family="Arial" font-size="353px" font-weight="400"><tspan class="TextPosition" x="16118" y="3240"><tspan fill="rgb(33,33,33)" stroke="none">60000,00</tspan></tspan></tspan></text>
 <text class="TextShape"><tspan class="TextParagraph" font-family="Arial" font-size="353px" font-weight="400"><tspan class="TextPosition" x="16118" y="2153"><tspan fill="rgb(33,33,33)" stroke="none">65000,00</tspan></tspan></tspan></text>
 <text class="TextShape"><tspan class="TextParagraph" font-family="Arial" font-size="459px" font-weight="400"><tspan class="TextPosition" x="6692" y="980"><tspan fill="rgb(33,33,33)" stroke="none">Ganho e custo na transmissão</tspan></tspan></tspan><tspan class="TextParagraph" font-family="Arial" font-size="459px" font-weight="400"><tspan class="TextPosition" x="3027" y="1483"><tspan fill="rgb(33,33,33)" stroke="none">Nó 12 - Multiple sender - Delay poisson 250ms - sem ruído artificial</tspan></tspan></tspan></text>
 <path fill="rgb(87,157,28)" stroke="none" d="M 18135,7535 L 18029,7535 18029,7324 18240,7324 18240,7535 18135,7535 Z"/>
 <path fill="rgb(255,66,14)" stroke="none" d="M 18135,8032 L 18029,8032 18029,7821 18240,7821 18240,8032 18135,8032 Z"/>
 <text class="TextShape"><tspan class="TextParagraph" font-family="Arial" font-size="353px" font-weight="400"><tspan class="TextPosition" x="18340" y="7549"><tspan fill="rgb(33,33,33)" stroke="none">gain</tspan></tspan></tspan></text>
 <text class="TextShape"><tspan class="TextParagraph" font-family="Arial" font-size="353px" font-weight="400"><tspan class="TextPosition" x="18340" y="8046"><tspan fill="rgb(33,33,33)" stroke="none">custo</tspan></tspan></tspan></text>
 <text class="TextShape" transform="translate(764,9322) rotate(-90) translate(-764,-9322)"><tspan class="TextParagraph" font-family="Arial" font-size="318px" font-weight="400"><tspan class="TextPosition" x="764" y="9322"><tspan fill="rgb(33,33,33)" stroke="none">Gain index</tspan></tspan></tspan></text>
</svg>