<?xml version="1.0" encoding="UTF-8"?>
<!DOCTYPE svg PUBLIC "-//W3C//DTD SVG 1.1//EN" "http://www.w3.org/Graphics/SVG/1.1/DTD/svg11.dtd">
<svg width="197mm" height="147mm" viewBox="0 0 19700 14700" version="1.1" xmlns="http://www.w3.org/2000/svg" stroke-width="28.222" stroke-linejoin="round" xml:space="preserve">
 <path fill="rgb(114,159,207)" stroke="none" d="M -43,8 L 19632,8 19632,14681 -43,14681 -43,8 Z"/>
 <path fill="none" stroke="rgb(52,101,164)" stroke-linejoin="round" d="M -43,8 L 19632,8 19632,14681 -43,14681 -43,8 Z"/>
 <path fill="rgb(255,255,255)" stroke="none" d="M 9795,14681 L -43,14681 -43,8 19632,8 19632,14681 9795,14681 Z"/>
 <path fill="none" stroke="rgb(179,179,179)" stroke-linejoin="round" d="M 9367,11151 L 2750,11151 2750,2012 15983,2012 15983,11151 9367,11151 Z"/>
 <path fill="none" stroke="rgb(179,179,179)" stroke-linejoin="round" d="M 15983,11150 L 2750,11150"/>
 <path fill="none" stroke="rgb(179,179,179)" stroke-linejoin="round" d="M 15983,10236 L 2750,10236"/>
 <path fill="none" stroke="rgb(179,179,179)" stroke-linejoin="round" d="M 15983,9322 L 2750,9322"/>
 <path fill="none" stroke="rgb(179,179,179)" stroke-linejoin="round" d="M 15983,8408 L 2750,8408"/>
 <path fill="none" stroke="rgb(179,179,179)" stroke-linejoin="round" d="M 15983,7494 L 2750,7494"/>
 <path fill="none" stroke="rgb(179,179,179)" stroke-linejoin="round" d="M 15983,6581 L 2750,6581"/>
 <path fill="none" stroke="rgb(179,179,179)" stroke-linejoin="round" d="M 15983,5667 L 2750,5667"/>
 <path fill="none" stroke="rgb(179,179,179)" stroke-linejoin="round" d="M 15983,4753 L 2750,4753"/>
 <path fill="none" stroke="rgb(179,179,179)" stroke-linejoin="round" d="M 15983,3839 L 2750,3839"/>
 <path fill="none" stroke="rgb(179,179,179)" stroke-linejoin="round" d="M 15983,2924 L 2750,2924"/>
 <path fill="none" stroke="rgb(179,179,179)" stroke-linejoin="round" d="M 15983,2011 L 2750,2011"/>
 <path fill="none" stroke="rgb(179,179,179)" stroke-linejoin="round" d="M 2750,11300 L 2750,11150"/>
 <path fill="none" stroke="rgb(179,179,179)" stroke-linejoin="round" d="M 4640,11300 L 4640,11150"/>
 <path fill="none" stroke="rgb(179,179,179)" stroke-linejoin="round" d="M 6531,11300 L 6531,11150"/>
 <path fill="none" stroke="rgb(179,179,179)" stroke-linejoin="round" d="M 8421,11300 L 8421,11150"/>
 <path fill="none" stroke="rgb(179,179,179)" stroke-linejoin="round" d="M 10311,11300 L 10311,11150"/>
 <path fill="none" stroke="rgb(179,179,179)" stroke-linejoin="round" d="M 12201,11300 L 12201,11150"/>
 <path fill="none" stroke="rgb(179,179,179)" stroke-linejoin="round" d="M 14092,11300 L 14092,11150"/>
 <path fill="none" stroke="rgb(179,179,179)" stroke-linejoin="round" d="M 15983,11300 L 15983,11150"/>
 <path fill="none" stroke="rgb(179,179,179)" stroke-linejoin="round" d="M 2750,11150 L 15983,11150"/>
 <path fill="none" stroke="rgb(179,179,179)" stroke-linejoin="round" d="M 2600,11150 L 2750,11150"/>
 <path fill="none" stroke="rgb(179,179,179)" stroke-linejoin="round" d="M 2600,10236 L 2750,10236"/>
 <path fill="none" stroke="rgb(179,179,179)" stroke-linejoin="round" d="M 2600,9322 L 2750,9322"/>
 <path fill="none" stroke="rgb(179,179,179)" stroke-linejoin="round" d="M 2600,8408 L 2750,8408"/>
 <path fill="none" stroke="rgb(179,179,179)" stroke-linejoin="round" d="M 2600,7494 L 2750,7494"/>
 <path fill="none" stroke="rgb(179,179,179)" stroke-linejoin="round" d="M 2600,6581 L 2750,6581"/>
 <path fill="none" stroke="rgb(179,179,179)" stroke-linejoin="round" d="M 2600,5667 L 2750,5667"/>
 <path fill="none" stroke="rgb(179,179,179)" stroke-linejoin="round" d="M 2600,4752 L 2750,4752"/>
 <path fill="none" stroke="rgb(179,179,179)" stroke-linejoin="round" d="M 2600,3839 L 2750,3839"/>
 <path fill="none" stroke="rgb(179,179,179)" stroke-linejoin="round" d="M 2600,2925 L 2750,2925"/>
 <path fill="none" stroke="rgb(179,179,179)" stroke-linejoin="round" d="M 2600,2011 L 2750,2011"/>
 <path fill="none" stroke="rgb(179,179,179)" stroke-linejoin="round" d="M 2750,11150 L 2750,2011"/>
 <path fill="none" stroke="rgb(179,179,179)" stroke-linejoin="round" d="M 16133,11150 L 15983,11150"/>
 <path fill="none" stroke="rgb(179,179,179)" stroke-linejoin="round" d="M 16133,9626 L 15983,9626"/>
 <path fill="none" stroke="rgb(179,179,179)" stroke-linejoin="round" d="M 16133,8103 L 15983,8103"/>
 <path fill="none" stroke="rgb(179,179,179)" stroke-linejoin="round" d="M 16133,6581 L 15983,6581"/>
 <path fill="none" stroke="rgb(179,179,179)" stroke-linejoin="round" d="M 16133,5057 L 15983,5057"/>
 <path fill="none" stroke="rgb(179,179,179)" stroke-linejoin="round" d="M 16133,3534 L 15983,3534"/>
 <path fill="none" stroke="rgb(179,179,179)" stroke-linejoin="round" d="M 16133,2011 L 15983,2011"/>
 <path fill="none" stroke="rgb(179,179,179)" stroke-linejoin="round" d="M 16095,10388 L 15983,10388"/>
 <path fill="none" stroke="rgb(179,179,179)" stroke-linejoin="round" d="M 16095,8865 L 15983,8865"/>
 <path fill="none" stroke="rgb(179,179,179)" stroke-linejoin="round" d="M 16095,7342 L 15983,7342"/>
 <path fill="none" stroke="rgb(179,179,179)" stroke-linejoin="round" d="M 16095,5819 L 15983,5819"/>
 <path fill="none" stroke="rgb(179,179,179)" stroke-linejoin="round" d="M 16095,4296 L 15983,4296"/>
 <path fill="none" stroke="rgb(179,179,179)" stroke-linejoin="round" d="M 16095,2772 L 15983,2772"/>
 <path fill="none" stroke="rgb(179,179,179)" stroke-linejoin="round" d="M 15983,11150 L 15983,2011"/>
 <path fill="rgb(87,157,28)" stroke="none" d="M 14407,11150 L 15037,11150 15037,2215 14407,2215 14407,11150 Z"/>
 <path fill="rgb(87,157,28)" stroke="none" d="M 12516,11150 L 13147,11150 13147,9650 12516,9650 12516,11150 Z"/>
 <path fill="rgb(87,157,28)" stroke="none" d="M 10626,11150 L 11256,11150 11256,9366 10626,9366 10626,11150 Z"/>
 <path fill="rgb(87,157,28)" stroke="none" d="M 8736,11150 L 9367,11150 9367,9764 8736,9764 8736,11150 Z"/>
 <path fill="rgb(87,157,28)" stroke="none" d="M 6846,11150 L 7476,11150 7476,9581 6846,9581 6846,11150 Z"/>
 <path fill="rgb(87,157,28)" stroke="none" d="M 4955,11150 L 5585,11150 5585,9787 4955,9787 4955,11150 Z"/>
 <path fill="rgb(87,157,28)" stroke="none" d="M 3065,11150 L 3695,11150 3695,10214 3065,10214 3065,11150 Z"/>
 <path fill="rgb(255,66,14)" stroke="none" d="M 15037,11150 L 15667,11150 15667,8023 15037,8023 15037,11150 Z"/>
 <path fill="rgb(255,66,14)" stroke="none" d="M 13147,11150 L 13777,11150 13777,9723 13147,9723 13147,11150 Z"/>
 <path fill="rgb(255,66,14)" stroke="none" d="M 11256,11150 L 11886,11150 11886,10649 11256,10649 11256,11150 Z"/>
 <path fill="rgb(255,66,14)" stroke="none" d="M 9367,11150 L 9996,11150 9996,9451 9367,9451 9367,11150 Z"/>
 <path fill="rgb(255,66,14)" stroke="none" d="M 7476,11150 L 8106,11150 8106,9680 7476,9680 7476,11150 Z"/>
 <path fill="rgb(255,66,14)" stroke="none" d="M 5585,11150 L 6216,11150 6216,9623 5585,9623 5585,11150 Z"/>
 <path fill="rgb(255,66,14)" stroke="none" d="M 3695,11150 L 4325,11150 4325,2789 3695,2789 3695,11150 Z"/>
 <path fill="none" stroke="rgb(0,0,0)" stroke-linejoin="round" d="M 3380,10219 L 3380,10214 3380,10208"/>
 <path fill="none" stroke="rgb(0,0,0)" stroke-linejoin="round" d="M 3480,10219 L 3280,10219"/>
 <path fill="none" stroke="rgb(0,0,0)" stroke-linejoin="round" d="M 3280,10208 L 3480,10208"/>
 <path fill="none" stroke="rgb(0,0,0)" stroke-linejoin="round" d="M 5270,9799 L 5270,9787 5270,9774"/>
 <path fill="none" stroke="rgb(0,0,0)" stroke-linejoin="round" d="M 5370,9799 L 5170,9799"/>
 <path fill="none" stroke="rgb(0,0,0)" stroke-linejoin="round" d="M 5170,9774 L 5370,9774"/>
 <path fill="none" stroke="rgb(0,0,0)" stroke-linejoin="round" d="M 7161,9625 L 7161,9581 7161,9537"/>
 <path fill="none" stroke="rgb(0,0,0)" stroke-linejoin="round" d="M 7261,9625 L 7061,9625"/>
 <path fill="none" stroke="rgb(0,0,0)" stroke-linejoin="round" d="M 7061,9537 L 7261,9537"/>
 <path fill="none" stroke="rgb(0,0,0)" stroke-linejoin="round" d="M 9051,9789 L 9051,9764 9051,9738"/>
 <path fill="none" stroke="rgb(0,0,0)" stroke-linejoin="round" d="M 9151,9789 L 8951,9789"/>
 <path fill="none" stroke="rgb(0,0,0)" stroke-linejoin="round" d="M 8951,9738 L 9151,9738"/>
 <path fill="none" stroke="rgb(0,0,0)" stroke-linejoin="round" d="M 10941,9385 L 10941,9366 10941,9348"/>
 <path fill="none" stroke="rgb(0,0,0)" stroke-linejoin="round" d="M 11041,9385 L 10841,9385"/>
 <path fill="none" stroke="rgb(0,0,0)" stroke-linejoin="round" d="M 10841,9348 L 11041,9348"/>
 <path fill="none" stroke="rgb(0,0,0)" stroke-linejoin="round" d="M 12832,9678 L 12832,9650 12832,9621"/>
 <path fill="none" stroke="rgb(0,0,0)" stroke-linejoin="round" d="M 12932,9678 L 12732,9678"/>
 <path fill="none" stroke="rgb(0,0,0)" stroke-linejoin="round" d="M 12732,9621 L 12932,9621"/>
 <path fill="none" stroke="rgb(0,0,0)" stroke-linejoin="round" d="M 14722,2237 L 14722,2215 14722,2194"/>
 <path fill="none" stroke="rgb(0,0,0)" stroke-linejoin="round" d="M 14822,2237 L 14622,2237"/>
 <path fill="none" stroke="rgb(0,0,0)" stroke-linejoin="round" d="M 14622,2194 L 14822,2194"/>
 <text class="TextShape" transform="translate(3310,12093) rotate(-44.9) translate(-3310,-12093)"><tspan class="TextParagraph" font-family="Arial" font-size="353px" font-weight="400"><tspan class="TextPosition" x="3310" y="12093"><tspan fill="rgb(33,33,33)" stroke="none">KLE</tspan></tspan></tspan></text>
 <text class="TextShape" transform="translate(5164,12130) rotate(-44.9) translate(-5164,-12130)"><tspan class="TextParagraph" font-family="Arial" font-size="353px" font-weight="400"><tspan class="TextPosition" x="5164" y="12130"><tspan fill="rgb(33,33,33)" stroke="none">PRR</tspan></tspan></tspan></text>
 <text class="TextShape" transform="translate(6923,12261) rotate(-44.9) translate(-6923,-12261)"><tspan class="TextParagraph" font-family="Arial" font-size="353px" font-weight="400"><tspan class="TextPosition" x="6923" y="12261"><tspan fill="rgb(33,33,33)" stroke="none">PRR2</tspan></tspan></tspan></text>
 <text class="TextShape" transform="translate(9001,12075) rotate(-44.9) translate(-9001,-12075)"><tspan class="TextParagraph" font-family="Arial" font-size="353px" font-weight="400"><tspan class="TextPosition" x="9001" y="12075"><tspan fill="rgb(33,33,33)" stroke="none">LQL</tspan></tspan></tspan></text>
 <text class="TextShape" transform="translate(8833,14133) rotate(-44.9) translate(-8833,-14133)"><tspan class="TextParagraph" font-family="Arial" font-size="353px" font-weight="400"><tspan class="TextPosition" x="8833" y="14133"><tspan fill="rgb(33,33,33)" stroke="none">LQR3 sem time control</tspan></tspan></tspan></text>
 <text class="TextShape" transform="translate(10724,14133) rotate(-44.9) translate(-10724,-14133)"><tspan class="TextParagraph" font-family="Arial" font-size="353px" font-weight="400"><tspan class="TextPosition" x="10724" y="14133"><tspan fill="rgb(33,33,33)" stroke="none">LQR3 com time control</tspan></tspan></tspan></text>
 <text class="TextShape" transform="translate(13905,12841) rotate(-44.9) translate(-13905,-12841)"><tspan class="TextParagraph" font-family="Arial" font-size="353px" font-weight="400"><tspan class="TextPosition" x="13905" y="12841"><tspan fill="rgb(33,33,33)" stroke="none">MAX GAIN</tspan></tspan></tspan></text>
 <text class="TextShape"><tspan class="TextParagraph" font-family="Arial" font-size="353px" font-weight="400"><tspan class="TextPosition" x="1362" y="11271"><tspan fill="rgb(33,33,33)" stroke="none">40,000 </tspan></tspan></tspan></text>
 <text class="TextShape"><tspan class="TextParagraph" font-family="Arial" font-size="353px" font-weight="400"><tspan class="TextPosition" x="1362" y="10357"><tspan fill="rgb(33,33,33)" stroke="none">45,000 </tspan></tspan></tspan></text>
 <text class="TextShape"><tspan class="TextParagraph" font-family="Arial" font-size="353px" font-weight="400"><tspan class="TextPosition" x="1362" y="9443"><tspan fill="rgb(33,33,33)" stroke="none">50,000 </tspan></tspan></tspan></text>
 <text class="TextShape"><tspan class="TextParagraph" font-family="Arial" font-size="353px" font-weight="400"><tspan class="TextPosition" x="1362" y="8529"><tspan fill="rgb(33,33,33)" stroke="none">55,000 </tspan></tspan></tspan></text>
 <text class="TextShape"><tspan class="TextParagraph" font-family="Arial" font-size="353px" font-weight="400"><tspan class="TextPosition" x="1362" y="7615"><tspan fill="rgb(33,33,33)" stroke="none">60,000 </tspan></tspan></tspan></text>
 <text class="TextShape"><tspan class="TextParagraph" font-family="Arial" font-size="353px" font-weight="400"><tspan class="TextPosition" x="1362" y="6701"><tspan fill="rgb(33,33,33)" stroke="none">65,000 </tspan></tspan></tspan></text>
 <text class="TextShape"><tspan class="TextParagraph" font-family="Arial" font-size="353px" font-weight="400"><tspan class="TextPosition" x="1362" y="5787"><tspan fill="rgb(33,33,33)" stroke="none">70,000 </tspan></tspan></tspan></text>
 <text class="TextShape"><tspan class="TextParagraph" font-family="Arial" font-size="353px" font-weight="400"><tspan class="TextPosition" x="1362" y="4872"><tspan fill="rgb(33,33,33)" stroke="none">75,000 </tspan></tspan></tspan></text>
 <text class="TextShape"><tspan class="TextParagraph" font-family="Arial" font-size="353px" font-weight="400"><tspan class="TextPosition" x="1362" y="3959"><tspan fill="rgb(33,33,33)" stroke="none">80,000 </tspan></tspan></tspan></text>
 <text class="TextShape"><tspan class="TextParagraph" font-family="Arial" font-size="353px" font-weight="400"><tspan class="TextPosition" x="1362" y="3045"><tspan fill="rgb(33,33,33)" stroke="none">85,000 </tspan></tspan></tspan></text>
 <text class="TextShape"><tspan class="TextParagraph" font-family="Arial" font-size="353px" font-weight="400"><tspan class="TextPosition" x="1362" y="2131"><tspan fill="rgb(33,33,33)" stroke="none">90,000 </tspan></tspan></tspan></text>
 <text class="TextShape"><tspan class="TextParagraph" font-family="Arial" font-size="353px" font-weight="400"><tspan class="TextPosition" x="16233" y="11271"><tspan fill="rgb(33,33,33)" stroke="none">20000,00</tspan></tspan></tspan></text>
 <text class="TextShape"><tspan class="TextParagraph" font-family="Arial" font-size="353px" font-weight="400"><tspan class="TextPosition" x="16233" y="9747"><tspan fill="rgb(33,33,33)" stroke="none">25000,00</tspan></tspan></tspan></text>
 <text class="TextShape"><tspan class="TextParagraph" font-family="Arial" font-size="353px" font-weight="400"><tspan class="TextPosition" x="16233" y="8224"><tspan fill="rgb(33,33,33)" stroke="none">30000,00</tspan></tspan></tspan></text>
 <text class="TextShape"><tspan class="TextParagraph" font-family="Arial" font-size="353px" font-weight="400"><tspan class="TextPosition" x="16233" y="6701"><tspan fill="rgb(33,33,33)" stroke="none">35000,00</tspan></tspan></tspan></text>
 <text class="TextShape"><tspan class="TextParagraph" font-family="Arial" font-size="353px" font-weight="400"><tspan class="TextPosition" x="16233" y="5177"><tspan fill="rgb(33,33,33)" stroke="none">40000,00</tspan></tspan></tspan></text>
 <text class="TextShape"><tspan class="TextParagraph" font-family="Arial" font-size="353px" font-weight="400"><tspan class="TextPosition" x="16233" y="3654"><tspan fill="rgb(33,33,33)" stroke="none">45000,00</tspan></tspan></tspan></text>
 <text class="TextShape"><tspan class="TextParagraph" font-family="Arial" font-size="353px" font-weight="400"><tspan class="TextPosition" x="16233" y="2131"><tspan fill="rgb(33,33,33)" stroke="none">50000,00</tspan></tspan></tspan></text>
 <text class="TextShape"><tspan class="TextParagraph" font-family="Arial" font-size="459px" font-weight="400"><tspan class="TextPosition" x="6765" y="971"><tspan fill="rgb(33,33,33)" stroke="none">Ganho e custo na transmissão</tspan></tspan></tspan><tspan class="TextParagraph" font-family="Arial" font-size="459px" font-weight="400"><tspan class="TextPosition" x="4688" y="1474"><tspan fill="rgb(33,33,33)" stroke="none">Single sender - Regular 500ms - sem ruído artificial</tspan></tspan></tspan></text>
 <path fill="rgb(87,157,28)" stroke="none" d="M 18252,7201 L 18146,7201 18146,6990 18357,6990 18357,7201 18252,7201 Z"/>
 <path fill="rgb(255,66,14)" stroke="none" d="M 18252,7698 L 18146,7698 18146,7487 18357,7487 18357,7698 18252,7698 Z"/>
 <text class="TextShape"><tspan class="TextParagraph" font-family="Arial" font-size="353px" font-weight="400"><tspan class="TextPosition" x="18457" y="7215"><tspan fill="rgb(33,33,33)" stroke="none">gain</tspan></tspan></tspan></text>
 <text class="TextShape"><tspan class="TextParagraph" font-family="Arial" font-size="353px" font-weight="400"><tspan class="TextPosition" x="18457" y="7712"><tspan fill="rgb(33,33,33)" stroke="none">custo</tspan></tspan></tspan></text>
 <text class="TextShape" transform="translate(794,8980) rotate(-90) translate(-794,-8980)"><tspan class="TextParagraph" font-family="Arial" font-size="318px" font-weight="400"><tspan class="TextPosition" x="794" y="8980"><tspan fill="rgb(33,33,33)" stroke="none">Gain index</tspan></tspan></tspan></text>
</svg>