<?xml version="1.0" encoding="UTF-8"?>
<!DOCTYPE svg PUBLIC "-//W3C//DTD SVG 1.1//EN" "http://www.w3.org/Graphics/SVG/1.1/DTD/svg11.dtd">
<svg width="179mm" height="150mm" viewBox="0 0 17900 15000" version="1.1" xmlns="http://www.w3.org/2000/svg" stroke-width="28.222" stroke-linejoin="round" xml:space="preserve">
 <path fill="rgb(114,159,207)" stroke="none" d="M -27,8 L 17905,8 17905,15004 -27,15004 -27,8 Z"/>
 <path fill="none" stroke="rgb(52,101,164)" stroke-linejoin="round" d="M -27,8 L 17905,8 17905,15004 -27,15004 -27,8 Z"/>
 <path fill="rgb(255,255,255)" stroke="none" d="M 8939,15004 L -27,15004 -27,8 17905,8 17905,15004 8939,15004 Z"/>
 <path fill="none" stroke="rgb(179,179,179)" stroke-linejoin="round" d="M 10046,11468 L 2546,11468 2546,2024 17547,2024 17547,11468 10046,11468 Z"/>
 <path fill="none" stroke="rgb(179,179,179)" stroke-linejoin="round" d="M 17547,11467 L 2546,11467"/>
 <path fill="none" stroke="rgb(179,179,179)" stroke-linejoin="round" d="M 17547,10286 L 2546,10286"/>
 <path fill="none" stroke="rgb(179,179,179)" stroke-linejoin="round" d="M 17547,9105 L 2546,9105"/>
 <path fill="none" stroke="rgb(179,179,179)" stroke-linejoin="round" d="M 17547,7925 L 2546,7925"/>
 <path fill="none" stroke="rgb(179,179,179)" stroke-linejoin="round" d="M 17547,6745 L 2546,6745"/>
 <path fill="none" stroke="rgb(179,179,179)" stroke-linejoin="round" d="M 17547,5564 L 2546,5564"/>
 <path fill="none" stroke="rgb(179,179,179)" stroke-linejoin="round" d="M 17547,4384 L 2546,4384"/>
 <path fill="none" stroke="rgb(179,179,179)" stroke-linejoin="round" d="M 17547,3203 L 2546,3203"/>
 <path fill="none" stroke="rgb(179,179,179)" stroke-linejoin="round" d="M 17547,2023 L 2546,2023"/>
 <path fill="none" stroke="rgb(179,179,179)" stroke-linejoin="round" d="M 2546,11617 L 2546,11467"/>
 <path fill="none" stroke="rgb(179,179,179)" stroke-linejoin="round" d="M 4689,11617 L 4689,11467"/>
 <path fill="none" stroke="rgb(179,179,179)" stroke-linejoin="round" d="M 6832,11617 L 6832,11467"/>
 <path fill="none" stroke="rgb(179,179,179)" stroke-linejoin="round" d="M 8974,11617 L 8974,11467"/>
 <path fill="none" stroke="rgb(179,179,179)" stroke-linejoin="round" d="M 11117,11617 L 11117,11467"/>
 <path fill="none" stroke="rgb(179,179,179)" stroke-linejoin="round" d="M 13260,11617 L 13260,11467"/>
 <path fill="none" stroke="rgb(179,179,179)" stroke-linejoin="round" d="M 15403,11617 L 15403,11467"/>
 <path fill="none" stroke="rgb(179,179,179)" stroke-linejoin="round" d="M 17547,11617 L 17547,11467"/>
 <path fill="none" stroke="rgb(179,179,179)" stroke-linejoin="round" d="M 2546,11467 L 17547,11467"/>
 <path fill="none" stroke="rgb(179,179,179)" stroke-linejoin="round" d="M 2396,11467 L 2546,11467"/>
 <path fill="none" stroke="rgb(179,179,179)" stroke-linejoin="round" d="M 2396,10286 L 2546,10286"/>
 <path fill="none" stroke="rgb(179,179,179)" stroke-linejoin="round" d="M 2396,9105 L 2546,9105"/>
 <path fill="none" stroke="rgb(179,179,179)" stroke-linejoin="round" d="M 2396,7925 L 2546,7925"/>
 <path fill="none" stroke="rgb(179,179,179)" stroke-linejoin="round" d="M 2396,6745 L 2546,6745"/>
 <path fill="none" stroke="rgb(179,179,179)" stroke-linejoin="round" d="M 2396,5564 L 2546,5564"/>
 <path fill="none" stroke="rgb(179,179,179)" stroke-linejoin="round" d="M 2396,4384 L 2546,4384"/>
 <path fill="none" stroke="rgb(179,179,179)" stroke-linejoin="round" d="M 2396,3203 L 2546,3203"/>
 <path fill="none" stroke="rgb(179,179,179)" stroke-linejoin="round" d="M 2396,2023 L 2546,2023"/>
 <path fill="none" stroke="rgb(179,179,179)" stroke-linejoin="round" d="M 2546,11467 L 2546,2023"/>
 <path fill="rgb(0,69,134)" stroke="none" d="M 15939,11467 L 17011,11467 17011,10593 15939,10593 15939,11467 Z"/>
 <path fill="rgb(0,69,134)" stroke="none" d="M 13796,11467 L 14868,11467 14868,9727 13796,9727 13796,11467 Z"/>
 <path fill="rgb(0,69,134)" stroke="none" d="M 11653,11467 L 12724,11467 12724,10278 11653,10278 11653,11467 Z"/>
 <path fill="rgb(0,69,134)" stroke="none" d="M 9510,11467 L 10581,11467 10581,8916 9510,8916 9510,11467 Z"/>
 <path fill="rgb(0,69,134)" stroke="none" d="M 7368,11467 L 8439,11467 8439,9145 7368,9145 7368,11467 Z"/>
 <path fill="rgb(0,69,134)" stroke="none" d="M 5224,11467 L 6296,11467 6296,8602 5224,8602 5224,11467 Z"/>
 <path fill="rgb(0,69,134)" stroke="none" d="M 3081,11467 L 4153,11467 4153,2817 3081,2817 3081,11467 Z"/>
 <path fill="none" stroke="rgb(0,0,0)" stroke-linejoin="round" d="M 3617,3555 L 3617,2817 3617,2080"/>
 <path fill="none" stroke="rgb(0,0,0)" stroke-linejoin="round" d="M 3717,3555 L 3517,3555"/>
 <path fill="none" stroke="rgb(0,0,0)" stroke-linejoin="round" d="M 3517,2080 L 3717,2080"/>
 <path fill="none" stroke="rgb(0,0,0)" stroke-linejoin="round" d="M 5760,8710 L 5760,8602 5760,8494"/>
 <path fill="none" stroke="rgb(0,0,0)" stroke-linejoin="round" d="M 5860,8710 L 5660,8710"/>
 <path fill="none" stroke="rgb(0,0,0)" stroke-linejoin="round" d="M 5660,8494 L 5860,8494"/>
 <path fill="none" stroke="rgb(0,0,0)" stroke-linejoin="round" d="M 7903,9160 L 7903,9145 7903,9129"/>
 <path fill="none" stroke="rgb(0,0,0)" stroke-linejoin="round" d="M 8003,9160 L 7803,9160"/>
 <path fill="none" stroke="rgb(0,0,0)" stroke-linejoin="round" d="M 7803,9129 L 8003,9129"/>
 <path fill="none" stroke="rgb(0,0,0)" stroke-linejoin="round" d="M 10046,8987 L 10046,8916 10046,8846"/>
 <path fill="none" stroke="rgb(0,0,0)" stroke-linejoin="round" d="M 10146,8987 L 9946,8987"/>
 <path fill="none" stroke="rgb(0,0,0)" stroke-linejoin="round" d="M 9946,8846 L 10146,8846"/>
 <path fill="none" stroke="rgb(0,0,0)" stroke-linejoin="round" d="M 12189,10389 L 12189,10278 12189,10167"/>
 <path fill="none" stroke="rgb(0,0,0)" stroke-linejoin="round" d="M 12289,10389 L 12089,10389"/>
 <path fill="none" stroke="rgb(0,0,0)" stroke-linejoin="round" d="M 12089,10167 L 12289,10167"/>
 <path fill="none" stroke="rgb(0,0,0)" stroke-linejoin="round" d="M 14332,9809 L 14332,9727 14332,9645"/>
 <path fill="none" stroke="rgb(0,0,0)" stroke-linejoin="round" d="M 14432,9809 L 14232,9809"/>
 <path fill="none" stroke="rgb(0,0,0)" stroke-linejoin="round" d="M 14232,9645 L 14432,9645"/>
 <path fill="none" stroke="rgb(0,0,0)" stroke-linejoin="round" d="M 16475,10685 L 16475,10593 16475,10500"/>
 <path fill="none" stroke="rgb(0,0,0)" stroke-linejoin="round" d="M 16575,10685 L 16375,10685"/>
 <path fill="none" stroke="rgb(0,0,0)" stroke-linejoin="round" d="M 16375,10500 L 16575,10500"/>
 <text class="TextShape" transform="translate(3232,12410) rotate(-44.9) translate(-3232,-12410)"><tspan class="TextParagraph" font-family="Arial" font-size="353px" font-weight="400"><tspan class="TextPosition" x="3232" y="12410"><tspan fill="rgb(33,33,33)" stroke="none">KLE</tspan></tspan></tspan></text>
 <text class="TextShape" transform="translate(5339,12447) rotate(-44.9) translate(-5339,-12447)"><tspan class="TextParagraph" font-family="Arial" font-size="353px" font-weight="400"><tspan class="TextPosition" x="5339" y="12447"><tspan fill="rgb(33,33,33)" stroke="none">PRR</tspan></tspan></tspan></text>
 <text class="TextShape" transform="translate(7350,12578) rotate(-44.9) translate(-7350,-12578)"><tspan class="TextParagraph" font-family="Arial" font-size="353px" font-weight="400"><tspan class="TextPosition" x="7350" y="12578"><tspan fill="rgb(33,33,33)" stroke="none">PRR2</tspan></tspan></tspan></text>
 <text class="TextShape" transform="translate(9681,12392) rotate(-44.9) translate(-9681,-12392)"><tspan class="TextParagraph" font-family="Arial" font-size="353px" font-weight="400"><tspan class="TextPosition" x="9681" y="12392"><tspan fill="rgb(33,33,33)" stroke="none">LQL</tspan></tspan></tspan></text>
 <text class="TextShape" transform="translate(9766,14450) rotate(-44.9) translate(-9766,-14450)"><tspan class="TextParagraph" font-family="Arial" font-size="353px" font-weight="400"><tspan class="TextPosition" x="9766" y="14450"><tspan fill="rgb(33,33,33)" stroke="none">LQR3 sem time control</tspan></tspan></tspan></text>
 <text class="TextShape" transform="translate(11909,14450) rotate(-44.9) translate(-11909,-14450)"><tspan class="TextParagraph" font-family="Arial" font-size="353px" font-weight="400"><tspan class="TextPosition" x="11909" y="14450"><tspan fill="rgb(33,33,33)" stroke="none">LQR3 com time control</tspan></tspan></tspan></text>
 <text class="TextShape" transform="translate(14538,13963) rotate(-44.9) translate(-14538,-13963)"><tspan class="TextParagraph" font-family="Arial" font-size="353px" font-weight="400"><tspan class="TextPosition" x="14538" y="13963"><tspan fill="rgb(33,33,33)" stroke="none">FIXED MAX GAIN</tspan></tspan></tspan></text>
 <text class="TextShape"><tspan class="TextParagraph" font-family="Arial" font-size="353px" font-weight="400"><tspan class="TextPosition" x="1343" y="11588"><tspan fill="rgb(33,33,33)" stroke="none">1,000 </tspan></tspan></tspan></text>
 <text class="TextShape"><tspan class="TextParagraph" font-family="Arial" font-size="353px" font-weight="400"><tspan class="TextPosition" x="1343" y="10407"><tspan fill="rgb(33,33,33)" stroke="none">1,500 </tspan></tspan></tspan></text>
 <text class="TextShape"><tspan class="TextParagraph" font-family="Arial" font-size="353px" font-weight="400"><tspan class="TextPosition" x="1343" y="9226"><tspan fill="rgb(33,33,33)" stroke="none">2,000 </tspan></tspan></tspan></text>
 <text class="TextShape"><tspan class="TextParagraph" font-family="Arial" font-size="353px" font-weight="400"><tspan class="TextPosition" x="1343" y="8046"><tspan fill="rgb(33,33,33)" stroke="none">2,500 </tspan></tspan></tspan></text>
 <text class="TextShape"><tspan class="TextParagraph" font-family="Arial" font-size="353px" font-weight="400"><tspan class="TextPosition" x="1343" y="6865"><tspan fill="rgb(33,33,33)" stroke="none">3,000 </tspan></tspan></tspan></text>
 <text class="TextShape"><tspan class="TextParagraph" font-family="Arial" font-size="353px" font-weight="400"><tspan class="TextPosition" x="1343" y="5684"><tspan fill="rgb(33,33,33)" stroke="none">3,500 </tspan></tspan></tspan></text>
 <text class="TextShape"><tspan class="TextParagraph" font-family="Arial" font-size="353px" font-weight="400"><tspan class="TextPosition" x="1343" y="4504"><tspan fill="rgb(33,33,33)" stroke="none">4,000 </tspan></tspan></tspan></text>
 <text class="TextShape"><tspan class="TextParagraph" font-family="Arial" font-size="353px" font-weight="400"><tspan class="TextPosition" x="1343" y="3323"><tspan fill="rgb(33,33,33)" stroke="none">4,500 </tspan></tspan></tspan></text>
 <text class="TextShape"><tspan class="TextParagraph" font-family="Arial" font-size="353px" font-weight="400"><tspan class="TextPosition" x="1343" y="2143"><tspan fill="rgb(33,33,33)" stroke="none">5,000 </tspan></tspan></tspan></text>
 <text class="TextShape"><tspan class="TextParagraph" font-family="Arial" font-size="459px" font-weight="400"><tspan class="TextPosition" x="4957" y="977"><tspan fill="rgb(33,33,33)" stroke="none">Relação transmissões / pacote recebido</tspan></tspan></tspan><tspan class="TextParagraph" font-family="Arial" font-size="459px" font-weight="400"><tspan class="TextPosition" x="3197" y="1480"><tspan fill="rgb(33,33,33)" stroke="none">Single sender - Delay poisson 250ms - sem ruído artificial</tspan></tspan></tspan></text>
 <text class="TextShape" transform="translate(810,8973) rotate(-90) translate(-810,-8973)"><tspan class="TextParagraph" font-family="Arial" font-size="318px" font-weight="400"><tspan class="TextPosition" x="810" y="8973"><tspan fill="rgb(33,33,33)" stroke="none">Relação</tspan></tspan></tspan></text>
</svg>