<?xml version="1.0" encoding="UTF-8"?>
<!DOCTYPE svg PUBLIC "-//W3C//DTD SVG 1.1//EN" "http://www.w3.org/Graphics/SVG/1.1/DTD/svg11.dtd">
<svg width="196mm" height="153mm" viewBox="0 0 19600 15300" version="1.1" xmlns="http://www.w3.org/2000/svg" stroke-width="28.222" stroke-linejoin="round" xml:space="preserve">
 <path fill="rgb(114,159,207)" stroke="none" d="M -20,4 L 19596,4 19596,15346 -20,15346 -20,4 Z"/>
 <path fill="none" stroke="rgb(52,101,164)" stroke-linejoin="round" d="M -20,4 L 19596,4 19596,15346 -20,15346 -20,4 Z"/>
 <path fill="rgb(255,255,255)" stroke="none" d="M 9788,15346 L -20,15346 -20,4 19596,4 19596,15346 9788,15346 Z"/>
 <path fill="none" stroke="rgb(179,179,179)" stroke-linejoin="round" d="M 10319,12002 L 2983,12002 2983,2034 17655,2034 17655,12002 10319,12002 Z"/>
 <path fill="none" stroke="rgb(179,179,179)" stroke-linejoin="round" d="M 17655,12000 L 2983,12000"/>
 <path fill="none" stroke="rgb(179,179,179)" stroke-linejoin="round" d="M 17655,10083 L 2983,10083"/>
 <path fill="none" stroke="rgb(179,179,179)" stroke-linejoin="round" d="M 17655,8166 L 2983,8166"/>
 <path fill="none" stroke="rgb(179,179,179)" stroke-linejoin="round" d="M 17655,6250 L 2983,6250"/>
 <path fill="none" stroke="rgb(179,179,179)" stroke-linejoin="round" d="M 17655,4333 L 2983,4333"/>
 <path fill="none" stroke="rgb(179,179,179)" stroke-linejoin="round" d="M 17655,2416 L 2983,2416"/>
 <path fill="none" stroke="rgb(179,179,179)" stroke-linejoin="round" d="M 2983,12150 L 2983,12000"/>
 <path fill="none" stroke="rgb(179,179,179)" stroke-linejoin="round" d="M 5079,12150 L 5079,12000"/>
 <path fill="none" stroke="rgb(179,179,179)" stroke-linejoin="round" d="M 7175,12150 L 7175,12000"/>
 <path fill="none" stroke="rgb(179,179,179)" stroke-linejoin="round" d="M 9271,12150 L 9271,12000"/>
 <path fill="none" stroke="rgb(179,179,179)" stroke-linejoin="round" d="M 11366,12150 L 11366,12000"/>
 <path fill="none" stroke="rgb(179,179,179)" stroke-linejoin="round" d="M 13462,12150 L 13462,12000"/>
 <path fill="none" stroke="rgb(179,179,179)" stroke-linejoin="round" d="M 15558,12150 L 15558,12000"/>
 <path fill="none" stroke="rgb(179,179,179)" stroke-linejoin="round" d="M 17655,12150 L 17655,12000"/>
 <path fill="none" stroke="rgb(179,179,179)" stroke-linejoin="round" d="M 2983,12000 L 17655,12000"/>
 <path fill="none" stroke="rgb(179,179,179)" stroke-linejoin="round" d="M 2833,12000 L 2983,12000"/>
 <path fill="none" stroke="rgb(179,179,179)" stroke-linejoin="round" d="M 2833,10083 L 2983,10083"/>
 <path fill="none" stroke="rgb(179,179,179)" stroke-linejoin="round" d="M 2833,8166 L 2983,8166"/>
 <path fill="none" stroke="rgb(179,179,179)" stroke-linejoin="round" d="M 2833,6250 L 2983,6250"/>
 <path fill="none" stroke="rgb(179,179,179)" stroke-linejoin="round" d="M 2833,4333 L 2983,4333"/>
 <path fill="none" stroke="rgb(179,179,179)" stroke-linejoin="round" d="M 2833,2416 L 2983,2416"/>
 <path fill="none" stroke="rgb(179,179,179)" stroke-linejoin="round" d="M 2983,12000 L 2983,2032"/>
 <path fill="rgb(0,69,134)" stroke="none" d="M 15768,12000 L 16187,12000 16187,2416 15768,2416 15768,12000 Z"/>
 <path fill="rgb(0,69,134)" stroke="none" d="M 13672,12000 L 14091,12000 14091,2416 13672,2416 13672,12000 Z"/>
 <path fill="rgb(0,69,134)" stroke="none" d="M 11576,12000 L 11995,12000 11995,3145 11576,3145 11576,12000 Z"/>
 <path fill="rgb(0,69,134)" stroke="none" d="M 9481,12000 L 9899,12000 9899,2684 9481,2684 9481,12000 Z"/>
 <path fill="rgb(0,69,134)" stroke="none" d="M 7384,12000 L 7804,12000 7804,2608 7384,2608 7384,12000 Z"/>
 <path fill="rgb(0,69,134)" stroke="none" d="M 5288,12000 L 5707,12000 5707,2608 5288,2608 5288,12000 Z"/>
 <path fill="rgb(0,69,134)" stroke="none" d="M 3192,12000 L 3611,12000 3611,8143 3192,8143 3192,12000 Z"/>
 <path fill="rgb(255,66,14)" stroke="none" d="M 16187,12000 L 16606,12000 16606,2531 16187,2531 16187,12000 Z"/>
 <path fill="rgb(255,66,14)" stroke="none" d="M 14091,12000 L 14510,12000 14510,2454 14091,2454 14091,12000 Z"/>
 <path fill="rgb(255,66,14)" stroke="none" d="M 11995,12000 L 12414,12000 12414,2836 11995,2836 11995,12000 Z"/>
 <path fill="rgb(255,66,14)" stroke="none" d="M 9899,12000 L 10318,12000 10318,2837 9899,2837 9899,12000 Z"/>
 <path fill="rgb(255,66,14)" stroke="none" d="M 7804,12000 L 8223,12000 8223,2569 7804,2569 7804,12000 Z"/>
 <path fill="rgb(255,66,14)" stroke="none" d="M 5707,12000 L 6127,12000 6127,2990 5707,2990 5707,12000 Z"/>
 <path fill="rgb(255,66,14)" stroke="none" d="M 3611,12000 L 4031,12000 4031,3220 3611,3220 3611,12000 Z"/>
 <path fill="rgb(255,211,32)" stroke="none" d="M 16606,12000 L 17026,12000 17026,2454 16606,2454 16606,12000 Z"/>
 <path fill="rgb(255,211,32)" stroke="none" d="M 14510,12000 L 14930,12000 14930,2607 14510,2607 14510,12000 Z"/>
 <path fill="rgb(255,211,32)" stroke="none" d="M 12414,12000 L 12833,12000 12833,3868 12414,3868 12414,12000 Z"/>
 <path fill="rgb(255,211,32)" stroke="none" d="M 10318,12000 L 10737,12000 10737,3564 10318,3564 10318,12000 Z"/>
 <path fill="rgb(255,211,32)" stroke="none" d="M 8223,12000 L 8642,12000 8642,3181 8223,3181 8223,12000 Z"/>
 <path fill="rgb(255,211,32)" stroke="none" d="M 6127,12000 L 6546,12000 6546,3869 6127,3869 6127,12000 Z"/>
 <path fill="rgb(255,211,32)" stroke="none" d="M 4031,12000 L 4450,12000 4450,6617 4031,6617 4031,12000 Z"/>
 <path fill="rgb(87,157,28)" stroke="none" d="M 17026,12000 L 17445,12000 17445,2761 17026,2761 17026,12000 Z"/>
 <path fill="rgb(87,157,28)" stroke="none" d="M 14930,12000 L 15349,12000 15349,2608 14930,2608 14930,12000 Z"/>
 <path fill="rgb(87,157,28)" stroke="none" d="M 12833,12000 L 13253,12000 13253,3451 12833,3451 12833,12000 Z"/>
 <path fill="rgb(87,157,28)" stroke="none" d="M 10737,12000 L 11156,12000 11156,3908 10737,3908 10737,12000 Z"/>
 <path fill="rgb(87,157,28)" stroke="none" d="M 8642,12000 L 9061,12000 9061,3447 8642,3447 8642,12000 Z"/>
 <path fill="rgb(87,157,28)" stroke="none" d="M 6546,12000 L 6965,12000 6965,3867 6546,3867 6546,12000 Z"/>
 <path fill="none" stroke="rgb(0,0,0)" stroke-linejoin="round" d="M 3402,11288 L 3402,8143 3402,4999"/>
 <path fill="none" stroke="rgb(0,0,0)" stroke-linejoin="round" d="M 3502,11288 L 3302,11288"/>
 <path fill="none" stroke="rgb(0,0,0)" stroke-linejoin="round" d="M 3302,4999 L 3502,4999"/>
 <path fill="none" stroke="rgb(0,0,0)" stroke-linejoin="round" d="M 5498,2983 L 5498,2608 5498,2232"/>
 <path fill="none" stroke="rgb(0,0,0)" stroke-linejoin="round" d="M 5598,2983 L 5398,2983"/>
 <path fill="none" stroke="rgb(0,0,0)" stroke-linejoin="round" d="M 5398,2232 L 5598,2232"/>
 <path fill="none" stroke="rgb(0,0,0)" stroke-linejoin="round" d="M 7594,2669 L 7594,2608 7594,2546"/>
 <path fill="none" stroke="rgb(0,0,0)" stroke-linejoin="round" d="M 7694,2669 L 7494,2669"/>
 <path fill="none" stroke="rgb(0,0,0)" stroke-linejoin="round" d="M 7494,2546 L 7694,2546"/>
 <path fill="none" stroke="rgb(0,0,0)" stroke-linejoin="round" d="M 9690,3210 L 9690,2684 9690,2158"/>
 <path fill="none" stroke="rgb(0,0,0)" stroke-linejoin="round" d="M 9789,3210 L 9590,3210"/>
 <path fill="none" stroke="rgb(0,0,0)" stroke-linejoin="round" d="M 9590,2158 L 9789,2158"/>
 <path fill="none" stroke="rgb(0,0,0)" stroke-linejoin="round" d="M 11785,3963 L 11785,3145 11785,2328"/>
 <path fill="none" stroke="rgb(0,0,0)" stroke-linejoin="round" d="M 11885,3963 L 11685,3963"/>
 <path fill="none" stroke="rgb(0,0,0)" stroke-linejoin="round" d="M 11685,2328 L 11885,2328"/>
 <path fill="none" stroke="rgb(0,0,0)" stroke-linejoin="round" d="M 13881,2416 L 13881,2416 Z"/>
 <path fill="none" stroke="rgb(0,0,0)" stroke-linejoin="round" d="M 13781,2416 L 13981,2416"/>
 <path fill="none" stroke="rgb(0,0,0)" stroke-linejoin="round" d="M 13781,2416 L 13981,2416"/>
 <path fill="none" stroke="rgb(0,0,0)" stroke-linejoin="round" d="M 15978,2416 L 15978,2416 Z"/>
 <path fill="none" stroke="rgb(0,0,0)" stroke-linejoin="round" d="M 15878,2416 L 16078,2416"/>
 <path fill="none" stroke="rgb(0,0,0)" stroke-linejoin="round" d="M 15878,2416 L 16078,2416"/>
 <path fill="none" stroke="rgb(0,0,0)" stroke-linejoin="round" d="M 3821,3898 L 3821,3220 3821,2542"/>
 <path fill="none" stroke="rgb(0,0,0)" stroke-linejoin="round" d="M 3921,3898 L 3721,3898"/>
 <path fill="none" stroke="rgb(0,0,0)" stroke-linejoin="round" d="M 3721,2542 L 3921,2542"/>
 <path fill="none" stroke="rgb(0,0,0)" stroke-linejoin="round" d="M 5917,3063 L 5917,2990 5917,2917"/>
 <path fill="none" stroke="rgb(0,0,0)" stroke-linejoin="round" d="M 6017,3063 L 5817,3063"/>
 <path fill="none" stroke="rgb(0,0,0)" stroke-linejoin="round" d="M 5817,2917 L 6017,2917"/>
 <path fill="none" stroke="rgb(0,0,0)" stroke-linejoin="round" d="M 8013,2720 L 8013,2569 8013,2419"/>
 <path fill="none" stroke="rgb(0,0,0)" stroke-linejoin="round" d="M 8113,2720 L 7913,2720"/>
 <path fill="none" stroke="rgb(0,0,0)" stroke-linejoin="round" d="M 7913,2419 L 8113,2419"/>
 <path fill="none" stroke="rgb(0,0,0)" stroke-linejoin="round" d="M 10108,3361 L 10108,2837 10108,2313"/>
 <path fill="none" stroke="rgb(0,0,0)" stroke-linejoin="round" d="M 10208,3361 L 10008,3361"/>
 <path fill="none" stroke="rgb(0,0,0)" stroke-linejoin="round" d="M 10008,2313 L 10208,2313"/>
 <path fill="none" stroke="rgb(0,0,0)" stroke-linejoin="round" d="M 12205,3508 L 12205,2836 12205,2163"/>
 <path fill="none" stroke="rgb(0,0,0)" stroke-linejoin="round" d="M 12305,3508 L 12105,3508"/>
 <path fill="none" stroke="rgb(0,0,0)" stroke-linejoin="round" d="M 12105,2163 L 12305,2163"/>
 <path fill="none" stroke="rgb(0,0,0)" stroke-linejoin="round" d="M 14301,2529 L 14301,2454 14301,2379"/>
 <path fill="none" stroke="rgb(0,0,0)" stroke-linejoin="round" d="M 14401,2529 L 14201,2529"/>
 <path fill="none" stroke="rgb(0,0,0)" stroke-linejoin="round" d="M 14201,2379 L 14401,2379"/>
 <path fill="none" stroke="rgb(0,0,0)" stroke-linejoin="round" d="M 16397,2756 L 16397,2531 16397,2306"/>
 <path fill="none" stroke="rgb(0,0,0)" stroke-linejoin="round" d="M 16497,2756 L 16297,2756"/>
 <path fill="none" stroke="rgb(0,0,0)" stroke-linejoin="round" d="M 16297,2306 L 16497,2306"/>
 <path fill="none" stroke="rgb(0,0,0)" stroke-linejoin="round" d="M 4240,8449 L 4240,6617 4240,4784"/>
 <path fill="none" stroke="rgb(0,0,0)" stroke-linejoin="round" d="M 4340,8449 L 4140,8449"/>
 <path fill="none" stroke="rgb(0,0,0)" stroke-linejoin="round" d="M 4140,4784 L 4340,4784"/>
 <path fill="none" stroke="rgb(0,0,0)" stroke-linejoin="round" d="M 6336,4477 L 6336,3869 6336,3262"/>
 <path fill="none" stroke="rgb(0,0,0)" stroke-linejoin="round" d="M 6436,4477 L 6236,4477"/>
 <path fill="none" stroke="rgb(0,0,0)" stroke-linejoin="round" d="M 6236,3262 L 6436,3262"/>
 <path fill="none" stroke="rgb(0,0,0)" stroke-linejoin="round" d="M 8432,3184 L 8432,3181 8432,3178"/>
 <path fill="none" stroke="rgb(0,0,0)" stroke-linejoin="round" d="M 8532,3184 L 8332,3184"/>
 <path fill="none" stroke="rgb(0,0,0)" stroke-linejoin="round" d="M 8332,3178 L 8532,3178"/>
 <path fill="none" stroke="rgb(0,0,0)" stroke-linejoin="round" d="M 10528,3564 L 10528,3564 Z"/>
 <path fill="none" stroke="rgb(0,0,0)" stroke-linejoin="round" d="M 10428,3564 L 10628,3564"/>
 <path fill="none" stroke="rgb(0,0,0)" stroke-linejoin="round" d="M 10428,3564 L 10628,3564"/>
 <path fill="none" stroke="rgb(0,0,0)" stroke-linejoin="round" d="M 12624,3868 L 12624,3868 Z"/>
 <path fill="none" stroke="rgb(0,0,0)" stroke-linejoin="round" d="M 12524,3868 L 12724,3868"/>
 <path fill="none" stroke="rgb(0,0,0)" stroke-linejoin="round" d="M 12524,3868 L 12724,3868"/>
 <path fill="none" stroke="rgb(0,0,0)" stroke-linejoin="round" d="M 14720,2607 L 14720,2607 Z"/>
 <path fill="none" stroke="rgb(0,0,0)" stroke-linejoin="round" d="M 14620,2607 L 14820,2607"/>
 <path fill="none" stroke="rgb(0,0,0)" stroke-linejoin="round" d="M 14620,2607 L 14820,2607"/>
 <path fill="none" stroke="rgb(0,0,0)" stroke-linejoin="round" d="M 16816,2454 L 16816,2454 Z"/>
 <path fill="none" stroke="rgb(0,0,0)" stroke-linejoin="round" d="M 16716,2454 L 16916,2454"/>
 <path fill="none" stroke="rgb(0,0,0)" stroke-linejoin="round" d="M 16716,2454 L 16916,2454"/>
 <path fill="none" stroke="rgb(0,0,0)" stroke-linejoin="round" d="M 6756,4113 L 6756,3867 6756,3622"/>
 <path fill="none" stroke="rgb(0,0,0)" stroke-linejoin="round" d="M 6856,4113 L 6656,4113"/>
 <path fill="none" stroke="rgb(0,0,0)" stroke-linejoin="round" d="M 6656,3622 L 6856,3622"/>
 <path fill="none" stroke="rgb(0,0,0)" stroke-linejoin="round" d="M 8852,3631 L 8852,3447 8852,3263"/>
 <path fill="none" stroke="rgb(0,0,0)" stroke-linejoin="round" d="M 8952,3631 L 8752,3631"/>
 <path fill="none" stroke="rgb(0,0,0)" stroke-linejoin="round" d="M 8752,3263 L 8952,3263"/>
 <path fill="none" stroke="rgb(0,0,0)" stroke-linejoin="round" d="M 10947,3908 L 10947,3908 Z"/>
 <path fill="none" stroke="rgb(0,0,0)" stroke-linejoin="round" d="M 10847,3908 L 11047,3908"/>
 <path fill="none" stroke="rgb(0,0,0)" stroke-linejoin="round" d="M 10847,3908 L 11047,3908"/>
 <path fill="none" stroke="rgb(0,0,0)" stroke-linejoin="round" d="M 13043,3451 L 13043,3451 Z"/>
 <path fill="none" stroke="rgb(0,0,0)" stroke-linejoin="round" d="M 12943,3451 L 13143,3451"/>
 <path fill="none" stroke="rgb(0,0,0)" stroke-linejoin="round" d="M 12943,3451 L 13143,3451"/>
 <path fill="none" stroke="rgb(0,0,0)" stroke-linejoin="round" d="M 15139,2608 L 15139,2608 Z"/>
 <path fill="none" stroke="rgb(0,0,0)" stroke-linejoin="round" d="M 15039,2608 L 15239,2608"/>
 <path fill="none" stroke="rgb(0,0,0)" stroke-linejoin="round" d="M 15039,2608 L 15239,2608"/>
 <path fill="none" stroke="rgb(0,0,0)" stroke-linejoin="round" d="M 17235,2761 L 17235,2761 Z"/>
 <path fill="none" stroke="rgb(0,0,0)" stroke-linejoin="round" d="M 17135,2761 L 17335,2761"/>
 <path fill="none" stroke="rgb(0,0,0)" stroke-linejoin="round" d="M 17135,2761 L 17335,2761"/>
 <text class="TextShape" transform="translate(3646,12943) rotate(-44.9) translate(-3646,-12943)"><tspan class="TextParagraph" font-family="Arial" font-size="353px" font-weight="400"><tspan class="TextPosition" x="3646" y="12943"><tspan fill="rgb(33,33,33)" stroke="none">KLE</tspan></tspan></tspan></text>
 <text class="TextShape" transform="translate(5706,12980) rotate(-44.9) translate(-5706,-12980)"><tspan class="TextParagraph" font-family="Arial" font-size="353px" font-weight="400"><tspan class="TextPosition" x="5706" y="12980"><tspan fill="rgb(33,33,33)" stroke="none">PRR</tspan></tspan></tspan></text>
 <text class="TextShape" transform="translate(7670,13111) rotate(-44.9) translate(-7670,-13111)"><tspan class="TextParagraph" font-family="Arial" font-size="353px" font-weight="400"><tspan class="TextPosition" x="7670" y="13111"><tspan fill="rgb(33,33,33)" stroke="none">PRR2</tspan></tspan></tspan></text>
 <text class="TextShape" transform="translate(9953,12925) rotate(-44.9) translate(-9953,-12925)"><tspan class="TextParagraph" font-family="Arial" font-size="353px" font-weight="400"><tspan class="TextPosition" x="9953" y="12925"><tspan fill="rgb(33,33,33)" stroke="none">LQL</tspan></tspan></tspan></text>
 <text class="TextShape" transform="translate(9991,14983) rotate(-44.9) translate(-9991,-14983)"><tspan class="TextParagraph" font-family="Arial" font-size="353px" font-weight="400"><tspan class="TextPosition" x="9991" y="14983"><tspan fill="rgb(33,33,33)" stroke="none">LQR3 sem time control</tspan></tspan></tspan></text>
 <text class="TextShape" transform="translate(12087,14983) rotate(-44.9) translate(-12087,-14983)"><tspan class="TextParagraph" font-family="Arial" font-size="353px" font-weight="400"><tspan class="TextPosition" x="12087" y="14983"><tspan fill="rgb(33,33,33)" stroke="none">LQR3 com time control</tspan></tspan></tspan></text>
 <text class="TextShape" transform="translate(15473,13691) rotate(-44.9) translate(-15473,-13691)"><tspan class="TextParagraph" font-family="Arial" font-size="353px" font-weight="400"><tspan class="TextPosition" x="15473" y="13691"><tspan fill="rgb(33,33,33)" stroke="none">MAX GAIN</tspan></tspan></tspan></text>
 <text class="TextShape"><tspan class="TextParagraph" font-family="Arial" font-size="353px" font-weight="400"><tspan class="TextPosition" x="1569" y="12121"><tspan fill="rgb(33,33,33)" stroke="none">50,00%</tspan></tspan></tspan></text>
 <text class="TextShape"><tspan class="TextParagraph" font-family="Arial" font-size="353px" font-weight="400"><tspan class="TextPosition" x="1569" y="10204"><tspan fill="rgb(33,33,33)" stroke="none">60,00%</tspan></tspan></tspan></text>
 <text class="TextShape"><tspan class="TextParagraph" font-family="Arial" font-size="353px" font-weight="400"><tspan class="TextPosition" x="1569" y="8287"><tspan fill="rgb(33,33,33)" stroke="none">70,00%</tspan></tspan></tspan></text>
 <text class="TextShape"><tspan class="TextParagraph" font-family="Arial" font-size="353px" font-weight="400"><tspan class="TextPosition" x="1569" y="6370"><tspan fill="rgb(33,33,33)" stroke="none">80,00%</tspan></tspan></tspan></text>
 <text class="TextShape"><tspan class="TextParagraph" font-family="Arial" font-size="353px" font-weight="400"><tspan class="TextPosition" x="1569" y="4453"><tspan fill="rgb(33,33,33)" stroke="none">90,00%</tspan></tspan></tspan></text>
 <text class="TextShape"><tspan class="TextParagraph" font-family="Arial" font-size="353px" font-weight="400"><tspan class="TextPosition" x="1384" y="2536"><tspan fill="rgb(33,33,33)" stroke="none">100,00%</tspan></tspan></tspan></text>
 <text class="TextShape"><tspan class="TextParagraph" font-family="Arial" font-size="459px" font-weight="400"><tspan class="TextPosition" x="8214" y="980"><tspan fill="rgb(33,33,33)" stroke="none">Taxa de entrega</tspan></tspan></tspan><tspan class="TextParagraph" font-family="Arial" font-size="459px" font-weight="400"><tspan class="TextPosition" x="4192" y="1483"><tspan fill="rgb(33,33,33)" stroke="none">Multiple sender - Regular TX 500ms - sem ruído artificial</tspan></tspan></tspan></text>
 <path fill="rgb(255,255,255)" stroke="none" d="M 18717,8720 L 18047,8720 18047,6629 19386,6629 19386,8720 18717,8720 Z"/>
 <path fill="none" stroke="rgb(0,0,0)" stroke-linejoin="round" d="M 18717,8720 L 18047,8720 18047,6629 19386,6629 19386,8720 18717,8720 Z"/>
 <path fill="rgb(0,69,134)" stroke="none" d="M 18269,7033 L 18163,7033 18163,6822 18374,6822 18374,7033 18269,7033 Z"/>
 <path fill="rgb(255,66,14)" stroke="none" d="M 18269,7531 L 18163,7531 18163,7320 18374,7320 18374,7531 18269,7531 Z"/>
 <path fill="rgb(255,211,32)" stroke="none" d="M 18269,8028 L 18163,8028 18163,7817 18374,7817 18374,8028 18269,8028 Z"/>
 <path fill="rgb(87,157,28)" stroke="none" d="M 18269,8526 L 18163,8526 18163,8315 18374,8315 18374,8526 18269,8526 Z"/>
 <text class="TextShape"><tspan class="TextParagraph" font-family="Liberation Sans" font-size="353px" font-weight="400"><tspan class="TextPosition" x="18474" y="7047"><tspan fill="rgb(0,0,0)" stroke="none">No12</tspan></tspan></tspan></text>
 <text class="TextShape"><tspan class="TextParagraph" font-family="Liberation Sans" font-size="353px" font-weight="400"><tspan class="TextPosition" x="18474" y="7545"><tspan fill="rgb(0,0,0)" stroke="none">No14</tspan></tspan></tspan></text>
 <text class="TextShape"><tspan class="TextParagraph" font-family="Liberation Sans" font-size="353px" font-weight="400"><tspan class="TextPosition" x="18474" y="8042"><tspan fill="rgb(0,0,0)" stroke="none">No16</tspan></tspan></tspan></text>
 <text class="TextShape"><tspan class="TextParagraph" font-family="Liberation Sans" font-size="353px" font-weight="400"><tspan class="TextPosition" x="18474" y="8540"><tspan fill="rgb(0,0,0)" stroke="none">No18</tspan></tspan></tspan></text>
 <text class="TextShape" transform="translate(817,9687) rotate(-90) translate(-817,-9687)"><tspan class="TextParagraph" font-family="Arial" font-size="318px" font-weight="400"><tspan class="TextPosition" x="817" y="9687"><tspan fill="rgb(33,33,33)" stroke="none">Taxa de entrega</tspan></tspan></tspan></text>
</svg>